{
.appVersion = "1354";
copyright = "Copyright (c) 2019 ANRT. All rights reserved.";
customParameters = (
{
name = glyphOrder;
value = (
.notdef,
emspace,
enspace,
threeperemspace,
fourperemspace,
space,
thinspace,
hairspace,
A,
AE,
B,
C,
D,
E,
Egrave,
F,
G,
H,
I,
J,
K,
L,
M,
N,
O,
OE,
P,
Q,
R,
S,
T,
U,
V,
W,
X,
Y,
Z,
a,
a_dieresis,
a_e,
agrave,
b,
c,
ccedilla,
c_h,
c_k,
d,
e,
eacute,
f,
f_f,
f_i,
f_l,
g,
h,
i,
j,
k,
l,
m,
n,
o,
o_dieresis,
o_e,
p,
q,
r,
s,
longs,
longs_z,
t,
t_z,
u,
u_dieresis,
ugrave,
v,
w,
x,
y,
y_dieresis,
z,
zero,
one,
two,
three,
four,
five,
six,
seven,
eight,
nine,
ampersand,
period,
comma,
colon,
semicolon,
exclam,
question,
hyphen,
parenleft,
parenright,
dieresis,
quotesinglbase,
quotedblbase,
quotesingle,
"_corner-caps-court",
"_corner-caps-long",
mond,
kopf,
koenigspaar,
cranach_1,
cranach_2,
soldat,
eins_mensch,
maske,
mann,
Totenkopf2
);
},
{
name = "Use Typo Metrics";
value = 1;
},
{
name = vendorID;
value = ANRT;
},
{
name = unicodeRanges;
value = (
0
);
},
{
name = codePageRanges;
value = (
1252
);
},
{
name = openTypeOS2Type;
value = (
2
);
},
{
name = fsType;
value = (
2
);
},
{
name = description;

glyphs = (
{
color = 3;
glyphname = A;
lastChange = "2020-02-04 05:55:30 +0000";
layers = (
{
layerId = "310A0878-FAF0-4FA6-A778-54E96A53E047";
paths = (
{
closed = 1;
nodes = (
"153 0 LINE",
"153 10 LINE",
"123 48 OFFCURVE",
"112 66 OFFCURVE",
"124 102 CURVE SMOOTH",
"171 239 LINE",
"423 239 LINE",
"441 195 OFFCURVE",
"459 150 OFFCURVE",
"479 102 CURVE SMOOTH",
"498 56 OFFCURVE",
"485 50 OFFCURVE",
"449 10 CURVE",
"449 0 LINE",
"641 0 LINE",
"641 10 LINE",
"539 225 OFFCURVE",
"364 625 OFFCURVE",
"338 710 CURVE",
"315 710 LINE",
"5 10 LINE",
"5 0 LINE"
);
},
{
closed = 1;
nodes = (
"291 542 LINE",
"331 452 OFFCURVE",
"363 382 OFFCURVE",
"393 309 CURVE",
"197 309 LINE"
);
}
);
width = 646;
}
);
unicode = 0041;
},
{
color = 3;
glyphname = AE;
lastChange = "2020-01-30 12:51:20 +0000";
layers = (
{
layerId = "310A0878-FAF0-4FA6-A778-54E96A53E047";
paths = (
{
closed = 1;
nodes = (
"808 -35 LINE",
"804 9 OFFCURVE",
"799 61 OFFCURVE",
"801 95 CURVE",
"791 95 LINE",
"767 75 OFFCURVE",
"743 65 OFFCURVE",
"703 65 CURVE SMOOTH",
"560 65 LINE",
"560 309 LINE",
"604 309 LINE SMOOTH",
"726 309 OFFCURVE",
"746 304 OFFCURVE",
"788 275 CURVE",
"798 275 LINE",
"798 393 LINE",
"788 393 LINE",
"770 380 OFFCURVE",
"756 369 OFFCURVE",
"677 369 CURVE SMOOTH",
"560 369 LINE",
"560 632 LINE",
"590 640 OFFCURVE",
"625 640 OFFCURVE",
"644 640 CURVE SMOOTH",
"694 640 OFFCURVE",
"779 620 OFFCURVE",
"791 580 CURVE",
"801 580 LINE",
"801 700 LINE",
"416 700 LINE",
"416 690 LINE",
"430 677 OFFCURVE",
"439 669 OFFCURVE",
"443 658 CURVE",
"5 10 LINE",
"5 0 LINE",
"192 0 LINE",
"192 10 LINE",
"173 37 OFFCURVE",
"134 58 OFFCURVE",
"158 97 CURVE SMOOTH",
"289 309 LINE",
"452 309 LINE",
"451 100 LINE SMOOTH",
"449 50 OFFCURVE",
"434 43 OFFCURVE",
"401 10 CURVE",
"401 0 LINE",
"701 0 LINE SMOOTH",
"751 0 OFFCURVE",
"767 -5 OFFCURVE",
"798 -35 CURVE"
);
},
{
closed = 1;
nodes = (
"456 599 LINE",
"453 369 LINE",
"326 369 LINE"
);
}
);
width = 848;
}
);
leftMetricsKey = A;
rightMetricsKey = E;
unicode = 00C6;
},
{
color = 3;
glyphname = B;
lastChange = "2020-02-01 17:47:17 +0000";
layers = (
{
layerId = "310A0878-FAF0-4FA6-A778-54E96A53E047";
paths = (
{
closed = 1;
nodes = (
"467 -10 OFFCURVE",
"620 56 OFFCURVE",
"620 196 CURVE SMOOTH",
"620 302 OFFCURVE",
"536 380 OFFCURVE",
"419 402 CURVE",
"485 424 OFFCURVE",
"555 479 OFFCURVE",
"555 561 CURVE SMOOTH",
"555 661 OFFCURVE",
"450 710 OFFCURVE",
"350 710 CURVE SMOOTH",
"244 710 OFFCURVE",
"178 675 OFFCURVE",
"20 653 CURVE",
"20 643 LINE",
"43 629 OFFCURVE",
"61 615 OFFCURVE",
"91 593 CURVE",
"95 398 OFFCURVE",
"95 246 OFFCURVE",
"93 156 CURVE SMOOTH",
"91 65 OFFCURVE",
"77 48 OFFCURVE",
"59 36 CURVE",
"57 16 LINE",
"143 14 OFFCURVE",
"252 -10 OFFCURVE",
"337 -10 CURVE SMOOTH"
);
},
{
closed = 1;
nodes = (
"250 30 OFFCURVE",
"201 75 OFFCURVE",
"201 150 CURVE SMOOTH",
"201 355 LINE",
"241 371 OFFCURVE",
"286 378 OFFCURVE",
"336 378 CURVE SMOOTH",
"416 378 OFFCURVE",
"500 316 OFFCURVE",
"500 216 CURVE SMOOTH",
"500 106 OFFCURVE",
"445 30 OFFCURVE",
"335 30 CURVE SMOOTH"
);
},
{
closed = 1;
nodes = (
"201 632 LINE",
"229 649 OFFCURVE",
"264 670 OFFCURVE",
"321 670 CURVE SMOOTH",
"391 670 OFFCURVE",
"454 620 OFFCURVE",
"454 550 CURVE SMOOTH",
"454 482 OFFCURVE",
"418 441 OFFCURVE",
"368 422 CURVE",
"318 414 OFFCURVE",
"236 414 OFFCURVE",
"201 422 CURVE"
);
}
);
width = 660;
}
);
leftMetricsKey = D;
unicode = 0042;
},
{
color = 3;
glyphname = C;
lastChange = "2020-02-01 17:46:35 +0000";
layers = (
{
layerId = "310A0878-FAF0-4FA6-A778-54E96A53E047";
paths = (
{
closed = 1;
nodes = (
"384 -10 OFFCURVE",
"477 62 OFFCURVE",
"550 131 CURVE",
"552 166 LINE",
"549 167 LINE",
"487 120 OFFCURVE",
"422 90 OFFCURVE",
"381 90 CURVE SMOOTH",
"301 90 OFFCURVE",
"130 174 OFFCURVE",
"130 424 CURVE SMOOTH",
"130 551 OFFCURVE",
"188 632 OFFCURVE",
"278 632 CURVE SMOOTH",
"351 632 OFFCURVE",
"419 606 OFFCURVE",
"485 575 CURVE",
"556 673 LINE",
"513 694 OFFCURVE",
"443 709 OFFCURVE",
"367 709 CURVE SMOOTH",
"179 709 OFFCURVE",
"40 537 OFFCURVE",
"40 354 CURVE SMOOTH",
"40 174 OFFCURVE",
"148 -10 OFFCURVE",
"348 -10 CURVE SMOOTH"
);
}
);
width = 571;
}
);
leftMetricsKey = O;
unicode = 0043;
},
{
color = 3;
glyphname = D;
lastChange = "2020-02-01 17:46:26 +0000";
layers = (
{
layerId = "310A0878-FAF0-4FA6-A778-54E96A53E047";
paths = (
{
closed = 1;
nodes = (
"565 -10 OFFCURVE",
"716 134 OFFCURVE",
"716 336 CURVE SMOOTH",
"716 539 OFFCURVE",
"571 710 OFFCURVE",
"325 710 CURVE SMOOTH",
"209 710 OFFCURVE",
"144 675 OFFCURVE",
"29 702 CURVE",
"20 690 LINE",
"63 646 OFFCURVE",
"86 626 OFFCURVE",
"88 532 CURVE SMOOTH",
"91 386 OFFCURVE",
"101 231 OFFCURVE",
"90 105 CURVE SMOOTH",
"87 63 OFFCURVE",
"78 46 OFFCURVE",
"63 30 CURVE",
"65 10 LINE",
"134 40 OFFCURVE",
"226 -10 OFFCURVE",
"355 -10 CURVE SMOOTH"
);
},
{
closed = 1;
nodes = (
"265 30 OFFCURVE",
"219 55 OFFCURVE",
"202 96 CURVE",
"189 210 OFFCURVE",
"197 470 OFFCURVE",
"202 634 CURVE",
"234 650 OFFCURVE",
"292 670 OFFCURVE",
"346 670 CURVE SMOOTH",
"489 670 OFFCURVE",
"596 548 OFFCURVE",
"596 356 CURVE SMOOTH",
"596 186 OFFCURVE",
"505 30 OFFCURVE",
"335 30 CURVE SMOOTH"
);
}
);
width = 756;
}
);
rightMetricsKey = O;
unicode = 0044;
},
{
color = 3;
glyphname = E;
lastChange = "2020-01-30 12:51:20 +0000";
layers = (
{
layerId = "310A0878-FAF0-4FA6-A778-54E96A53E047";
paths = (
{
closed = 1;
nodes = (
"428 -51 LINE",
"425 123 LINE",
"415 123 LINE",
"382 79 OFFCURVE",
"367 65 OFFCURVE",
"327 65 CURVE SMOOTH",
"185 65 LINE",
"185 110 LINE SMOOTH",
"183 188 OFFCURVE",
"182 266 OFFCURVE",
"181 344 CURVE",
"337 344 LINE SMOOTH",
"377 344 OFFCURVE",
"385 329 OFFCURVE",
"402 310 CURVE",
"412 310 LINE",
"411 359 OFFCURVE",
"415 399 OFFCURVE",
"418 448 CURVE",
"409 449 LINE",
"389 421 OFFCURVE",
"370 404 OFFCURVE",
"330 404 CURVE SMOOTH",
"181 404 LINE",
"181 483 OFFCURVE",
"182 561 OFFCURVE",
"184 640 CURVE",
"365 640 LINE SMOOTH",
"395 640 OFFCURVE",
"412 620 OFFCURVE",
"415 580 CURVE",
"425 580 LINE",
"425 700 LINE",
"40 700 LINE",
"40 690 LINE",
"65 652 OFFCURVE",
"73 642 OFFCURVE",
"75 610 CURVE SMOOTH",
"85 456 OFFCURVE",
"81 243 OFFCURVE",
"75 100 CURVE SMOOTH",
"73 50 OFFCURVE",
"69 43 OFFCURVE",
"44 10 CURVE",
"44 0 LINE",
"315 0 LINE SMOOTH",
"375 0 OFFCURVE",
"400 -18 OFFCURVE",
"418 -51 CURVE"
);
}
);
width = 468;
}
);
leftMetricsKey = H;
rightMetricsKey = H;
unicode = 0045;
},
{
color = 3;
glyphname = Egrave;
lastChange = "2020-02-01 17:46:12 +0000";
layers = (
{
layerId = "310A0878-FAF0-4FA6-A778-54E96A53E047";
paths = (
{
closed = 1;
nodes = (
"428 -51 LINE",
"425 123 LINE",
"415 123 LINE",
"382 79 OFFCURVE",
"367 65 OFFCURVE",
"327 65 CURVE SMOOTH",
"185 65 LINE",
"185 110 LINE SMOOTH",
"183 188 OFFCURVE",
"182 266 OFFCURVE",
"181 344 CURVE",
"337 344 LINE SMOOTH",
"377 344 OFFCURVE",
"385 329 OFFCURVE",
"402 310 CURVE",
"412 310 LINE",
"411 359 OFFCURVE",
"415 399 OFFCURVE",
"418 448 CURVE",
"409 449 LINE",
"389 421 OFFCURVE",
"370 404 OFFCURVE",
"330 404 CURVE SMOOTH",
"181 404 LINE",
"181 483 OFFCURVE",
"182 561 OFFCURVE",
"184 640 CURVE",
"365 640 LINE SMOOTH",
"395 640 OFFCURVE",
"412 620 OFFCURVE",
"415 580 CURVE",
"425 580 LINE",
"425 700 LINE",
"40 700 LINE",
"40 690 LINE",
"65 652 OFFCURVE",
"73 642 OFFCURVE",
"75 610 CURVE SMOOTH",
"85 456 OFFCURVE",
"81 243 OFFCURVE",
"75 100 CURVE SMOOTH",
"73 50 OFFCURVE",
"69 43 OFFCURVE",
"44 10 CURVE",
"44 0 LINE",
"315 0 LINE SMOOTH",
"375 0 OFFCURVE",
"400 -18 OFFCURVE",
"418 -51 CURVE"
);
},
{
closed = 1;
nodes = (
"393 766 LINE",
"217 889 LINE",
"160 866 LINE",
"161 861 LINE",
"358 765 LINE",
"392 764 LINE"
);
}
);
width = 468;
}
);
leftMetricsKey = E;
rightMetricsKey = E;
unicode = 00C8;
},
{
color = 3;
glyphname = F;
lastChange = "2020-02-01 17:46:03 +0000";
layers = (
{
layerId = "310A0878-FAF0-4FA6-A778-54E96A53E047";
paths = (
{
closed = 1;
nodes = (
"234 0 LINE",
"234 10 LINE",
"203 41 OFFCURVE",
"193 50 OFFCURVE",
"192 80 CURVE SMOOTH",
"189 160 OFFCURVE",
"185 262 OFFCURVE",
"185 344 CURVE",
"303 344 LINE SMOOTH",
"343 344 OFFCURVE",
"381 333 OFFCURVE",
"394 312 CURVE",
"402 312 LINE",
"406 438 LINE",
"398 438 LINE",
"380 420 OFFCURVE",
"354 405 OFFCURVE",
"334 404 CURVE SMOOTH",
"284 402 OFFCURVE",
"235 402 OFFCURVE",
"185 404 CURVE",
"185 482 OFFCURVE",
"186 563 OFFCURVE",
"187 635 CURVE",
"218 640 OFFCURVE",
"248 641 OFFCURVE",
"279 640 CURVE SMOOTH",
"322 639 OFFCURVE",
"377 625 OFFCURVE",
"406 579 CURVE",
"416 579 LINE",
"417 700 LINE",
"44 700 LINE",
"44 690 LINE",
"69 659 OFFCURVE",
"77 656 OFFCURVE",
"79 606 CURVE SMOOTH",
"85 452 OFFCURVE",
"85 243 OFFCURVE",
"79 100 CURVE SMOOTH",
"77 50 OFFCURVE",
"65 35 OFFCURVE",
"40 10 CURVE",
"40 0 LINE"
);
}
);
width = 437;
}
);
leftMetricsKey = H;
unicode = 0046;
},
{
color = 3;
glyphname = G;
lastChange = "2020-02-04 05:56:16 +0000";
layers = (
{
hints = (
{
origin = "{0, 16}";
target = "{0, 15}";
type = Stem;
}
);
layerId = "310A0878-FAF0-4FA6-A778-54E96A53E047";
paths = (
{
closed = 1;
nodes = (
"554 -10 OFFCURVE",
"634 52 OFFCURVE",
"666 88 CURVE",
"663 169 OFFCURVE",
"662 281 OFFCURVE",
"666 391 CURVE",
"664 394 LINE",
"609 387 OFFCURVE",
"513 384 OFFCURVE",
"449 391 CURVE",
"371 303 LINE",
"386 292 LINE",
"428 323 OFFCURVE",
"503 316 OFFCURVE",
"567 316 CURVE",
"573 235 OFFCURVE",
"573 153 OFFCURVE",
"567 72 CURVE",
"543 57 OFFCURVE",
"514 43 OFFCURVE",
"454 43 CURVE SMOOTH",
"284 43 OFFCURVE",
"155 202 OFFCURVE",
"155 373 CURVE SMOOTH",
"155 473 OFFCURVE",
"173 537 OFFCURVE",
"217 591 CURVE",
"325 641 OFFCURVE",
"493 647 OFFCURVE",
"631 544 CURVE",
"637 544 LINE",
"684 656 LINE",
"622 693 OFFCURVE",
"548 710 OFFCURVE",
"451 710 CURVE SMOOTH",
"231 710 OFFCURVE",
"40 553 OFFCURVE",
"40 333 CURVE SMOOTH",
"40 114 OFFCURVE",
"234 -10 OFFCURVE",
"434 -10 CURVE SMOOTH"
);
}
);
width = 724;
}
);
leftMetricsKey = O;
rightMetricsKey = H;
unicode = 0047;
},
{
color = 3;
glyphname = H;
lastChange = "2020-01-30 12:46:21 +0000";
layers = (
{
layerId = "310A0878-FAF0-4FA6-A778-54E96A53E047";
paths = (
{
closed = 1;
nodes = (
"238 0 LINE",
"238 10 LINE",
"205 35 OFFCURVE",
"194 45 OFFCURVE",
"193 85 CURVE SMOOTH",
"191 146 OFFCURVE",
"191 239 OFFCURVE",
"190 303 CURVE",
"524 305 LINE",
"527 239 OFFCURVE",
"527 191 OFFCURVE",
"523 102 CURVE SMOOTH",
"522 82 OFFCURVE",
"515 43 OFFCURVE",
"503 10 CURVE",
"503 0 LINE",
"677 0 LINE",
"677 10 LINE",
"648 42 OFFCURVE",
"633 52 OFFCURVE",
"629 122 CURVE SMOOTH",
"623 248 OFFCURVE",
"624 361 OFFCURVE",
"632 527 CURVE SMOOTH",
"634 570 OFFCURVE",
"642 579 OFFCURVE",
"667 602 CURVE",
"667 612 LINE",
"468 612 LINE",
"468 602 LINE",
"508 570 OFFCURVE",
"521 547 OFFCURVE",
"522 507 CURVE SMOOTH",
"523 461 OFFCURVE",
"524 409 OFFCURVE",
"523 371 CURVE",
"190 373 LINE",
"190 454 OFFCURVE",
"190 547 OFFCURVE",
"191 588 CURVE SMOOTH",
"194 658 OFFCURVE",
"207 673 OFFCURVE",
"226 690 CURVE",
"226 700 LINE",
"40 700 LINE",
"40 690 LINE",
"62 678 OFFCURVE",
"79 653 OFFCURVE",
"81 596 CURVE SMOOTH",
"86 458 OFFCURVE",
"88 271 OFFCURVE",
"83 105 CURVE SMOOTH",
"81 55 OFFCURVE",
"78 33 OFFCURVE",
"53 10 CURVE",
"53 0 LINE"
);
}
);
width = 717;
}
);
unicode = 0048;
},
{
color = 3;
glyphname = I;
lastChange = "2020-02-01 17:45:29 +0000";
layers = (
{
layerId = "310A0878-FAF0-4FA6-A778-54E96A53E047";
paths = (
{
closed = 1;
nodes = (
"270 0 LINE",
"270 10 LINE",
"227 42 OFFCURVE",
"196 65 OFFCURVE",
"195 105 CURVE SMOOTH",
"191 264 OFFCURVE",
"191 449 OFFCURVE",
"195 598 CURVE SMOOTH",
"196 638 OFFCURVE",
"235 665 OFFCURVE",
"264 690 CURVE",
"264 700 LINE",
"40 700 LINE",
"40 690 LINE",
"60 668 OFFCURVE",
"84 648 OFFCURVE",
"85 608 CURVE SMOOTH",
"88 452 OFFCURVE",
"88 271 OFFCURVE",
"85 105 CURVE SMOOTH",
"84 55 OFFCURVE",
"69 43 OFFCURVE",
"44 10 CURVE",
"44 0 LINE"
);
}
);
width = 300;
}
);
leftMetricsKey = H;
unicode = 0049;
},
{
color = 3;
glyphname = J;
lastChange = "2020-02-01 17:45:15 +0000";
layers = (
{
layerId = "310A0878-FAF0-4FA6-A778-54E96A53E047";
paths = (
{
closed = 1;
nodes = (
"271 -151 OFFCURVE",
"338 -53 OFFCURVE",
"338 151 CURVE SMOOTH",
"338 521 LINE SMOOTH",
"338 614 OFFCURVE",
"357 672 OFFCURVE",
"377 706 CURVE",
"368 712 LINE",
"328 701 OFFCURVE",
"290 700 OFFCURVE",
"250 700 CURVE SMOOTH",
"187 700 OFFCURVE",
"115 707 OFFCURVE",
"78 707 CURVE",
"41 690 OFFCURVE",
"26 661 OFFCURVE",
"5 624 CURVE",
"15 614 LINE",
"32 632 OFFCURVE",
"77 637 OFFCURVE",
"230 620 CURVE",
"237 440 OFFCURVE",
"233 245 OFFCURVE",
"228 65 CURVE SMOOTH",
"225 -35 OFFCURVE",
"197 -121 OFFCURVE",
"126 -169 CURVE",
"131 -190 LINE"
);
}
);
width = 417;
}
);
rightMetricsKey = H;
unicode = 004A;
},
{
color = 3;
glyphname = K;
lastChange = "2020-02-01 17:45:08 +0000";
layers = (
{
layerId = "310A0878-FAF0-4FA6-A778-54E96A53E047";
paths = (
{
closed = 1;
nodes = (
"253 0 LINE",
"253 10 LINE",
"210 42 OFFCURVE",
"189 62 OFFCURVE",
"178 75 CURVE",
"176 163 OFFCURVE",
"175 260 OFFCURVE",
"175 354 CURVE",
"248 343 OFFCURVE",
"441 136 OFFCURVE",
"441 73 CURVE SMOOTH",
"441 44 OFFCURVE",
"426 32 OFFCURVE",
"404 10 CURVE",
"404 0 LINE",
"644 0 LINE",
"644 10 LINE",
"568 92 OFFCURVE",
"369 306 OFFCURVE",
"259 394 CURVE",
"368 470 OFFCURVE",
"505 593 OFFCURVE",
"566 690 CURVE",
"566 700 LINE",
"357 700 LINE",
"357 690 LINE",
"381 683 OFFCURVE",
"397 677 OFFCURVE",
"414 671 CURVE",
"414 604 OFFCURVE",
"247 399 OFFCURVE",
"175 388 CURVE",
"175 483 OFFCURVE",
"176 573 OFFCURVE",
"178 648 CURVE",
"192 662 OFFCURVE",
"210 673 OFFCURVE",
"233 690 CURVE",
"233 700 LINE",
"40 700 LINE",
"40 690 LINE",
"52 668 OFFCURVE",
"67 648 OFFCURVE",
"68 608 CURVE SMOOTH",
"71 452 OFFCURVE",
"71 271 OFFCURVE",
"68 105 CURVE SMOOTH",
"67 55 OFFCURVE",
"58 43 OFFCURVE",
"46 10 CURVE",
"46 0 LINE"
);
}
);
width = 649;
}
);
leftMetricsKey = H;
unicode = 004B;
},
{
color = 3;
glyphname = L;
lastChange = "2020-02-01 17:45:01 +0000";
layers = (
{
layerId = "310A0878-FAF0-4FA6-A778-54E96A53E047";
paths = (
{
closed = 1;
nodes = (
"503 0 LINE",
"503 215 LINE",
"493 215 LINE",
"459 126 OFFCURVE",
"435 53 OFFCURVE",
"353 44 CURVE SMOOTH",
"316 40 OFFCURVE",
"261 37 OFFCURVE",
"201 36 CURVE",
"186 182 OFFCURVE",
"195 438 OFFCURVE",
"195 632 CURVE",
"206 641 OFFCURVE",
"232 660 OFFCURVE",
"291 689 CURVE",
"291 699 LINE",
"40 700 LINE",
"40 690 LINE",
"71 663 OFFCURVE",
"82 620 OFFCURVE",
"85 560 CURVE SMOOTH",
"93 395 OFFCURVE",
"94 230 OFFCURVE",
"86 85 CURVE SMOOTH",
"84 50 OFFCURVE",
"74 34 OFFCURVE",
"56 9 CURVE",
"56 0 LINE"
);
}
);
width = 523;
}
);
leftMetricsKey = H;
unicode = 004C;
},
{
color = 3;
glyphname = M;
lastChange = "2020-02-01 17:44:48 +0000";
layers = (
{
layerId = "310A0878-FAF0-4FA6-A778-54E96A53E047";
paths = (
{
closed = 1;
nodes = (
"404 1 LINE",
"411 125 OFFCURVE",
"500 344 OFFCURVE",
"589 543 CURVE",
"668 95 LINE SMOOTH",
"675 54 OFFCURVE",
"613 24 OFFCURVE",
"579 10 CURVE",
"579 0 LINE",
"816 0 LINE",
"739 300 OFFCURVE",
"697 488 OFFCURVE",
"653 723 CURVE",
"617 720 LINE",
"402 229 LINE",
"212 723 LINE",
"166 717 LINE",
"5 0 LINE",
"201 0 LINE",
"201 10 LINE",
"113 34 OFFCURVE",
"87 59 OFFCURVE",
"92 100 CURVE SMOOTH",
"112 253 OFFCURVE",
"146 409 OFFCURVE",
"176 564 CURVE",
"244 401 OFFCURVE",
"348 123 OFFCURVE",
"370 -7 CURVE"
);
}
);
width = 821;
}
);
unicode = 004D;
},
{
color = 3;
glyphname = N;
lastChange = "2020-02-01 17:44:34 +0000";
layers = (
{
layerId = "310A0878-FAF0-4FA6-A778-54E96A53E047";
paths = (
{
closed = 1;
nodes = (
"239 0 LINE",
"239 10 LINE",
"196 43 OFFCURVE",
"175 60 OFFCURVE",
"175 110 CURVE SMOOTH",
"175 504 LINE",
"300 427 OFFCURVE",
"443 329 OFFCURVE",
"563 231 CURVE",
"566 188 OFFCURVE",
"566 134 OFFCURVE",
"563 91 CURVE SMOOTH",
"561 61 OFFCURVE",
"548 41 OFFCURVE",
"508 10 CURVE",
"508 0 LINE",
"696 0 LINE",
"696 10 LINE",
"683 46 OFFCURVE",
"663 109 OFFCURVE",
"663 180 CURVE SMOOTH",
"662 322 OFFCURVE",
"663 475 OFFCURVE",
"663 617 CURVE SMOOTH",
"663 651 OFFCURVE",
"671 662 OFFCURVE",
"690 690 CURVE",
"690 700 LINE",
"478 700 LINE",
"478 690 LINE",
"541 653 OFFCURVE",
"563 639 OFFCURVE",
"563 580 CURVE SMOOTH",
"563 327 LINE",
"444 410 OFFCURVE",
"302 515 OFFCURVE",
"179 604 CURVE",
"177 653 OFFCURVE",
"179 667 OFFCURVE",
"215 690 CURVE",
"215 700 LINE",
"40 700 LINE",
"40 690 LINE",
"55 660 OFFCURVE",
"75 630 OFFCURVE",
"75 530 CURVE SMOOTH",
"75 130 LINE SMOOTH",
"75 70 OFFCURVE",
"59 37 OFFCURVE",
"45 10 CURVE",
"45 0 LINE"
);
}
);
width = 736;
}
);
leftMetricsKey = H;
rightMetricsKey = H;
unicode = 004E;
},
{
color = 3;
glyphname = O;
lastChange = "2020-02-01 17:45:49 +0000";
layers = (
{
layerId = "310A0878-FAF0-4FA6-A778-54E96A53E047";
paths = (
{
closed = 1;
nodes = (
"554 -10 OFFCURVE",
"699 151 OFFCURVE",
"699 351 CURVE SMOOTH",
"699 551 OFFCURVE",
"559 710 OFFCURVE",
"369 710 CURVE SMOOTH",
"189 710 OFFCURVE",
"40 551 OFFCURVE",
"40 351 CURVE SMOOTH",
"40 151 OFFCURVE",
"174 -10 OFFCURVE",
"364 -10 CURVE SMOOTH"
);
},
{
closed = 1;
nodes = (
"230 27 OFFCURVE",
"157 205 OFFCURVE",
"157 357 CURVE SMOOTH",
"157 504 OFFCURVE",
"225 668 OFFCURVE",
"362 670 CURVE SMOOTH",
"505 672 OFFCURVE",
"577 497 OFFCURVE",
"577 345 CURVE SMOOTH",
"577 198 OFFCURVE",
"510 33 OFFCURVE",
"373 30 CURVE SMOOTH"
);
}
);
width = 739;
}
);
unicode = 004F;
},
{
color = 3;
glyphname = P;
lastChange = "2020-02-01 17:44:16 +0000";
layers = (
{
layerId = "310A0878-FAF0-4FA6-A778-54E96A53E047";
paths = (
{
closed = 1;
nodes = (
"261 0 LINE",
"261 10 LINE",
"196 45 OFFCURVE",
"186 55 OFFCURVE",
"186 90 CURVE SMOOTH",
"186 282 OFFCURVE",
"182 459 OFFCURVE",
"186 651 CURVE",
"206 657 OFFCURVE",
"233 660 OFFCURVE",
"252 660 CURVE SMOOTH",
"404 660 OFFCURVE",
"480 586 OFFCURVE",
"480 479 CURVE SMOOTH",
"480 360 OFFCURVE",
"399 273 OFFCURVE",
"250 309 CURVE",
"246 292 LINE",
"264 281 OFFCURVE",
"300 270 OFFCURVE",
"351 270 CURVE SMOOTH",
"438 270 OFFCURVE",
"587 322 OFFCURVE",
"587 475 CURVE SMOOTH",
"587 595 OFFCURVE",
"482 700 OFFCURVE",
"272 700 CURVE SMOOTH",
"232 700 OFFCURVE",
"131 700 OFFCURVE",
"40 705 CURVE",
"40 695 LINE",
"60 662 OFFCURVE",
"76 660 OFFCURVE",
"76 560 CURVE SMOOTH",
"76 86 LINE SMOOTH",
"76 54 OFFCURVE",
"65 32 OFFCURVE",
"50 10 CURVE",
"50 0 LINE"
);
}
);
width = 607;
}
);
leftMetricsKey = H;
unicode = 0050;
},
{
color = 3;
glyphname = Q;
lastChange = "2020-02-04 05:33:43 +0000";
layers = (
{
layerId = "310A0878-FAF0-4FA6-A778-54E96A53E047";
paths = (
{
closed = 1;
nodes = (
"825 -193 OFFCURVE",
"914 -134 OFFCURVE",
"1034 -53 CURVE",
"1010 -38 LINE",
"895 -97 OFFCURVE",
"821 -111 OFFCURVE",
"793 -111 CURVE SMOOTH",
"764 -111 OFFCURVE",
"608 -69 OFFCURVE",
"444 4 CURVE",
"585 48 OFFCURVE",
"684 186 OFFCURVE",
"684 351 CURVE SMOOTH",
"684 551 OFFCURVE",
"544 710 OFFCURVE",
"354 710 CURVE SMOOTH",
"174 710 OFFCURVE",
"25 551 OFFCURVE",
"25 351 CURVE SMOOTH",
"25 161 OFFCURVE",
"146 6 OFFCURVE",
"321 -9 CURVE",
"417 -42 OFFCURVE",
"649 -183 OFFCURVE",
"753 -222 CURVE"
);
},
{
closed = 1;
nodes = (
"215 27 OFFCURVE",
"142 205 OFFCURVE",
"142 357 CURVE SMOOTH",
"142 504 OFFCURVE",
"210 668 OFFCURVE",
"347 670 CURVE SMOOTH",
"490 672 OFFCURVE",
"562 497 OFFCURVE",
"562 345 CURVE SMOOTH",
"562 198 OFFCURVE",
"495 33 OFFCURVE",
"358 30 CURVE SMOOTH"
);
}
);
width = 714;
}
);
leftMetricsKey = o;
unicode = 0051;
},
{
color = 3;
glyphname = R;
lastChange = "2020-02-01 17:43:49 +0000";
layers = (
{
layerId = "310A0878-FAF0-4FA6-A778-54E96A53E047";
paths = (
{
closed = 1;
nodes = (
"214 0 LINE",
"214 10 LINE",
"204 41 OFFCURVE",
"190 57 OFFCURVE",
"190 109 CURVE SMOOTH",
"190 327 LINE",
"211 324 OFFCURVE",
"252 318 OFFCURVE",
"280 313 CURVE",
"314 283 OFFCURVE",
"403 177 OFFCURVE",
"455 95 CURVE SMOOTH",
"478 59 OFFCURVE",
"479 27 OFFCURVE",
"460 10 CURVE",
"460 0 LINE",
"660 0 LINE",
"660 10 LINE",
"562 123 OFFCURVE",
"419 274 OFFCURVE",
"362 333 CURVE",
"449 353 OFFCURVE",
"548 413 OFFCURVE",
"548 523 CURVE SMOOTH",
"548 643 OFFCURVE",
"450 700 OFFCURVE",
"300 700 CURVE SMOOTH",
"40 700 LINE",
"40 690 LINE",
"73 656 OFFCURVE",
"90 626 OFFCURVE",
"90 580 CURVE SMOOTH",
"90 117 LINE SMOOTH",
"90 68 OFFCURVE",
"79 39 OFFCURVE",
"64 10 CURVE",
"64 0 LINE"
);
},
{
closed = 1;
nodes = (
"190 660 LINE",
"207 662 OFFCURVE",
"224 662 OFFCURVE",
"241 662 CURVE SMOOTH",
"371 662 OFFCURVE",
"438 603 OFFCURVE",
"438 513 CURVE SMOOTH",
"438 400 OFFCURVE",
"321 352 OFFCURVE",
"190 367 CURVE"
);
}
);
width = 670;
}
);
leftMetricsKey = H;
unicode = 0052;
},
{
color = 3;
glyphname = S;
lastChange = "2020-02-01 17:43:44 +0000";
layers = (
{
layerId = "310A0878-FAF0-4FA6-A778-54E96A53E047";
paths = (
{
closed = 1;
nodes = (
"390 -10 OFFCURVE",
"480 76 OFFCURVE",
"480 201 CURVE SMOOTH",
"480 315 OFFCURVE",
"407 381 OFFCURVE",
"285 429 CURVE SMOOTH",
"173 473 OFFCURVE",
"118 513 OFFCURVE",
"118 565 CURVE SMOOTH",
"118 613 OFFCURVE",
"157 652 OFFCURVE",
"215 652 CURVE SMOOTH",
"284 652 OFFCURVE",
"331 616 OFFCURVE",
"392 570 CURVE",
"472 700 LINE",
"463 706 LINE",
"408 679 LINE",
"389 679 OFFCURVE",
"330 710 OFFCURVE",
"263 710 CURVE SMOOTH",
"156 710 OFFCURVE",
"57 627 OFFCURVE",
"57 524 CURVE SMOOTH",
"57 422 OFFCURVE",
"114 369 OFFCURVE",
"286 301 CURVE SMOOTH",
"370 268 OFFCURVE",
"427 237 OFFCURVE",
"427 169 CURVE SMOOTH",
"427 105 OFFCURVE",
"372 65 OFFCURVE",
"295 65 CURVE SMOOTH",
"232 65 OFFCURVE",
"144 82 OFFCURVE",
"100 151 CURVE",
"94 151 LINE",
"78 87 OFFCURVE",
"48 44 OFFCURVE",
"30 0 CURVE",
"39 -6 LINE",
"94 27 LINE",
"111 25 OFFCURVE",
"179 -10 OFFCURVE",
"279 -10 CURVE SMOOTH"
);
}
);
width = 510;
}
);
unicode = 0053;
},
{
color = 3;
glyphname = T;
lastChange = "2020-02-01 17:43:35 +0000";
layers = (
{
layerId = "310A0878-FAF0-4FA6-A778-54E96A53E047";
paths = (
{
closed = 1;
nodes = (
"420 0 LINE",
"420 10 LINE",
"383 50 OFFCURVE",
"370 56 OFFCURVE",
"370 86 CURVE SMOOTH",
"370 624 LINE",
"462 625 OFFCURVE",
"550 627 OFFCURVE",
"610 629 CURVE",
"670 699 LINE",
"666 708 LINE",
"571 688 OFFCURVE",
"272 704 OFFCURVE",
"91 704 CURVE SMOOTH",
"32 704 OFFCURVE",
"5 670 OFFCURVE",
"5 629 CURVE SMOOTH",
"5 588 OFFCURVE",
"37 565 OFFCURVE",
"57 555 CURVE",
"63 561 LINE",
"57 587 OFFCURVE",
"48 623 OFFCURVE",
"138 623 CURVE SMOOTH",
"270 623 LINE",
"270 84 LINE SMOOTH",
"270 63 OFFCURVE",
"252 31 OFFCURVE",
"242 10 CURVE",
"242 0 LINE"
);
}
);
width = 675;
}
);
unicode = 0054;
},
{
color = 3;
glyphname = U;
lastChange = "2020-02-01 17:36:56 +0000";
layers = (
{
layerId = "310A0878-FAF0-4FA6-A778-54E96A53E047";
paths = (
{
closed = 1;
nodes = (
"414 -10 OFFCURVE",
"466 26 OFFCURVE",
"531 79 CURVE",
"547 -9 LINE",
"591 -4 OFFCURVE",
"637 -1 OFFCURVE",
"681 0 CURVE",
"681 10 LINE",
"660 41 OFFCURVE",
"631 71 OFFCURVE",
"631 101 CURVE SMOOTH",
"630 218 OFFCURVE",
"625 448 OFFCURVE",
"634 624 CURVE SMOOTH",
"635 654 OFFCURVE",
"651 673 OFFCURVE",
"661 690 CURVE",
"661 700 LINE",
"460 700 LINE",
"460 690 LINE",
"504 665 OFFCURVE",
"527 647 OFFCURVE",
"527 614 CURVE SMOOTH",
"527 121 LINE",
"460 61 OFFCURVE",
"405 51 OFFCURVE",
"354 51 CURVE SMOOTH",
"239 51 OFFCURVE",
"193 120 OFFCURVE",
"193 259 CURVE SMOOTH",
"193 577 LINE SMOOTH",
"193 641 OFFCURVE",
"205 648 OFFCURVE",
"250 690 CURVE",
"250 700 LINE",
"40 700 LINE",
"40 689 LINE",
"58 673 OFFCURVE",
"84 651 OFFCURVE",
"85 607 CURVE SMOOTH",
"90 382 OFFCURVE",
"93 306 OFFCURVE",
"92 211 CURVE SMOOTH",
"90 51 OFFCURVE",
"191 -10 OFFCURVE",
"322 -10 CURVE SMOOTH"
);
}
);
width = 721;
}
);
leftMetricsKey = H;
rightMetricsKey = H;
unicode = 0055;
},
{
color = 3;
glyphname = V;
lastChange = "2020-01-30 12:51:20 +0000";
layers = (
{
layerId = "310A0878-FAF0-4FA6-A778-54E96A53E047";
paths = (
{
closed = 1;
nodes = (
"399 0 LINE",
"420 116 OFFCURVE",
"706 652 OFFCURVE",
"738 690 CURVE",
"738 700 LINE",
"520 700 LINE",
"520 690 LINE",
"598 669 OFFCURVE",
"620 643 OFFCURVE",
"597 590 CURVE SMOOTH",
"401 142 LINE",
"205 564 LINE SMOOTH",
"174 630 OFFCURVE",
"172 642 OFFCURVE",
"242 690 CURVE",
"242 700 LINE",
"5 700 LINE",
"5 690 LINE",
"135 463 OFFCURVE",
"269 220 OFFCURVE",
"371 -10 CURVE"
);
}
);
width = 743;
}
);
unicode = 0056;
},
{
color = 3;
glyphname = W;
lastChange = "2020-01-30 12:51:20 +0000";
layers = (
{
layerId = "310A0878-FAF0-4FA6-A778-54E96A53E047";
paths = (
{
closed = 1;
nodes = (
"263 -3 LINE",
"287 94 OFFCURVE",
"338 253 OFFCURVE",
"423 473 CURVE",
"574 -5 LINE",
"605 -3 LINE",
"621 107 OFFCURVE",
"773 501 OFFCURVE",
"848 695 CURVE",
"848 700 LINE",
"717 700 LINE",
"717 690 LINE",
"750 673 OFFCURVE",
"766 651 OFFCURVE",
"752 610 CURVE SMOOTH",
"610 191 LINE",
"497 604 LINE SMOOTH",
"483 655 OFFCURVE",
"505 667 OFFCURVE",
"537 690 CURVE",
"537 700 LINE",
"340 700 LINE",
"340 690 LINE",
"372 647 OFFCURVE",
"383 608 OFFCURVE",
"392 563 CURVE",
"270 183 LINE",
"141 610 LINE SMOOTH",
"135 631 OFFCURVE",
"150 656 OFFCURVE",
"191 690 CURVE",
"191 700 LINE",
"5 700 LINE",
"5 695 LINE",
"20 651 OFFCURVE",
"207 90 OFFCURVE",
"234 -5 CURVE"
);
}
);
width = 853;
}
);
leftMetricsKey = V;
rightMetricsKey = V;
unicode = 0057;
},
{
color = 3;
glyphname = X;
lastChange = "2020-02-04 05:51:56 +0000";
layers = (
{
layerId = "310A0878-FAF0-4FA6-A778-54E96A53E047";
paths = (
{
closed = 1;
nodes = (
"230 0 LINE",
"230 10 LINE",
"175 28 OFFCURVE",
"133 55 OFFCURVE",
"155 84 CURVE SMOOTH",
"331 318 LINE",
"395 234 OFFCURVE",
"455 153 OFFCURVE",
"515 71 CURVE SMOOTH",
"526 56 OFFCURVE",
"509 32 OFFCURVE",
"469 8 CURVE",
"469 0 LINE",
"684 0 LINE",
"688 11 LINE",
"586 138 OFFCURVE",
"487 264 OFFCURVE",
"397 383 CURVE",
"667 690 LINE",
"662 700 LINE",
"446 700 LINE",
"446 690 LINE",
"509 675 OFFCURVE",
"537 658 OFFCURVE",
"522 635 CURVE SMOOTH",
"375 416 LINE",
"315 497 OFFCURVE",
"259 571 OFFCURVE",
"209 644 CURVE SMOOTH",
"200 658 OFFCURVE",
"219 680 OFFCURVE",
"244 690 CURVE",
"244 700 LINE",
"47 700 LINE",
"42 690 LINE",
"131 581 OFFCURVE",
"220 467 OFFCURVE",
"306 353 CURVE",
"10 10 LINE",
"15 0 LINE"
);
}
);
width = 698;
}
);
unicode = 0058;
},
{
color = 3;
glyphname = Y;
lastChange = "2020-02-04 05:53:15 +0000";
layers = (
{
layerId = "310A0878-FAF0-4FA6-A778-54E96A53E047";
paths = (
{
closed = 1;
nodes = (
"473 0 LINE",
"473 10 LINE",
"434 32 OFFCURVE",
"393 49 OFFCURVE",
"393 83 CURVE SMOOTH",
"393 350 LINE",
"651 692 LINE",
"647 699 LINE",
"433 700 LINE",
"433 690 LINE",
"478 676 OFFCURVE",
"505 663 OFFCURVE",
"530 645 CURVE",
"483 554 OFFCURVE",
"434 482 OFFCURVE",
"375 391 CURVE",
"174 639 LINE",
"182 661 OFFCURVE",
"200 679 OFFCURVE",
"211 690 CURVE",
"211 700 LINE",
"15 700 LINE",
"10 690 LINE",
"283 321 LINE",
"283 99 LINE SMOOTH",
"283 63 OFFCURVE",
"277 36 OFFCURVE",
"255 10 CURVE",
"255 0 LINE"
);
}
);
width = 661;
}
);
unicode = 0059;
},
{
color = 3;
glyphname = Z;
lastChange = "2020-02-01 17:36:34 +0000";
layers = (
{
layerId = "310A0878-FAF0-4FA6-A778-54E96A53E047";
paths = (
{
closed = 1;
nodes = (
"121 0 OFFCURVE",
"154 12 OFFCURVE",
"212 12 CURVE SMOOTH",
"316 12 OFFCURVE",
"503 -10 OFFCURVE",
"542 -10 CURVE",
"578 30 OFFCURVE",
"607 74 OFFCURVE",
"642 142 CURVE",
"624 143 LINE",
"590 111 OFFCURVE",
"558 91 OFFCURVE",
"492 91 CURVE SMOOTH",
"452 91 OFFCURVE",
"305 104 OFFCURVE",
"222 105 CURVE",
"306 257 OFFCURVE",
"412 417 OFFCURVE",
"503 566 CURVE SMOOTH",
"539 625 OFFCURVE",
"567 662 OFFCURVE",
"638 692 CURVE",
"625 710 LINE",
"572 704 OFFCURVE",
"536 700 OFFCURVE",
"487 700 CURVE SMOOTH",
"370 700 OFFCURVE",
"225 703 OFFCURVE",
"109 710 CURVE",
"30 560 LINE",
"49 551 LINE",
"91 610 OFFCURVE",
"231 616 OFFCURVE",
"461 598 CURVE",
"376 465 OFFCURVE",
"282 296 OFFCURVE",
"184 143 CURVE SMOOTH",
"140 74 OFFCURVE",
"97 33 OFFCURVE",
"33 -12 CURVE",
"33 -16 LINE",
"83 -21 LINE"
);
}
);
width = 672;
}
);
unicode = 005A;
},
{
color = 4;
glyphname = a;
lastChange = "2020-02-04 05:40:43 +0000";
layers = (
{
layerId = "310A0878-FAF0-4FA6-A778-54E96A53E047";
paths = (
{
closed = 1;
nodes = (
"111 -10 LINE",
"263 88 LINE",
"265 71 OFFCURVE",
"314 13 OFFCURVE",
"347 -10 CURVE",
"370 21 OFFCURVE",
"394 46 OFFCURVE",
"417 65 CURVE",
"417 70 LINE",
"386 87 OFFCURVE",
"363 119 OFFCURVE",
"363 141 CURVE SMOOTH",
"365 363 LINE SMOOTH",
"365 403 OFFCURVE",
"280 460 OFFCURVE",
"240 460 CURVE SMOOTH",
"180 460 OFFCURVE",
"87 375 OFFCURVE",
"35 318 CURVE",
"48 302 LINE",
"94 345 OFFCURVE",
"138 373 OFFCURVE",
"189 373 CURVE SMOOTH",
"230 373 OFFCURVE",
"267 353 OFFCURVE",
"267 317 CURVE SMOOTH",
"267 300 LINE",
"20 162 LINE",
"20 109 OFFCURVE",
"58 15 OFFCURVE",
"106 -10 CURVE"
);
},
{
closed = 1;
nodes = (
"148 90 OFFCURVE",
"129 119 OFFCURVE",
"129 149 CURVE SMOOTH",
"129 183 OFFCURVE",
"146 203 OFFCURVE",
"178 223 CURVE SMOOTH",
"206 241 OFFCURVE",
"239 257 OFFCURVE",
"267 271 CURVE",
"263 118 LINE",
"243 108 OFFCURVE",
"206 90 OFFCURVE",
"178 90 CURVE SMOOTH"
);
}
);
width = 432;
}
);
unicode = 0061;
},
{
color = 4;
glyphname = agrave;
lastChange = "2020-02-04 05:33:43 +0000";
layers = (
{
anchors = (
{
name = bottom;
position = "{196, 0}";
},
{
name = top;
position = "{238, 382}";
}
);
layerId = "310A0878-FAF0-4FA6-A778-54E96A53E047";
paths = (
{
closed = 1;
nodes = (
"104 -10 LINE",
"150 22 OFFCURVE",
"197 44 OFFCURVE",
"243 70 CURVE",
"260 53 OFFCURVE",
"290 13 OFFCURVE",
"313 -10 CURVE",
"346 18 OFFCURVE",
"380 46 OFFCURVE",
"403 65 CURVE",
"403 70 LINE",
"362 87 OFFCURVE",
"349 103 OFFCURVE",
"349 125 CURVE SMOOTH",
"348 204 OFFCURVE",
"348 284 OFFCURVE",
"351 363 CURVE SMOOTH",
"353 413 OFFCURVE",
"324 460 OFFCURVE",
"246 460 CURVE SMOOTH",
"186 460 OFFCURVE",
"83 404 OFFCURVE",
"41 378 CURVE",
"54 362 LINE",
"100 382 OFFCURVE",
"133 390 OFFCURVE",
"163 390 CURVE SMOOTH",
"220 390 OFFCURVE",
"261 358 OFFCURVE",
"253 284 CURVE",
"206 260 OFFCURVE",
"159 236 OFFCURVE",
"112 213 CURVE SMOOTH",
"77 193 OFFCURVE",
"20 163 OFFCURVE",
"20 98 CURVE SMOOTH",
"20 45 OFFCURVE",
"51 15 OFFCURVE",
"99 -10 CURVE"
);
},
{
closed = 1;
nodes = (
"138 74 OFFCURVE",
"110 100 OFFCURVE",
"110 130 CURVE SMOOTH",
"110 164 OFFCURVE",
"132 194 OFFCURVE",
"164 214 CURVE SMOOTH",
"192 232 OFFCURVE",
"225 244 OFFCURVE",
"253 252 CURVE",
"254 116 LINE",
"235 95 OFFCURVE",
"196 74 OFFCURVE",
"168 74 CURVE SMOOTH"
);
},
{
closed = 1;
nodes = (
"332 499 LINE",
"335 504 LINE",
"156 670 LINE",
"92 641 LINE",
"92 636 LINE",
"279 499 LINE"
);
}
);
width = 418;
}
);
leftMetricsKey = a;
rightMetricsKey = a;
unicode = 00E0;
},
{
color = 4;
glyphname = b;
lastChange = "2020-02-04 05:33:43 +0000";
layers = (
{
layerId = "310A0878-FAF0-4FA6-A778-54E96A53E047";
paths = (
{
closed = 1;
nodes = (
"255 19 OFFCURVE",
"335 64 OFFCURVE",
"363 86 CURVE SMOOTH",
"415 127 OFFCURVE",
"435 182 OFFCURVE",
"435 255 CURVE SMOOTH",
"435 345 OFFCURVE",
"364 427 OFFCURVE",
"274 450 CURVE",
"155 373 LINE",
"163 704 LINE",
"156 708 LINE",
"30 650 LINE",
"30 645 LINE",
"39 624 OFFCURVE",
"62 493 OFFCURVE",
"62 315 CURVE SMOOTH",
"62 90 LINE",
"75 57 OFFCURVE",
"158 -10 OFFCURVE",
"193 -10 CURVE"
);
},
{
closed = 1;
nodes = (
"221 74 OFFCURVE",
"172 91 OFFCURVE",
"165 132 CURVE SMOOTH",
"157 176 OFFCURVE",
"155 273 OFFCURVE",
"155 337 CURVE",
"169 348 OFFCURVE",
"189 356 OFFCURVE",
"225 356 CURVE SMOOTH",
"292 356 OFFCURVE",
"335 280 OFFCURVE",
"335 210 CURVE SMOOTH",
"335 150 OFFCURVE",
"315 99 OFFCURVE",
"269 64 CURVE"
);
}
);
width = 460;
}
);
rightMetricsKey = o;
unicode = 0062;
},
{
color = 4;
glyphname = c;
lastChange = "2020-02-04 05:32:22 +0000";
layers = (
{
layerId = "310A0878-FAF0-4FA6-A778-54E96A53E047";
paths = (
{
closed = 1;
nodes = (
"190 -10 OFFCURVE",
"267 32 OFFCURVE",
"338 80 CURVE",
"349 108 LINE",
"344 110 LINE",
"316 96 OFFCURVE",
"286 90 OFFCURVE",
"249 90 CURVE SMOOTH",
"169 90 OFFCURVE",
"133 154 OFFCURVE",
"133 244 CURVE SMOOTH",
"133 265 OFFCURVE",
"141 324 OFFCURVE",
"165 372 CURVE",
"198 364 OFFCURVE",
"244 343 OFFCURVE",
"275 321 CURVE",
"367 388 LINE",
"367 392 LINE",
"331 410 OFFCURVE",
"291 432 OFFCURVE",
"247 460 CURVE",
"192 426 OFFCURVE",
"136 394 OFFCURVE",
"81 366 CURVE",
"55 308 OFFCURVE",
"40 246 OFFCURVE",
"40 192 CURVE SMOOTH",
"40 63 OFFCURVE",
"102 10 OFFCURVE",
"170 -10 CURVE"
);
}
);
width = 372;
}
);
unicode = 0063;
},
{
color = 4;
glyphname = ccedilla;
lastChange = "2020-02-04 05:32:51 +0000";
layers = (
{
layerId = "310A0878-FAF0-4FA6-A778-54E96A53E047";
paths = (
{
closed = 1;
nodes = (
"354 -97 OFFCURVE",
"359 30 OFFCURVE",
"312 88 CURVE",
"286 75 OFFCURVE",
"268 61 OFFCURVE",
"240 61 CURVE SMOOTH",
"109 61 OFFCURVE",
"120 231 OFFCURVE",
"140 373 CURVE",
"165 360 OFFCURVE",
"204 343 OFFCURVE",
"235 317 CURVE",
"324 388 LINE",
"324 394 LINE",
"285 415 OFFCURVE",
"245 435 OFFCURVE",
"205 460 CURVE",
"147 438 OFFCURVE",
"94 394 OFFCURVE",
"63 367 CURVE",
"48 325 OFFCURVE",
"38 236 OFFCURVE",
"40 164 CURVE SMOOTH",
"43 34 OFFCURVE",
"98 10 OFFCURVE",
"188 -10 CURVE",
"227 14 LINE",
"271 -16 OFFCURVE",
"264 -101 OFFCURVE",
"179 -125 CURVE",
"191 -151 LINE"
);
}
);
width = 343;
}
);
leftMetricsKey = c;
rightMetricsKey = c;
unicode = 00E7;
},
{
color = 4;
glyphname = c_h;
lastChange = "2020-02-04 05:34:04 +0000";
layers = (
{
layerId = "310A0878-FAF0-4FA6-A778-54E96A53E047";
paths = (
{
closed = 1;
nodes = (
"484 -93 OFFCURVE",
"543 -79 OFFCURVE",
"563 -69 CURVE SMOOTH",
"631 -35 OFFCURVE",
"696 73 OFFCURVE",
"696 173 CURVE SMOOTH",
"696 273 OFFCURVE",
"647 384 OFFCURVE",
"503 420 CURVE",
"478 380 OFFCURVE",
"436 340 OFFCURVE",
"407 310 CURVE",
"407 416 OFFCURVE",
"407 592 OFFCURVE",
"417 708 CURVE",
"409 710 LINE",
"370 693 OFFCURVE",
"338 686 OFFCURVE",
"319 686 CURVE SMOOTH",
"249 686 OFFCURVE",
"205 691 OFFCURVE",
"163 688 CURVE",
"109 603 LINE",
"120 592 LINE",
"156 607 OFFCURVE",
"254 603 OFFCURVE",
"300 596 CURVE",
"303 534 OFFCURVE",
"305 447 OFFCURVE",
"306 353 CURVE",
"271 364 OFFCURVE",
"235 382 OFFCURVE",
"200 406 CURVE",
"64 306 LINE",
"46 272 OFFCURVE",
"40 236 OFFCURVE",
"40 171 CURVE SMOOTH",
"40 41 OFFCURVE",
"116 -10 OFFCURVE",
"196 -10 CURVE",
"220 9 OFFCURVE",
"259 45 OFFCURVE",
"308 79 CURVE",
"308 50 LINE SMOOTH",
"308 40 OFFCURVE",
"303 17 OFFCURVE",
"297 0 CURVE",
"417 0 LINE",
"411 15 OFFCURVE",
"407 40 OFFCURVE",
"407 50 CURVE SMOOTH",
"407 272 LINE",
"421 283 OFFCURVE",
"440 292 OFFCURVE",
"473 292 CURVE SMOOTH",
"533 292 OFFCURVE",
"626 220 OFFCURVE",
"626 110 CURVE SMOOTH",
"626 54 OFFCURVE",
"614 18 OFFCURVE",
"592 -8 CURVE",
"569 -7 OFFCURVE",
"545 -5 OFFCURVE",
"522 0 CURVE",
"471 -84 LINE",
"471 -92 LINE"
);
},
{
closed = 1;
nodes = (
"144 69 OFFCURVE",
"129 135 OFFCURVE",
"129 215 CURVE SMOOTH",
"129 258 OFFCURVE",
"137 300 OFFCURVE",
"154 329 CURVE",
"238 270 LINE",
"307 323 LINE",
"307 256 OFFCURVE",
"308 186 OFFCURVE",
"308 119 CURVE",
"278 89 OFFCURVE",
"248 69 OFFCURVE",
"215 69 CURVE SMOOTH"
);
}
);
width = 721;
}
);
leftMetricsKey = c;
rightMetricsKey = h;
},
{
color = 4;
glyphname = c_k;
lastChange = "2020-02-01 17:34:50 +0000";
layers = (
{
layerId = "310A0878-FAF0-4FA6-A778-54E96A53E047";
paths = (
{
closed = 1;
nodes = (
"622 52 LINE",
"622 57 LINE",
"573 88 OFFCURVE",
"533 146 OFFCURVE",
"467 235 CURVE",
"486 255 OFFCURVE",
"526 282 OFFCURVE",
"556 316 CURVE",
"555 354 OFFCURVE",
"517 400 OFFCURVE",
"479 430 CURVE",
"450 412 OFFCURVE",
"415 376 OFFCURVE",
"382 348 CURVE",
"382 461 OFFCURVE",
"383 604 OFFCURVE",
"392 708 CURVE",
"384 710 LINE",
"328 685 OFFCURVE",
"283 688 OFFCURVE",
"178 688 CURVE",
"104 603 LINE",
"115 592 LINE",
"153 607 OFFCURVE",
"234 629 OFFCURVE",
"275 615 CURVE",
"278 556 OFFCURVE",
"280 449 OFFCURVE",
"281 360 CURVE",
"197 416 LINE",
"55 294 LINE",
"45 253 OFFCURVE",
"40 212 OFFCURVE",
"40 165 CURVE SMOOTH",
"40 54 OFFCURVE",
"100 -10 OFFCURVE",
"144 -10 CURVE",
"283 96 LINE",
"283 45 OFFCURVE",
"285 33 OFFCURVE",
"275 5 CURVE",
"275 0 LINE",
"392 0 LINE",
"392 5 LINE",
"383 40 OFFCURVE",
"382 115 OFFCURVE",
"382 166 CURVE",
"396 176 LINE",
"442 142 OFFCURVE",
"497 26 OFFCURVE",
"543 -18 CURVE"
);
},
{
closed = 1;
nodes = (
"151 100 OFFCURVE",
"131 139 OFFCURVE",
"131 221 CURVE SMOOTH",
"131 285 OFFCURVE",
"140 306 OFFCURVE",
"156 335 CURVE",
"242 289 LINE",
"282 336 LINE",
"283 131 LINE",
"261 115 OFFCURVE",
"230 100 OFFCURVE",
"194 100 CURVE SMOOTH"
);
},
{
closed = 1;
nodes = (
"382 324 LINE",
"398 345 OFFCURVE",
"461 358 OFFCURVE",
"461 302 CURVE SMOOTH",
"461 263 OFFCURVE",
"430 236 OFFCURVE",
"382 200 CURVE"
);
}
);
width = 617;
}
);
leftMetricsKey = c;
},
{
color = 4;
glyphname = d;
lastChange = "2020-02-04 05:33:43 +0000";
layers = (
{
layerId = "310A0878-FAF0-4FA6-A778-54E96A53E047";
paths = (
{
closed = 1;
nodes = (
"482 79 LINE",
"483 89 LINE",
"443 89 OFFCURVE",
"426 106 OFFCURVE",
"426 156 CURVE SMOOTH",
"426 707 LINE",
"417 710 LINE",
"363 689 OFFCURVE",
"313 668 OFFCURVE",
"266 643 CURVE",
"266 633 LINE",
"306 623 OFFCURVE",
"326 602 OFFCURVE",
"326 562 CURVE SMOOTH",
"326 425 LINE",
"252 408 LINE SMOOTH",
"113 376 OFFCURVE",
"25 290 OFFCURVE",
"25 170 CURVE SMOOTH",
"25 70 OFFCURVE",
"76 10 OFFCURVE",
"184 -10 CURVE",
"218 23 OFFCURVE",
"269 53 OFFCURVE",
"321 86 CURVE",
"331 45 OFFCURVE",
"338 19 OFFCURVE",
"344 -10 CURVE",
"349 -11 LINE"
);
},
{
closed = 1;
nodes = (
"154 91 OFFCURVE",
"107 144 OFFCURVE",
"107 216 CURVE SMOOTH",
"107 291 OFFCURVE",
"154 355 OFFCURVE",
"228 355 CURVE SMOOTH",
"302 355 OFFCURVE",
"340 300 OFFCURVE",
"340 228 CURVE SMOOTH",
"340 141 OFFCURVE",
"292 91 OFFCURVE",
"229 91 CURVE SMOOTH"
);
}
);
width = 493;
}
);
leftMetricsKey = o;
rightMetricsKey = l;
unicode = 0064;
},
{
color = 4;
glyphname = e;
lastChange = "2020-02-04 05:59:27 +0000";
layers = (
{
layerId = "310A0878-FAF0-4FA6-A778-54E96A53E047";
paths = (
{
closed = 1;
nodes = (
"354 95 LINE",
"336 122 LINE",
"315 108 OFFCURVE",
"279 100 OFFCURVE",
"249 100 CURVE SMOOTH",
"199 100 OFFCURVE",
"163 119 OFFCURVE",
"142 156 CURVE",
"342 326 LINE",
"324 407 OFFCURVE",
"277 453 OFFCURVE",
"238 460 CURVE",
"53 355 LINE",
"35 307 OFFCURVE",
"25 251 OFFCURVE",
"25 197 CURVE SMOOTH",
"25 87 OFFCURVE",
"89 -10 OFFCURVE",
"219 -10 CURVE"
);
},
{
closed = 1;
nodes = (
"124 204 OFFCURVE",
"121 228 OFFCURVE",
"121 257 CURVE SMOOTH",
"121 300 OFFCURVE",
"130 356 OFFCURVE",
"160 385 CURVE",
"177 385 OFFCURVE",
"245 333 OFFCURVE",
"245 294 CURVE",
"229 267 OFFCURVE",
"176 221 OFFCURVE",
"131 183 CURVE"
);
}
);
width = 359;
}
);
leftMetricsKey = o;
unicode = 0065;
},
{
color = 4;
glyphname = eacute;
lastChange = "2021-02-18 14:11:05 +0000";
layers = (
{
layerId = "310A0878-FAF0-4FA6-A778-54E96A53E047";
paths = (
{
closed = 1;
nodes = (
"327 78 LINE",
"326 105 LINE",
"295 101 OFFCURVE",
"269 100 OFFCURVE",
"239 100 CURVE SMOOTH",
"190 100 OFFCURVE",
"158 118 OFFCURVE",
"140 154 CURVE",
"342 326 LINE",
"324 407 OFFCURVE",
"247 453 OFFCURVE",
"208 460 CURVE",
"53 346 LINE",
"39 307 OFFCURVE",
"25 251 OFFCURVE",
"25 197 CURVE SMOOTH",
"25 87 OFFCURVE",
"89 -10 OFFCURVE",
"219 -10 CURVE"
);
},
{
closed = 1;
nodes = (
"124 203 OFFCURVE",
"121 228 OFFCURVE",
"121 257 CURVE SMOOTH",
"121 310 OFFCURVE",
"130 356 OFFCURVE",
"160 385 CURVE",
"177 385 OFFCURVE",
"239 323 OFFCURVE",
"239 284 CURVE",
"223 266 OFFCURVE",
"174 220 OFFCURVE",
"129 182 CURVE"
);
},
{
closed = 1;
nodes = (
"287 611 LINE",
"284 621 LINE",
"185 599 LINE",
"87 464 LINE",
"98 449 LINE"
);
}
);
width = 347;
}
);
leftMetricsKey = e;
rightMetricsKey = e;
unicode = 00E9;
},
{
color = 4;
glyphname = f;
lastChange = "2020-01-30 12:51:20 +0000";
layers = (
{
layerId = "310A0878-FAF0-4FA6-A778-54E96A53E047";
paths = (
{
closed = 1;
nodes = (
"179 -1 LINE",
"175 360 LINE",
"219 361 OFFCURVE",
"262 361 OFFCURVE",
"306 360 CURVE",
"316 450 LINE",
"269 451 OFFCURVE",
"222 451 OFFCURVE",
"175 450 CURVE",
"175 552 OFFCURVE",
"175 611 OFFCURVE",
"187 632 CURVE",
"212 631 OFFCURVE",
"282 606 OFFCURVE",
"315 553 CURVE",
"418 625 LINE",
"418 627 LINE",
"381 672 OFFCURVE",
"309 710 OFFCURVE",
"229 710 CURVE",
"178 669 OFFCURVE",
"126 632 OFFCURVE",
"75 599 CURVE",
"75 435 LINE",
"10 375 LINE",
"10 360 LINE",
"75 360 LINE",
"75 -6 LINE"
);
}
);
width = 318;
}
);
unicode = 0066;
},
{
color = 4;
glyphname = f_f;
lastChange = "2020-01-30 12:51:20 +0000";
layers = (
{
layerId = "310A0878-FAF0-4FA6-A778-54E96A53E047";
paths = (
{
closed = 1;
nodes = (
"158 0 LINE",
"158 10 LINE",
"153 30 OFFCURVE",
"145 50 OFFCURVE",
"145 101 CURVE SMOOTH",
"145 300 LINE",
"260 300 LINE",
"260 117 LINE SMOOTH",
"260 48 OFFCURVE",
"255 29 OFFCURVE",
"249 10 CURVE",
"249 0 LINE",
"380 0 LINE",
"380 10 LINE",
"373 30 OFFCURVE",
"360 70 OFFCURVE",
"360 121 CURVE SMOOTH",
"360 300 LINE",
"498 300 LINE",
"501 370 LINE",
"360 370 LINE",
"357 481 OFFCURVE",
"360 640 OFFCURVE",
"372 660 CURVE",
"379 663 OFFCURVE",
"458 642 OFFCURVE",
"483 579 CURVE",
"493 579 LINE",
"571 645 LINE",
"571 649 LINE",
"537 676 OFFCURVE",
"481 700 OFFCURVE",
"422 710 CURVE",
"395 702 OFFCURVE",
"368 692 OFFCURVE",
"341 678 CURVE",
"306 699 OFFCURVE",
"233 702 OFFCURVE",
"199 702 CURVE",
"142 684 OFFCURVE",
"102 664 OFFCURVE",
"45 642 CURVE",
"45 365 LINE",
"10 307 LINE",
"10 300 LINE",
"45 300 LINE",
"45 121 LINE SMOOTH",
"45 51 OFFCURVE",
"40 30 OFFCURVE",
"34 10 CURVE",
"34 0 LINE"
);
},
{
closed = 1;
nodes = (
"142 476 OFFCURVE",
"144 631 OFFCURVE",
"156 651 CURVE",
"183 655 OFFCURVE",
"244 639 OFFCURVE",
"260 617 CURVE",
"260 370 LINE",
"145 370 LINE"
);
}
);
width = 471;
}
);
leftMetricsKey = f;
rightMetricsKey = f;
},
{
color = 4;
glyphname = f_i;
lastChange = "2020-02-01 17:20:11 +0000";
layers = (
{
layerId = "310A0878-FAF0-4FA6-A778-54E96A53E047";
paths = (
{
closed = 1;
nodes = (
"360 -2 OFFCURVE",
"408 31 OFFCURVE",
"424 59 CURVE",
"421 67 LINE",
"369 67 OFFCURVE",
"361 105 OFFCURVE",
"361 152 CURVE SMOOTH",
"361 384 LINE",
"353 386 LINE",
"323 359 OFFCURVE",
"284 340 OFFCURVE",
"214 340 CURVE SMOOTH",
"149 340 LINE",
"149 645 LINE",
"190 644 OFFCURVE",
"240 629 OFFCURVE",
"279 583 CURVE",
"338 662 LINE",
"338 666 LINE",
"298 698 OFFCURVE",
"241 710 OFFCURVE",
"197 710 CURVE",
"49 636 LINE",
"49 335 LINE",
"10 269 LINE",
"10 260 LINE",
"23 261 OFFCURVE",
"36 261 OFFCURVE",
"49 260 CURVE",
"49 80 LINE SMOOTH",
"49 58 OFFCURVE",
"47 32 OFFCURVE",
"34 5 CURVE",
"34 -4 LINE",
"165 0 LINE",
"165 6 LINE",
"156 24 OFFCURVE",
"149 56 OFFCURVE",
"149 80 CURVE SMOOTH",
"149 260 LINE",
"274 260 LINE",
"274 89 LINE SMOOTH",
"274 36 OFFCURVE",
"304 0 OFFCURVE",
"330 -10 CURVE"
);
}
);
width = 424;
}
);
leftMetricsKey = f;
rightMetricsKey = i;
},
{
color = 4;
glyphname = f_l;
lastChange = "2020-02-01 17:33:59 +0000";
layers = (
{
layerId = "310A0878-FAF0-4FA6-A778-54E96A53E047";
paths = (
{
closed = 1;
nodes = (
"389 10 OFFCURVE",
"411 28 OFFCURVE",
"443 44 CURVE",
"443 59 LINE",
"396 78 OFFCURVE",
"370 107 OFFCURVE",
"370 161 CURVE SMOOTH",
"370 706 LINE",
"360 710 LINE",
"313 680 LINE",
"285 697 OFFCURVE",
"230 705 OFFCURVE",
"197 710 CURVE",
"53 637 LINE",
"53 379 LINE",
"10 313 LINE",
"10 304 LINE",
"53 304 LINE",
"53 76 LINE SMOOTH",
"53 46 OFFCURVE",
"44 21 OFFCURVE",
"38 6 CURVE",
"38 0 LINE",
"153 0 LINE",
"153 310 LINE",
"236 312 LINE",
"238 382 LINE",
"153 380 LINE",
"153 645 LINE",
"204 645 OFFCURVE",
"252 628 OFFCURVE",
"268 604 CURVE",
"270 580 OFFCURVE",
"270 529 OFFCURVE",
"270 485 CURVE SMOOTH",
"270 90 LINE SMOOTH",
"270 56 OFFCURVE",
"322 2 OFFCURVE",
"357 -10 CURVE"
);
}
);
width = 453;
}
);
leftMetricsKey = f;
rightMetricsKey = l;
},
{
color = 4;
glyphname = g;
lastChange = "2020-02-01 17:33:51 +0000";
layers = (
{
layerId = "310A0878-FAF0-4FA6-A778-54E96A53E047";
paths = (
{
closed = 1;
nodes = (
"296 -176 OFFCURVE",
"391 -140 OFFCURVE",
"441 -40 CURVE",
"441 59 OFFCURVE",
"400 114 OFFCURVE",
"320 148 CURVE",
"430 301 LINE",
"514 301 LINE",
"522 381 LINE",
"393 381 LINE",
"361 412 OFFCURVE",
"301 449 OFFCURVE",
"254 460 CURVE",
"54 331 LINE",
"37 302 OFFCURVE",
"30 268 OFFCURVE",
"30 238 CURVE SMOOTH",
"30 151 OFFCURVE",
"90 103 OFFCURVE",
"140 86 CURVE",
"116 66 OFFCURVE",
"81 46 OFFCURVE",
"44 22 CURVE",
"10 -108 OFFCURVE",
"110 -182 OFFCURVE",
"236 -190 CURVE"
);
},
{
closed = 1;
nodes = (
"218 -133 OFFCURVE",
"140 -90 OFFCURVE",
"140 -20 CURVE SMOOTH",
"140 20 OFFCURVE",
"154 54 OFFCURVE",
"176 76 CURVE",
"285 56 OFFCURVE",
"341 22 OFFCURVE",
"341 -49 CURVE SMOOTH",
"341 -81 OFFCURVE",
"318 -124 OFFCURVE",
"298 -133 CURVE"
);
},
{
closed = 1;
nodes = (
"171 181 OFFCURVE",
"125 218 OFFCURVE",
"125 278 CURVE SMOOTH",
"125 317 OFFCURVE",
"149 347 OFFCURVE",
"166 360 CURVE",
"241 352 OFFCURVE",
"318 319 OFFCURVE",
"318 246 CURVE SMOOTH",
"318 213 OFFCURVE",
"302 185 OFFCURVE",
"277 162 CURVE"
);
}
);
width = 517;
}
);
unicode = 0067;
},
{
color = 4;
glyphname = h;
lastChange = "2020-02-04 05:33:43 +0000";
layers = (
{
layerId = "310A0878-FAF0-4FA6-A778-54E96A53E047";
paths = (
{
closed = 1;
nodes = (
"390 10 OFFCURVE",
"509 106 OFFCURVE",
"509 233 CURVE SMOOTH",
"509 353 OFFCURVE",
"419 443 OFFCURVE",
"308 460 CURVE",
"257 427 OFFCURVE",
"224 396 OFFCURVE",
"160 360 CURVE",
"160 710 LINE",
"40 688 LINE",
"40 682 LINE",
"50 613 OFFCURVE",
"60 530 OFFCURVE",
"60 485 CURVE SMOOTH",
"60 0 LINE",
"160 0 LINE",
"160 321 LINE",
"189 341 OFFCURVE",
"220 353 OFFCURVE",
"261 353 CURVE SMOOTH",
"351 353 OFFCURVE",
"419 273 OFFCURVE",
"419 163 CURVE SMOOTH",
"419 97 OFFCURVE",
"383 35 OFFCURVE",
"325 35 CURVE",
"311 45 OFFCURVE",
"298 68 OFFCURVE",
"282 110 CURVE",
"254 102 OFFCURVE",
"213 73 OFFCURVE",
"213 56 CURVE",
"224 7 OFFCURVE",
"267 -10 OFFCURVE",
"317 -10 CURVE"
);
}
);
width = 534;
}
);
rightMetricsKey = o;
unicode = 0068;
},
{
color = 4;
glyphname = i;
lastChange = "2020-02-01 17:24:31 +0000";
layers = (
{
layerId = "310A0878-FAF0-4FA6-A778-54E96A53E047";
paths = (
{
closed = 1;
nodes = (
"189 24 OFFCURVE",
"218 54 OFFCURVE",
"257 80 CURVE",
"257 90 LINE",
"210 90 OFFCURVE",
"163 107 OFFCURVE",
"163 181 CURVE SMOOTH",
"163 391 LINE",
"150 424 OFFCURVE",
"111 454 OFFCURVE",
"73 460 CURVE",
"20 370 LINE",
"20 360 LINE",
"47 350 OFFCURVE",
"70 338 OFFCURVE",
"68 280 CURVE SMOOTH",
"63 90 LINE SMOOTH",
"62 56 OFFCURVE",
"105 5 OFFCURVE",
"150 -10 CURVE"
);
},
{
closed = 1;
nodes = (
"92 536 LINE",
"167 710 LINE",
"92 710 LINE",
"75 536 LINE"
);
}
);
width = 257;
}
);
unicode = 0069;
},
{
color = 4;
glyphname = j;
lastChange = "2020-02-01 17:23:56 +0000";
layers = (
{
layerId = "310A0878-FAF0-4FA6-A778-54E96A53E047";
paths = (
{
closed = 1;
nodes = (
"120 -170 OFFCURVE",
"168 -98 OFFCURVE",
"168 -12 CURVE SMOOTH",
"168 144 OFFCURVE",
"162 399 OFFCURVE",
"172 456 CURVE",
"165 461 LINE",
"29 381 LINE",
"29 376 LINE",
"51 354 OFFCURVE",
"68 325 OFFCURVE",
"68 265 CURVE SMOOTH",
"68 -20 LINE SMOOTH",
"68 -98 OFFCURVE",
"51 -151 OFFCURVE",
"-9 -171 CURVE",
"-10 -190 LINE"
);
},
{
closed = 1;
nodes = (
"100 555 LINE",
"167 710 LINE",
"98 705 LINE",
"70 555 LINE"
);
}
);
width = 222;
}
);
unicode = 006A;
},
{
color = 4;
glyphname = k;
lastChange = "2020-02-01 17:32:45 +0000";
layers = (
{
layerId = "310A0878-FAF0-4FA6-A778-54E96A53E047";
paths = (
{
closed = 1;
nodes = (
"158 0 LINE",
"153 168 LINE",
"154 168 LINE",
"235 199 OFFCURVE",
"306 142 OFFCURVE",
"310 0 CURVE",
"415 0 LINE",
"415 114 OFFCURVE",
"365 209 OFFCURVE",
"285 235 CURVE",
"312 252 OFFCURVE",
"349 272 OFFCURVE",
"366 288 CURVE",
"407 356 OFFCURVE",
"359 453 OFFCURVE",
"289 460 CURVE",
"254 438 OFFCURVE",
"199 384 OFFCURVE",
"153 359 CURVE",
"153 704 LINE",
"149 710 LINE",
"40 696 LINE",
"40 691 LINE SMOOTH",
"54 474 OFFCURVE",
"51 360 OFFCURVE",
"53 -4 CURVE"
);
},
{
closed = 1;
nodes = (
"153 315 LINE",
"205 388 OFFCURVE",
"289 388 OFFCURVE",
"289 321 CURVE SMOOTH",
"289 252 OFFCURVE",
"216 212 OFFCURVE",
"153 196 CURVE"
);
}
);
width = 430;
}
);
leftMetricsKey = l;
unicode = 006B;
},
{
color = 4;
glyphname = l;
lastChange = "2020-02-01 17:32:37 +0000";
layers = (
{
layerId = "310A0878-FAF0-4FA6-A778-54E96A53E047";
paths = (
{
closed = 1;
nodes = (
"143 -10 LINE",
"240 55 LINE",
"240 70 LINE",
"206 80 OFFCURVE",
"166 107 OFFCURVE",
"166 181 CURVE SMOOTH",
"166 706 LINE",
"158 709 LINE",
"40 653 LINE",
"40 648 LINE",
"54 610 OFFCURVE",
"66 572 OFFCURVE",
"66 524 CURVE SMOOTH",
"66 80 LINE SMOOTH",
"66 55 OFFCURVE",
"104 0 OFFCURVE",
"136 -10 CURVE"
);
}
);
width = 250;
}
);
unicode = 006C;
},
{
color = 4;
glyphname = m;
lastChange = "2020-02-01 17:24:47 +0000";
layers = (
{
layerId = "310A0878-FAF0-4FA6-A778-54E96A53E047";
paths = (
{
closed = 1;
nodes = (
"189 0 LINE",
"183 107 OFFCURVE",
"184 211 OFFCURVE",
"184 328 CURVE",
"200 345 OFFCURVE",
"228 360 OFFCURVE",
"253 360 CURVE SMOOTH",
"303 360 OFFCURVE",
"322 327 OFFCURVE",
"322 268 CURVE SMOOTH",
"322 179 OFFCURVE",
"322 89 OFFCURVE",
"319 0 CURVE",
"425 0 LINE",
"421 100 OFFCURVE",
"422 200 OFFCURVE",
"422 322 CURVE",
"433 336 OFFCURVE",
"464 360 OFFCURVE",
"499 360 CURVE SMOOTH",
"538 360 OFFCURVE",
"562 328 OFFCURVE",
"562 278 CURVE SMOOTH",
"562 189 OFFCURVE",
"559 89 OFFCURVE",
"558 0 CURVE",
"665 0 LINE",
"665 106 OFFCURVE",
"662 212 OFFCURVE",
"662 318 CURVE SMOOTH",
"662 397 OFFCURVE",
"594 460 OFFCURVE",
"524 460 CURVE",
"481 420 OFFCURVE",
"454 385 OFFCURVE",
"417 364 CURVE",
"400 411 OFFCURVE",
"327 460 OFFCURVE",
"269 460 CURVE",
"239 427 OFFCURVE",
"214 395 OFFCURVE",
"180 367 CURVE",
"167 400 OFFCURVE",
"135 431 OFFCURVE",
"100 460 CURVE",
"10 375 LINE",
"14 370 LINE",
"55 350 OFFCURVE",
"84 309 OFFCURVE",
"84 258 CURVE SMOOTH",
"84 0 LINE"
);
}
);
width = 710;
}
);
rightMetricsKey = n;
unicode = 006D;
},
{
color = 4;
glyphname = n;
lastChange = "2020-02-04 06:00:16 +0000";
layers = (
{
layerId = "310A0878-FAF0-4FA6-A778-54E96A53E047";
paths = (
{
closed = 1;
nodes = (
"426 0 LINE",
"423 328 LINE SMOOTH",
"422 396 OFFCURVE",
"366 459 OFFCURVE",
"284 460 CURVE",
"244 426 OFFCURVE",
"220 397 OFFCURVE",
"180 366 CURVE",
"178 412 OFFCURVE",
"134 437 OFFCURVE",
"71 460 CURVE",
"10 356 LINE",
"14 351 LINE",
"55 341 OFFCURVE",
"84 315 OFFCURVE",
"84 281 CURVE SMOOTH",
"80 0 LINE",
"187 0 LINE",
"184 311 LINE",
"195 343 OFFCURVE",
"229 363 OFFCURVE",
"260 363 CURVE SMOOTH",
"300 363 OFFCURVE",
"323 335 OFFCURVE",
"323 285 CURVE SMOOTH",
"323 -2 LINE"
);
}
);
width = 471;
}
);
unicode = 006E;
},
{
color = 4;
glyphname = o;
lastChange = "2020-02-04 06:05:59 +0000";
layers = (
{
layerId = "310A0878-FAF0-4FA6-A778-54E96A53E047";
paths = (
{
closed = 1;
nodes = (
"291 32 OFFCURVE",
"354 76 OFFCURVE",
"390 118 CURVE",
"413 154 OFFCURVE",
"420 191 OFFCURVE",
"420 251 CURVE SMOOTH",
"420 363 OFFCURVE",
"339 450 OFFCURVE",
"214 460 CURVE",
"171 431 OFFCURVE",
"110 372 OFFCURVE",
"51 332 CURVE",
"29 299 OFFCURVE",
"25 261 OFFCURVE",
"25 211 CURVE SMOOTH",
"25 101 OFFCURVE",
"112 -9 OFFCURVE",
"242 -9 CURVE"
);
},
{
closed = 1;
nodes = (
"174 78 OFFCURVE",
"120 155 OFFCURVE",
"120 245 CURVE SMOOTH",
"120 305 OFFCURVE",
"138 343 OFFCURVE",
"160 365 CURVE",
"260 366 OFFCURVE",
"326 292 OFFCURVE",
"326 202 CURVE SMOOTH",
"326 152 OFFCURVE",
"311 94 OFFCURVE",
"275 76 CURVE"
);
}
);
width = 445;
}
);
unicode = 006F;
},
{
color = 4;
glyphname = o_e;
lastChange = "2020-02-04 07:21:03 +0000";
layers = (
{
layerId = "310A0878-FAF0-4FA6-A778-54E96A53E047";
paths = (
{
closed = 1;
nodes = (
"263 15 OFFCURVE",
"306 59 OFFCURVE",
"358 91 CURVE",
"387 54 OFFCURVE",
"434 14 OFFCURVE",
"489 -10 CURVE",
"535 8 OFFCURVE",
"591 37 OFFCURVE",
"637 75 CURVE",
"630 92 LINE",
"562 86 OFFCURVE",
"478 101 OFFCURVE",
"442 156 CURVE",
"519 190 OFFCURVE",
"585 236 OFFCURVE",
"652 296 CURVE",
"653 367 OFFCURVE",
"588 442 OFFCURVE",
"498 460 CURVE",
"460 420 OFFCURVE",
"415 383 OFFCURVE",
"383 357 CURVE",
"350 410 OFFCURVE",
"290 460 OFFCURVE",
"223 460 CURVE",
"55 341 LINE",
"33 298 OFFCURVE",
"25 259 OFFCURVE",
"25 199 CURVE SMOOTH",
"25 89 OFFCURVE",
"102 0 OFFCURVE",
"222 -10 CURVE"
);
},
{
closed = 1;
nodes = (
"160 76 OFFCURVE",
"119 169 OFFCURVE",
"119 249 CURVE SMOOTH",
"119 299 OFFCURVE",
"137 344 OFFCURVE",
"159 363 CURVE",
"249 372 OFFCURVE",
"330 296 OFFCURVE",
"330 206 CURVE SMOOTH",
"330 126 OFFCURVE",
"294 83 OFFCURVE",
"264 72 CURVE"
);
},
{
closed = 1;
nodes = (
"415 238 OFFCURVE",
"416 323 OFFCURVE",
"450 365 CURVE",
"477 365 OFFCURVE",
"535 350 OFFCURVE",
"535 294 CURVE SMOOTH",
"535 259 OFFCURVE",
"513 221 OFFCURVE",
"431 183 CURVE"
);
}
);
width = 657;
}
);
leftMetricsKey = o;
rightMetricsKey = e;
},
{
color = 4;
glyphname = p;
lastChange = "2020-02-04 05:33:43 +0000";
layers = (
{
layerId = "310A0878-FAF0-4FA6-A778-54E96A53E047";
paths = (
{
closed = 1;
nodes = (
"202 -180 LINE",
"199 -106 OFFCURVE",
"197 -33 OFFCURVE",
"196 39 CURVE",
"230 26 OFFCURVE",
"267 8 OFFCURVE",
"290 -10 CURVE",
"295 -10 LINE",
"463 90 LINE",
"494 121 OFFCURVE",
"524 168 OFFCURVE",
"524 238 CURVE SMOOTH",
"524 358 OFFCURVE",
"443 445 OFFCURVE",
"353 460 CURVE",
"348 460 LINE",
"297 425 OFFCURVE",
"248 385 OFFCURVE",
"197 340 CURVE",
"191 385 OFFCURVE",
"148 446 OFFCURVE",
"95 460 CURVE",
"10 370 LINE",
"12 360 LINE",
"52 370 OFFCURVE",
"96 343 OFFCURVE",
"99 287 CURVE SMOOTH",
"102 235 OFFCURVE",
"103 181 OFFCURVE",
"103 125 CURVE",
"73 106 OFFCURVE",
"37 79 OFFCURVE",
"15 49 CURVE",
"22 35 LINE",
"46 46 OFFCURVE",
"77 55 OFFCURVE",
"102 58 CURVE",
"100 -20 OFFCURVE",
"97 -100 OFFCURVE",
"93 -180 CURVE"
);
},
{
closed = 1;
nodes = (
"307 70 OFFCURVE",
"244 112 OFFCURVE",
"195 134 CURVE",
"195 186 OFFCURVE",
"195 237 OFFCURVE",
"197 290 CURVE",
"216 319 OFFCURVE",
"261 341 OFFCURVE",
"300 341 CURVE SMOOTH",
"374 341 OFFCURVE",
"424 279 OFFCURVE",
"424 199 CURVE SMOOTH",
"424 140 OFFCURVE",
"391 100 OFFCURVE",
"359 84 CURVE"
);
}
);
width = 549;
}
);
leftMetricsKey = n;
rightMetricsKey = b;
unicode = 0070;
},
{
color = 4;
glyphname = q;
lastChange = "2020-02-04 05:33:43 +0000";
layers = (
{
layerId = "310A0878-FAF0-4FA6-A778-54E96A53E047";
paths = (
{
closed = 1;
nodes = (
"433 -180 LINE",
"427 37 OFFCURVE",
"431 253 OFFCURVE",
"437 463 CURVE",
"429 465 LINE",
"386 416 LINE",
"342 432 OFFCURVE",
"287 453 OFFCURVE",
"241 460 CURVE",
"236 460 LINE",
"179 420 OFFCURVE",
"118 381 OFFCURVE",
"71 351 CURVE",
"47 325 OFFCURVE",
"25 258 OFFCURVE",
"25 199 CURVE SMOOTH",
"25 98 OFFCURVE",
"83 13 OFFCURVE",
"159 -10 CURVE",
"164 -10 LINE",
"221 19 OFFCURVE",
"279 53 OFFCURVE",
"336 90 CURVE",
"326 -180 LINE"
);
},
{
closed = 1;
nodes = (
"159 95 OFFCURVE",
"120 161 OFFCURVE",
"120 241 CURVE SMOOTH",
"120 282 OFFCURVE",
"131 341 OFFCURVE",
"166 370 CURVE",
"221 370 OFFCURVE",
"285 350 OFFCURVE",
"327 325 CURVE",
"327 135 LINE",
"308 113 OFFCURVE",
"282 95 OFFCURVE",
"241 95 CURVE SMOOTH"
);
}
);
width = 487;
}
);
leftMetricsKey = o;
unicode = 0071;
},
{
color = 4;
glyphname = r;
lastChange = "2020-02-01 17:25:23 +0000";
layers = (
{
layerId = "310A0878-FAF0-4FA6-A778-54E96A53E047";
paths = (
{
closed = 1;
nodes = (
"170 0 LINE",
"170 79 OFFCURVE",
"168 217 OFFCURVE",
"167 326 CURVE",
"188 345 OFFCURVE",
"222 339 OFFCURVE",
"267 317 CURVE",
"271 317 LINE",
"287 341 OFFCURVE",
"306 378 OFFCURVE",
"327 400 CURVE",
"303 427 OFFCURVE",
"266 450 OFFCURVE",
"235 460 CURVE",
"233 460 LINE",
"203 424 OFFCURVE",
"188 396 OFFCURVE",
"166 376 CURVE",
"157 421 OFFCURVE",
"120 436 OFFCURVE",
"77 460 CURVE",
"72 460 LINE",
"10 365 LINE",
"14 360 LINE",
"32 360 OFFCURVE",
"67 336 OFFCURVE",
"67 290 CURVE SMOOTH",
"66 -3 LINE"
);
}
);
width = 327;
}
);
leftMetricsKey = n;
unicode = 0072;
},
{
color = 4;
glyphname = s;
lastChange = "2020-01-30 12:51:20 +0000";
layers = (
{
layerId = "310A0878-FAF0-4FA6-A778-54E96A53E047";
paths = (
{
closed = 1;
nodes = (
"271 -10 OFFCURVE",
"382 64 OFFCURVE",
"382 164 CURVE SMOOTH",
"382 244 OFFCURVE",
"323 289 OFFCURVE",
"282 299 CURVE",
"252 277 OFFCURVE",
"229 259 OFFCURVE",
"193 241 CURVE",
"167 259 OFFCURVE",
"136 285 OFFCURVE",
"136 325 CURVE SMOOTH",
"136 365 OFFCURVE",
"164 394 OFFCURVE",
"194 394 CURVE SMOOTH",
"226 394 OFFCURVE",
"249 363 OFFCURVE",
"265 322 CURVE",
"271 318 LINE",
"375 380 LINE",
"357 428 OFFCURVE",
"284 460 OFFCURVE",
"232 460 CURVE",
"80 385 LINE",
"55 359 OFFCURVE",
"32 329 OFFCURVE",
"32 285 CURVE SMOOTH",
"32 233 OFFCURVE",
"72 183 OFFCURVE",
"118 172 CURVE",
"193 214 LINE",
"243 214 OFFCURVE",
"281 178 OFFCURVE",
"281 120 CURVE SMOOTH",
"281 67 OFFCURVE",
"250 33 OFFCURVE",
"213 33 CURVE SMOOTH",
"165 33 OFFCURVE",
"142 79 OFFCURVE",
"131 129 CURVE",
"25 87 LINE",
"59 18 OFFCURVE",
"120 -10 OFFCURVE",
"190 -10 CURVE SMOOTH"
);
}
);
width = 407;
}
);
unicode = 0073;
},
{
color = 4;
glyphname = t;
lastChange = "2020-02-01 17:26:03 +0000";
layers = (
{
layerId = "310A0878-FAF0-4FA6-A778-54E96A53E047";
paths = (
{
closed = 1;
nodes = (
"298 100 LINE",
"291 113 LINE",
"222 84 OFFCURVE",
"171 92 OFFCURVE",
"171 167 CURVE SMOOTH",
"171 360 LINE",
"297 360 LINE",
"313 450 LINE",
"171 450 LINE",
"171 577 LINE",
"162 577 LINE",
"10 370 LINE",
"10 360 LINE",
"71 360 LINE",
"71 90 LINE SMOOTH",
"71 50 OFFCURVE",
"131 -10 OFFCURVE",
"171 -10 CURVE"
);
}
);
width = 323;
}
);
unicode = 0074;
},
{
color = 4;
glyphname = u;
lastChange = "2020-02-04 05:33:43 +0000";
layers = (
{
layerId = "310A0878-FAF0-4FA6-A778-54E96A53E047";
paths = (
{
closed = 1;
nodes = (
"289 64 LINE",
"296 52 OFFCURVE",
"320 1 OFFCURVE",
"371 -10 CURVE",
"441 75 LINE",
"441 82 LINE",
"408 99 OFFCURVE",
"387 119 OFFCURVE",
"387 170 CURVE SMOOTH",
"387 457 LINE",
"384 460 LINE",
"287 404 LINE",
"287 110 LINE",
"274 87 OFFCURVE",
"248 77 OFFCURVE",
"231 77 CURVE SMOOTH",
"195 77 OFFCURVE",
"173 97 OFFCURVE",
"173 167 CURVE SMOOTH",
"173 363 LINE SMOOTH",
"173 416 OFFCURVE",
"130 445 OFFCURVE",
"83 460 CURVE",
"10 375 LINE",
"10 368 LINE",
"28 368 OFFCURVE",
"73 349 OFFCURVE",
"73 300 CURVE SMOOTH",
"74 90 LINE SMOOTH",
"74 30 OFFCURVE",
"130 -10 OFFCURVE",
"170 -10 CURVE"
);
}
);
width = 456;
}
);
leftMetricsKey = n;
rightMetricsKey = a;
unicode = 0075;
},
{
color = 4;
glyphname = ugrave;
lastChange = "2020-02-04 05:33:43 +0000";
layers = (
{
layerId = "310A0878-FAF0-4FA6-A778-54E96A53E047";
paths = (
{
closed = 1;
nodes = (
"280 77 LINE",
"287 51 OFFCURVE",
"311 20 OFFCURVE",
"362 -10 CURVE",
"450 56 LINE",
"450 71 LINE",
"397 87 OFFCURVE",
"378 99 OFFCURVE",
"378 141 CURVE SMOOTH",
"378 457 LINE",
"375 460 LINE",
"283 404 LINE",
"283 311 OFFCURVE",
"282 218 OFFCURVE",
"278 123 CURVE",
"255 102 OFFCURVE",
"230 90 OFFCURVE",
"213 90 CURVE SMOOTH",
"157 90 OFFCURVE",
"136 148 OFFCURVE",
"136 218 CURVE SMOOTH",
"136 344 OFFCURVE",
"138 409 OFFCURVE",
"150 457 CURVE",
"147 460 LINE",
"50 404 LINE",
"53 343 OFFCURVE",
"51 203 OFFCURVE",
"51 130 CURVE SMOOTH",
"51 50 OFFCURVE",
"102 10 OFFCURVE",
"162 -10 CURVE"
);
},
{
closed = 1;
nodes = (
"367 549 LINE",
"371 555 LINE",
"191 691 LINE",
"108 674 LINE",
"107 668 LINE",
"324 549 LINE"
);
}
);
width = 465;
}
);
rightMetricsKey = a;
unicode = 00F9;
},
{
color = 4;
glyphname = v;
lastChange = "2020-02-04 05:39:01 +0000";
layers = (
{
layerId = "310A0878-FAF0-4FA6-A778-54E96A53E047";
paths = (
{
closed = 1;
nodes = (
"230 -10 LINE",
"271 63 OFFCURVE",
"450 219 OFFCURVE",
"450 329 CURVE SMOOTH",
"450 429 OFFCURVE",
"350 466 OFFCURVE",
"295 457 CURVE",
"253 411 OFFCURVE",
"193 328 OFFCURVE",
"172 298 CURVE",
"147 349 OFFCURVE",
"112 428 OFFCURVE",
"55 461 CURVE",
"-30 376 LINE",
"-30 367 LINE",
"1 354 OFFCURVE",
"39 320 OFFCURVE",
"78 253 CURVE SMOOTH",
"123 177 OFFCURVE",
"187 58 OFFCURVE",
"211 -10 CURVE"
);
},
{
closed = 1;
nodes = (
"245 153 OFFCURVE",
"219 194 OFFCURVE",
"190 261 CURVE",
"202 297 OFFCURVE",
"234 345 OFFCURVE",
"283 345 CURVE SMOOTH",
"318 345 OFFCURVE",
"355 319 OFFCURVE",
"355 271 CURVE SMOOTH",
"355 230 OFFCURVE",
"331 163 OFFCURVE",
"276 101 CURVE"
);
}
);
width = 470;
}
);
unicode = 0076;
},
{
color = 4;
glyphname = w;
lastChange = "2020-02-04 05:39:17 +0000";
layers = (
{
layerId = "310A0878-FAF0-4FA6-A778-54E96A53E047";
paths = (
{
closed = 1;
nodes = (
"275 -10 LINE",
"411 181 LINE",
"504 -10 LINE",
"523 -10 LINE",
"592 87 OFFCURVE",
"736 231 OFFCURVE",
"736 320 CURVE SMOOTH",
"736 405 OFFCURVE",
"649 461 OFFCURVE",
"574 455 CURVE",
"548 422 OFFCURVE",
"500 359 OFFCURVE",
"466 312 CURVE",
"428 387 OFFCURVE",
"387 460 OFFCURVE",
"314 460 CURVE",
"276 430 OFFCURVE",
"238 382 OFFCURVE",
"204 332 CURVE",
"135 431 OFFCURVE",
"113 460 OFFCURVE",
"38 460 CURVE",
"-30 360 LINE",
"-30 343 LINE",
"32 353 OFFCURVE",
"58 343 OFFCURVE",
"78 305 CURVE SMOOTH",
"242 -10 LINE"
);
},
{
closed = 1;
nodes = (
"217 299 LINE",
"228 313 OFFCURVE",
"253 352 OFFCURVE",
"292 352 CURVE SMOOTH",
"348 352 OFFCURVE",
"387 296 OFFCURVE",
"381 222 CURVE SMOOTH",
"378 181 OFFCURVE",
"350 143 OFFCURVE",
"309 106 CURVE"
);
},
{
closed = 1;
nodes = (
"481 276 LINE",
"508 318 OFFCURVE",
"541 347 OFFCURVE",
"583 347 CURVE SMOOTH",
"619 347 OFFCURVE",
"660 317 OFFCURVE",
"660 262 CURVE SMOOTH",
"660 209 OFFCURVE",
"624 159 OFFCURVE",
"566 110 CURVE"
);
}
);
width = 756;
}
);
leftMetricsKey = v;
rightMetricsKey = v;
unicode = 0077;
},
{
color = 4;
glyphname = x;
lastChange = "2020-01-30 12:51:20 +0000";
layers = (
{
layerId = "310A0878-FAF0-4FA6-A778-54E96A53E047";
paths = (
{
closed = 1;
nodes = (
"77 -15 OFFCURVE",
"125 51 OFFCURVE",
"162 108 CURVE",
"190 46 OFFCURVE",
"248 -10 OFFCURVE",
"285 -10 CURVE",
"323 9 OFFCURVE",
"409 75 OFFCURVE",
"443 118 CURVE",
"428 136 LINE",
"411 119 OFFCURVE",
"375 102 OFFCURVE",
"348 102 CURVE SMOOTH",
"270 102 OFFCURVE",
"230 177 OFFCURVE",
"238 347 CURVE",
"287 397 OFFCURVE",
"336 318 OFFCURVE",
"347 290 CURVE",
"355 288 LINE",
"386 317 OFFCURVE",
"421 337 OFFCURVE",
"453 356 CURVE",
"453 360 LINE",
"432 405 OFFCURVE",
"380 464 OFFCURVE",
"327 460 CURVE",
"232 379 LINE",
"226 411 OFFCURVE",
"169 461 OFFCURVE",
"117 461 CURVE",
"6 368 LINE",
"23 350 LINE",
"41 355 OFFCURVE",
"56 360 OFFCURVE",
"79 360 CURVE SMOOTH",
"119 360 OFFCURVE",
"147 328 OFFCURVE",
"147 257 CURVE SMOOTH",
"147 141 OFFCURVE",
"91 66 OFFCURVE",
"0 -53 CURVE",
"29 -71 LINE"
);
}
);
width = 463;
}
);
unicode = 0078;
},
{
color = 4;
glyphname = y;
lastChange = "2020-02-04 05:41:51 +0000";
layers = (
{
layerId = "310A0878-FAF0-4FA6-A778-54E96A53E047";
paths = (
{
closed = 1;
nodes = (
"334 19 OFFCURVE",
"463 236 OFFCURVE",
"463 343 CURVE SMOOTH",
"463 430 OFFCURVE",
"370 460 OFFCURVE",
"300 460 CURVE",
"268 432 OFFCURVE",
"221 356 OFFCURVE",
"182 291 CURVE",
"149 344 OFFCURVE",
"115 395 OFFCURVE",
"91 432 CURVE SMOOTH",
"75 456 OFFCURVE",
"50 464 OFFCURVE",
"27 460 CURVE",
"-30 382 LINE",
"-28 371 LINE",
"-7 367 OFFCURVE",
"17 350 OFFCURVE",
"38 322 CURVE SMOOTH",
"101 238 OFFCURVE",
"218 62 OFFCURVE",
"257 -21 CURVE",
"199 -108 OFFCURVE",
"89 -135 OFFCURVE",
"45 -150 CURVE",
"45 -170 LINE",
"95 -176 OFFCURVE",
"145 -180 OFFCURVE",
"195 -180 CURVE"
);
},
{
closed = 1;
nodes = (
"298 105 OFFCURVE",
"250 184 OFFCURVE",
"199 265 CURVE",
"216 296 OFFCURVE",
"258 345 OFFCURVE",
"304 345 CURVE SMOOTH",
"353 345 OFFCURVE",
"392 313 OFFCURVE",
"392 247 CURVE SMOOTH",
"392 201 OFFCURVE",
"362 139 OFFCURVE",
"313 69 CURVE"
);
}
);
width = 483;
}
);
leftMetricsKey = v;
rightMetricsKey = v;
unicode = 0079;
},
{
color = 4;
glyphname = z;
lastChange = "2020-02-01 17:29:04 +0000";
layers = (
{
layerId = "310A0878-FAF0-4FA6-A778-54E96A53E047";
paths = (
{
closed = 1;
nodes = (
"91 38 OFFCURVE",
"215 -10 OFFCURVE",
"328 -10 CURVE",
"367 16 OFFCURVE",
"401 63 OFFCURVE",
"443 125 CURVE",
"420 130 LINE",
"391 95 OFFCURVE",
"365 90 OFFCURVE",
"335 90 CURVE SMOOTH",
"288 90 OFFCURVE",
"202 101 OFFCURVE",
"144 107 CURVE",
"221 214 OFFCURVE",
"339 338 OFFCURVE",
"419 453 CURVE",
"396 460 LINE",
"343 410 OFFCURVE",
"222 460 OFFCURVE",
"121 460 CURVE",
"91 440 OFFCURVE",
"52 392 OFFCURVE",
"15 350 CURVE",
"36 336 LINE",
"55 355 OFFCURVE",
"85 363 OFFCURVE",
"105 363 CURVE SMOOTH",
"156 363 OFFCURVE",
"225 353 OFFCURVE",
"292 344 CURVE",
"214 237 OFFCURVE",
"94 115 OFFCURVE",
"24 3 CURVE",
"38 -10 LINE"
);
}
);
width = 453;
}
);
unicode = 007A;
},
{
color = 10;
glyphname = ampersand;
lastChange = "2020-02-01 17:29:17 +0000";
layers = (
{
layerId = "310A0878-FAF0-4FA6-A778-54E96A53E047";
paths = (
{
closed = 1;
nodes = (
"230 -10 OFFCURVE",
"294 26 OFFCURVE",
"361 79 CURVE",
"436 26 OFFCURVE",
"495 -10 OFFCURVE",
"529 -10 CURVE SMOOTH",
"592 -10 OFFCURVE",
"658 68 OFFCURVE",
"678 130 CURVE",
"656 140 LINE",
"637 107 OFFCURVE",
"607 76 OFFCURVE",
"582 76 CURVE SMOOTH",
"545 76 OFFCURVE",
"489 103 OFFCURVE",
"429 139 CURVE",
"550 257 OFFCURVE",
"657 414 OFFCURVE",
"649 499 CURVE",
"491 470 LINE",
"497 452 LINE",
"523 446 OFFCURVE",
"538 418 OFFCURVE",
"538 390 CURVE SMOOTH",
"538 320 OFFCURVE",
"474 227 OFFCURVE",
"398 159 CURVE",
"346 191 OFFCURVE",
"295 228 OFFCURVE",
"251 259 CURVE",
"284 299 OFFCURVE",
"323 351 OFFCURVE",
"323 396 CURVE SMOOTH",
"323 448 OFFCURVE",
"290 491 OFFCURVE",
"225 502 CURVE",
"150 502 OFFCURVE",
"52 459 OFFCURVE",
"52 372 CURVE SMOOTH",
"52 341 OFFCURVE",
"72 309 OFFCURVE",
"104 277 CURVE",
"64 236 OFFCURVE",
"20 178 OFFCURVE",
"20 133 CURVE SMOOTH",
"20 54 OFFCURVE",
"71 -10 OFFCURVE",
"182 -10 CURVE SMOOTH"
);
},
{
closed = 1;
nodes = (
"172 65 OFFCURVE",
"98 92 OFFCURVE",
"98 182 CURVE SMOOTH",
"98 207 OFFCURVE",
"112 235 OFFCURVE",
"127 255 CURVE",
"145 240 OFFCURVE",
"165 224 OFFCURVE",
"186 208 CURVE SMOOTH",
"236 171 OFFCURVE",
"283 135 OFFCURVE",
"326 104 CURVE",
"288 80 OFFCURVE",
"251 65 OFFCURVE",
"222 65 CURVE SMOOTH"
);
},
{
closed = 1;
nodes = (
"230 274 LINE SMOOTH",
"146 332 OFFCURVE",
"110 416 OFFCURVE",
"165 450 CURVE",
"237 441 OFFCURVE",
"268 361 OFFCURVE",
"234 271 CURVE"
);
}
);
width = 698;
}
);
unicode = 0026;
},
{
color = 10;
glyphname = period;
lastChange = "2020-02-01 17:29:24 +0000";
layers = (
{
layerId = "310A0878-FAF0-4FA6-A778-54E96A53E047";
paths = (
{
closed = 1;
nodes = (
"82 -10 LINE",
"105 10 OFFCURVE",
"126 31 OFFCURVE",
"143 51 CURVE",
"143 52 LINE",
"124 74 OFFCURVE",
"103 95 OFFCURVE",
"82 113 CURVE",
"81 113 LINE",
"62 93 OFFCURVE",
"41 72 OFFCURVE",
"20 52 CURVE",
"20 51 LINE",
"39 34 OFFCURVE",
"60 13 OFFCURVE",
"81 -10 CURVE"
);
}
);
width = 163;
}
);
unicode = 002E;
},
{
color = 10;
glyphname = comma;
lastChange = "2020-01-30 12:51:20 +0000";
layers = (
{
layerId = "310A0878-FAF0-4FA6-A778-54E96A53E047";
paths = (
{
closed = 1;
nodes = (
"197 29 LINE",
"197 32 LINE",
"114 116 LINE",
"112 116 LINE",
"43 46 LINE",
"43 44 LINE",
"98 -10 LINE",
"20 -115 LINE",
"35 -133 LINE"
);
}
);
width = 217;
}
);
unicode = 002C;
},
{
color = 10;
glyphname = colon;
lastChange = "2020-02-01 17:29:33 +0000";
layers = (
{
layerId = "310A0878-FAF0-4FA6-A778-54E96A53E047";
paths = (
{
closed = 1;
nodes = (
"82 129 LINE",
"105 149 OFFCURVE",
"126 170 OFFCURVE",
"143 190 CURVE",
"143 191 LINE",
"124 213 OFFCURVE",
"103 234 OFFCURVE",
"82 252 CURVE",
"81 252 LINE",
"62 232 OFFCURVE",
"41 211 OFFCURVE",
"20 191 CURVE",
"20 190 LINE",
"39 173 OFFCURVE",
"60 152 OFFCURVE",
"81 129 CURVE"
);
},
{
closed = 1;
nodes = (
"82 -24 LINE",
"105 -4 OFFCURVE",
"126 17 OFFCURVE",
"143 37 CURVE",
"143 38 LINE",
"124 60 OFFCURVE",
"103 81 OFFCURVE",
"82 99 CURVE",
"81 99 LINE",
"62 79 OFFCURVE",
"41 58 OFFCURVE",
"20 38 CURVE",
"20 37 LINE",
"39 20 OFFCURVE",
"60 -1 OFFCURVE",
"81 -24 CURVE"
);
}
);
width = 163;
}
);
unicode = 003A;
},
{
color = 10;
glyphname = semicolon;
lastChange = "2020-02-01 17:29:58 +0000";
layers = (
{
layerId = "310A0878-FAF0-4FA6-A778-54E96A53E047";
paths = (
{
closed = 1;
nodes = (
"197 19 LINE",
"197 22 LINE",
"114 106 LINE",
"112 106 LINE",
"43 36 LINE",
"43 34 LINE",
"98 -20 LINE",
"20 -125 LINE",
"35 -143 LINE"
);
},
{
closed = 1;
nodes = (
"135 141 LINE",
"158 161 OFFCURVE",
"179 182 OFFCURVE",
"196 202 CURVE",
"196 203 LINE",
"177 225 OFFCURVE",
"156 246 OFFCURVE",
"135 264 CURVE",
"134 264 LINE",
"115 244 OFFCURVE",
"94 223 OFFCURVE",
"73 203 CURVE",
"73 202 LINE",
"92 185 OFFCURVE",
"113 164 OFFCURVE",
"134 141 CURVE"
);
}
);
width = 217;
}
);
unicode = 003B;
},
{
color = 10;
glyphname = question;
lastChange = "2020-02-01 17:30:05 +0000";
layers = (
{
layerId = "310A0878-FAF0-4FA6-A778-54E96A53E047";
paths = (
{
closed = 1;
nodes = (
"299 220 LINE",
"299 227 LINE",
"250 227 OFFCURVE",
"203 250 OFFCURVE",
"203 281 CURVE SMOOTH",
"203 348 OFFCURVE",
"284 477 OFFCURVE",
"284 563 CURVE SMOOTH",
"284 658 OFFCURVE",
"203 711 OFFCURVE",
"143 710 CURVE",
"20 558 LINE",
"37 542 LINE",
"64 570 OFFCURVE",
"102 591 OFFCURVE",
"132 591 CURVE SMOOTH",
"173 591 OFFCURVE",
"212 574 OFFCURVE",
"212 519 CURVE SMOOTH",
"212 445 OFFCURVE",
"143 238 OFFCURVE",
"144 202 CURVE",
"162 174 OFFCURVE",
"202 146 OFFCURVE",
"234 134 CURVE"
);
},
{
closed = 1;
nodes = (
"199 -18 LINE",
"222 2 OFFCURVE",
"243 23 OFFCURVE",
"260 43 CURVE",
"260 44 LINE",
"241 66 OFFCURVE",
"220 87 OFFCURVE",
"199 105 CURVE",
"198 105 LINE",
"179 85 OFFCURVE",
"158 64 OFFCURVE",
"137 44 CURVE",
"137 43 LINE",
"156 26 OFFCURVE",
"177 5 OFFCURVE",
"198 -18 CURVE"
);
}
);
width = 319;
}
);
unicode = 003F;
},
{
color = 10;
glyphname = hyphen;
lastChange = "2020-02-01 17:30:16 +0000";
layers = (
{
layerId = "310A0878-FAF0-4FA6-A778-54E96A53E047";
paths = (
{
closed = 1;
nodes = (
"68 193 OFFCURVE",
"135 193 OFFCURVE",
"219 187 CURVE",
"236 215 OFFCURVE",
"251 243 OFFCURVE",
"262 271 CURVE",
"262 277 LINE",
"204 266 OFFCURVE",
"137 259 OFFCURVE",
"61 258 CURVE",
"44 236 OFFCURVE",
"31 214 OFFCURVE",
"20 192 CURVE",
"20 187 LINE"
);
}
);
width = 282;
}
);
unicode = 002D;
},
{
color = 10;
glyphname = parenleft;
lastChange = "2020-01-30 12:51:20 +0000";
layers = (
{
layerId = "310A0878-FAF0-4FA6-A778-54E96A53E047";
paths = (
{
closed = 1;
nodes = (
"201 -150 LINE",
"149 -59 OFFCURVE",
"105 106 OFFCURVE",
"105 266 CURVE SMOOTH",
"105 426 OFFCURVE",
"118 534 OFFCURVE",
"180 656 CURVE",
"152 675 LINE",
"73 547 OFFCURVE",
"20 452 OFFCURVE",
"20 269 CURVE SMOOTH",
"20 86 OFFCURVE",
"99 -74 OFFCURVE",
"173 -167 CURVE"
);
}
);
width = 221;
}
);
unicode = 0028;
},
{
color = 10;
glyphname = parenright;
lastChange = "2020-01-30 12:51:20 +0000";
layers = (
{
layerId = "310A0878-FAF0-4FA6-A778-54E96A53E047";
paths = (
{
closed = 1;
nodes = (
"122 -74 OFFCURVE",
"201 86 OFFCURVE",
"201 269 CURVE SMOOTH",
"201 452 OFFCURVE",
"148 547 OFFCURVE",
"69 675 CURVE",
"41 656 LINE",
"103 534 OFFCURVE",
"116 426 OFFCURVE",
"116 266 CURVE SMOOTH",
"116 106 OFFCURVE",
"72 -59 OFFCURVE",
"20 -150 CURVE",
"48 -167 LINE"
);
}
);
width = 221;
}
);
unicode = 0029;
},
{
color = 10;
glyphname = quotesinglbase;
lastChange = "2020-02-01 17:30:34 +0000";
layers = (
{
layerId = "310A0878-FAF0-4FA6-A778-54E96A53E047";
paths = (
{
closed = 1;
nodes = (
"197 29 LINE",
"197 32 LINE",
"114 116 LINE",
"112 116 LINE",
"43 46 LINE",
"43 44 LINE",
"98 -10 LINE",
"20 -115 LINE",
"35 -133 LINE"
);
}
);
width = 217;
}
);
unicode = 201A;
},
{
color = 10;
glyphname = quotedblbase;
lastChange = "2020-01-30 12:51:20 +0000";
layers = (
{
layerId = "310A0878-FAF0-4FA6-A778-54E96A53E047";
paths = (
{
closed = 1;
nodes = (
"197 29 LINE",
"197 32 LINE",
"114 116 LINE",
"112 116 LINE",
"43 46 LINE",
"43 44 LINE",
"98 -10 LINE",
"20 -115 LINE",
"35 -133 LINE"
);
}
);
width = 217;
}
);
note = "?";
unicode = 201E;
},
{
color = 10;
glyphname = quotesingle;
lastChange = "2020-02-01 17:30:40 +0000";
layers = (
{
layerId = "310A0878-FAF0-4FA6-A778-54E96A53E047";
paths = (
{
closed = 1;
nodes = (
"180 642 LINE",
"109 713 LINE",
"37 642 LINE",
"83 599 LINE",
"20 490 LINE",
"37 480 LINE"
);
}
);
width = 200;
}
);
unicode = 0027;
},
{
glyphname = mond;
lastChange = "2020-02-01 17:31:02 +0000";
layers = (
{
layerId = "310A0878-FAF0-4FA6-A778-54E96A53E047";
paths = (
{
closed = 1;
nodes = (
"752 50 OFFCURVE",
"883 235 OFFCURVE",
"871 368 CURVE",
"855 364 LINE",
"855 245 OFFCURVE",
"737 125 OFFCURVE",
"617 90 CURVE SMOOTH",
"421 32 OFFCURVE",
"248 90 OFFCURVE",
"135 263 CURVE SMOOTH",
"61 377 OFFCURVE",
"78 546 OFFCURVE",
"161 685 CURVE",
"147 690 LINE",
"98 623 OFFCURVE",
"69 566 OFFCURVE",
"56 488 CURVE SMOOTH",
"23 290 OFFCURVE",
"120 115 OFFCURVE",
"269 43 CURVE SMOOTH",
"364 -3 OFFCURVE",
"474 -14 OFFCURVE",
"577 10 CURVE SMOOTH"
);
}
);
width = 922;
}
);
},
{
glyphname = kopf;
lastChange = "2020-01-30 12:51:20 +0000";
layers = (
{
layerId = "310A0878-FAF0-4FA6-A778-54E96A53E047";
paths = (
{
closed = 1;
nodes = (
"617 -13 OFFCURVE",
"773 142 OFFCURVE",
"766 348 CURVE SMOOTH",
"759 563 OFFCURVE",
"572 700 OFFCURVE",
"406 700 CURVE SMOOTH",
"209 700 OFFCURVE",
"50 552 OFFCURVE",
"50 348 CURVE SMOOTH",
"50 150 OFFCURVE",
"209 -2 OFFCURVE",
"406 -7 CURVE SMOOTH"
);
},
{
closed = 1;
nodes = (
"177 99 OFFCURVE",
"145 138 OFFCURVE",
"123 176 CURVE",
"141 255 OFFCURVE",
"158 335 OFFCURVE",
"177 414 CURVE",
"202 304 OFFCURVE",
"220 199 OFFCURVE",
"239 93 CURVE",
"230 90 OFFCURVE",
"222 86 OFFCURVE",
"213 82 CURVE"
);
},
{
closed = 1;
nodes = (
"340 19 OFFCURVE",
"277 34 OFFCURVE",
"227 68 CURVE",
"249 85 OFFCURVE",
"357 107 OFFCURVE",
"414 107 CURVE SMOOTH",
"495 107 OFFCURVE",
"558 104 OFFCURVE",
"624 88 CURVE",
"555 30 OFFCURVE",
"492 19 OFFCURVE",
"406 19 CURVE SMOOTH"
);
},
{
closed = 1;
nodes = (
"208 345 LINE",
"236 316 LINE",
"233 203 LINE"
);
},
{
closed = 1;
nodes = (
"251 111 OFFCURVE",
"244 132 OFFCURVE",
"244 149 CURVE SMOOTH",
"244 188 OFFCURVE",
"251 276 OFFCURVE",
"251 284 CURVE SMOOTH",
"251 290 OFFCURVE",
"252 295 OFFCURVE",
"259 295 CURVE SMOOTH",
"263 295 OFFCURVE",
"272 284 OFFCURVE",
"289 269 CURVE SMOOTH",
"317 242 OFFCURVE",
"356 212 OFFCURVE",
"393 180 CURVE",
"420 160 OFFCURVE",
"446 142 OFFCURVE",
"466 122 CURVE",
"364 124 OFFCURVE",
"304 111 OFFCURVE",
"254 97 CURVE"
);
},
{
closed = 1;
nodes = (
"219 369 LINE",
"261 390 LINE",
"243 340 LINE"
);
},
{
closed = 1;
nodes = (
"533 121 OFFCURVE",
"513 121 OFFCURVE",
"494 122 CURVE",
"442 166 OFFCURVE",
"396 202 OFFCURVE",
"339 249 CURVE",
"353 248 OFFCURVE",
"361 251 OFFCURVE",
"371 259 CURVE",
"377 266 OFFCURVE",
"364 274 OFFCURVE",
"360 271 CURVE",
"350 266 OFFCURVE",
"339 261 OFFCURVE",
"329 266 CURVE SMOOTH",
"318 270 OFFCURVE",
"307 281 OFFCURVE",
"293 295 CURVE SMOOTH",
"273 316 OFFCURVE",
"266 323 OFFCURVE",
"262 335 CURVE",
"268 361 OFFCURVE",
"287 389 OFFCURVE",
"298 413 CURVE",
"337 421 OFFCURVE",
"357 432 OFFCURVE",
"406 436 CURVE SMOOTH",
"452 440 OFFCURVE",
"462 439 OFFCURVE",
"501 436 CURVE SMOOTH",
"538 433 OFFCURVE",
"572 426 OFFCURVE",
"584 420 CURVE SMOOTH",
"591 417 OFFCURVE",
"597 416 OFFCURVE",
"597 410 CURVE SMOOTH",
"597 404 OFFCURVE",
"594 401 OFFCURVE",
"590 400 CURVE SMOOTH",
"581 397 OFFCURVE",
"559 407 OFFCURVE",
"548 410 CURVE SMOOTH",
"522 416 OFFCURVE",
"480 421 OFFCURVE",
"477 418 CURVE",
"477 414 OFFCURVE",
"510 403 OFFCURVE",
"533 390 CURVE SMOOTH",
"548 382 OFFCURVE",
"561 369 OFFCURVE",
"570 369 CURVE SMOOTH",
"579 369 OFFCURVE",
"581 373 OFFCURVE",
"590 383 CURVE SMOOTH",
"598 393 OFFCURVE",
"603 400 OFFCURVE",
"607 404 CURVE SMOOTH",
"611 409 OFFCURVE",
"617 420 OFFCURVE",
"608 424 CURVE",
"600 426 OFFCURVE",
"537 442 OFFCURVE",
"512 446 CURVE SMOOTH",
"501 447 OFFCURVE",
"483 449 OFFCURVE",
"472 452 CURVE",
"621 492 LINE",
"628 467 OFFCURVE",
"632 429 OFFCURVE",
"629 413 CURVE",
"626 404 OFFCURVE",
"621 401 OFFCURVE",
"615 393 CURVE",
"615 256 LINE",
"604 256 OFFCURVE",
"583 266 OFFCURVE",
"580 266 CURVE",
"577 261 OFFCURVE",
"577 258 OFFCURVE",
"577 254 CURVE",
"580 251 OFFCURVE",
"584 251 OFFCURVE",
"587 249 CURVE",
"580 221 OFFCURVE",
"561 160 OFFCURVE",
"552 118 CURVE"
);
},
{
closed = 1;
nodes = (
"158 506 OFFCURVE",
"247 666 OFFCURVE",
"411 658 CURVE SMOOTH",
"572 651 OFFCURVE",
"603 569 OFFCURVE",
"617 509 CURVE",
"557 494 OFFCURVE",
"495 477 OFFCURVE",
"435 468 CURVE",
"400 452 OFFCURVE",
"365 443 OFFCURVE",
"326 435 CURVE",
"283 418 OFFCURVE",
"240 401 OFFCURVE",
"198 385 CURVE"
);
}
);
width = 816;
}
);
},
{
glyphname = koenigspaar;
lastChange = "2020-01-30 12:51:20 +0000";
layers = (
{
layerId = "310A0878-FAF0-4FA6-A778-54E96A53E047";
paths = (
{
closed = 1;
nodes = (
"610 -8 OFFCURVE",
"780 124 OFFCURVE",
"780 351 CURVE SMOOTH",
"780 548 OFFCURVE",
"601 713 OFFCURVE",
"411 713 CURVE SMOOTH",
"222 713 OFFCURVE",
"50 562 OFFCURVE",
"50 354 CURVE SMOOTH",
"50 145 OFFCURVE",
"211 -8 OFFCURVE",
"411 -8 CURVE SMOOTH"
);
},
{
closed = 1;
nodes = (
"175 98 OFFCURVE",
"174 99 OFFCURVE",
"172 100 CURVE",
"172 107 LINE SMOOTH",
"172 113 OFFCURVE",
"179 112 OFFCURVE",
"183 113 CURVE",
"183 111 LINE",
"175 111 OFFCURVE",
"175 108 OFFCURVE",
"175 106 CURVE SMOOTH",
"175 97 OFFCURVE",
"183 99 OFFCURVE",
"187 99 CURVE SMOOTH",
"191 99 LINE",
"191 97 LINE",
"176 97 LINE"
);
},
{
closed = 1;
nodes = (
"119 165 OFFCURVE",
"119 166 OFFCURVE",
"118 166 CURVE",
"121 176 OFFCURVE",
"128 190 OFFCURVE",
"128 194 CURVE SMOOTH",
"128 196 OFFCURVE",
"132 198 OFFCURVE",
"131 194 CURVE SMOOTH",
"130 190 OFFCURVE",
"122 170 OFFCURVE",
"120 164 CURVE"
);
},
{
closed = 1;
nodes = (
"111 203 LINE SMOOTH",
"113 205 OFFCURVE",
"115 203 OFFCURVE",
"113 202 CURVE SMOOTH",
"107 198 LINE SMOOTH",
"105 196 OFFCURVE",
"102 198 OFFCURVE",
"104 198 CURVE"
);
},
{
closed = 1;
nodes = (
"109 206 LINE SMOOTH",
"111 207 OFFCURVE",
"112 206 OFFCURVE",
"111 205 CURVE",
"104 202 LINE SMOOTH",
"102 201 OFFCURVE",
"101 202 OFFCURVE",
"102 202 CURVE"
);
},
{
closed = 1;
nodes = (
"87 231 LINE",
"87 232 OFFCURVE",
"86 233 OFFCURVE",
"86 235 CURVE",
"87 235 OFFCURVE",
"88 234 OFFCURVE",
"90 234 CURVE SMOOTH",
"93 234 OFFCURVE",
"101 221 OFFCURVE",
"107 214 CURVE",
"107 209 LINE"
);
},
{
closed = 1;
nodes = (
"148 138 OFFCURVE",
"139 152 OFFCURVE",
"140 168 CURVE",
"143 168 LINE",
"142 153 OFFCURVE",
"151 138 OFFCURVE",
"156 132 CURVE SMOOTH",
"164 124 OFFCURVE",
"168 119 OFFCURVE",
"168 143 CURVE SMOOTH",
"168 211 LINE",
"171 211 LINE",
"171 133 LINE SMOOTH",
"171 131 OFFCURVE",
"167 116 OFFCURVE",
"155 129 CURVE SMOOTH"
);
},
{
closed = 1;
nodes = (
"78 261 LINE",
"79 261 LINE",
"82 259 OFFCURVE",
"85 259 OFFCURVE",
"86 253 CURVE",
"89 248 OFFCURVE",
"90 244 OFFCURVE",
"89 242 CURVE",
"87 241 OFFCURVE",
"86 240 OFFCURVE",
"84 240 CURVE"
);
},
{
closed = 1;
nodes = (
"136 198 OFFCURVE",
"133 199 OFFCURVE",
"132 203 CURVE SMOOTH",
"131 207 OFFCURVE",
"134 209 OFFCURVE",
"136 210 CURVE",
"152 210 LINE SMOOTH",
"155 210 OFFCURVE",
"151 210 OFFCURVE",
"151 209 CURVE SMOOTH",
"151 208 OFFCURVE",
"148 208 OFFCURVE",
"146 208 CURVE SMOOTH",
"143 208 OFFCURVE",
"141 208 OFFCURVE",
"138 207 CURVE SMOOTH",
"136 206 OFFCURVE",
"137 206 OFFCURVE",
"138 206 CURVE",
"138 205 OFFCURVE",
"140 206 OFFCURVE",
"144 206 CURVE",
"147 207 OFFCURVE",
"146 205 OFFCURVE",
"143 201 CURVE SMOOTH",
"140 198 OFFCURVE",
"139 198 OFFCURVE",
"138 198 CURVE SMOOTH"
);
},
{
closed = 1;
nodes = (
"93 242 LINE",
"97 244 LINE",
"98 264 LINE SMOOTH",
"98 279 OFFCURVE",
"122 274 OFFCURVE",
"121 264 CURVE SMOOTH",
"120 245 LINE SMOOTH",
"120 241 OFFCURVE",
"110 241 OFFCURVE",
"101 241 CURVE",
"102 236 LINE",
"129 237 LINE",
"119 211 LINE"
);
},
{
closed = 1;
nodes = (
"174 221 LINE",
"176 221 LINE",
"180 146 LINE",
"177 146 LINE"
);
},
{
closed = 1;
nodes = (
"290 70 LINE",
"301 70 OFFCURVE",
"315 69 OFFCURVE",
"320 72 CURVE SMOOTH",
"332 77 LINE",
"324 77 OFFCURVE",
"311 75 OFFCURVE",
"307 77 CURVE",
"297 78 OFFCURVE",
"307 82 OFFCURVE",
"311 82 CURVE SMOOTH",
"345 82 LINE",
"335 77 OFFCURVE",
"328 56 OFFCURVE",
"305 64 CURVE SMOOTH"
);
},
{
closed = 1;
nodes = (
"141 213 OFFCURVE",
"132 213 OFFCURVE",
"130 218 CURVE SMOOTH",
"128 225 OFFCURVE",
"137 240 OFFCURVE",
"140 245 CURVE SMOOTH",
"143 249 OFFCURVE",
"141 250 OFFCURVE",
"141 253 CURVE SMOOTH",
"141 265 LINE SMOOTH",
"141 276 OFFCURVE",
"167 289 OFFCURVE",
"167 264 CURVE SMOOTH",
"167 254 OFFCURVE",
"165 253 OFFCURVE",
"153 253 CURVE SMOOTH",
"149 253 LINE",
"151 248 LINE SMOOTH",
"152 246 OFFCURVE",
"164 244 OFFCURVE",
"168 246 CURVE SMOOTH",
"174 248 OFFCURVE",
"184 234 OFFCURVE",
"177 230 CURVE SMOOTH",
"145 214 LINE"
);
},
{
closed = 1;
nodes = (
"183 161 LINE",
"183 285 LINE",
"184 285 LINE",
"187 160 LINE"
);
},
{
closed = 1;
nodes = (
"296 97 OFFCURVE",
"278 108 OFFCURVE",
"278 119 CURVE SMOOTH",
"278 132 OFFCURVE",
"278 146 OFFCURVE",
"277 148 CURVE",
"277 150 OFFCURVE",
"273 153 OFFCURVE",
"273 148 CURVE SMOOTH",
"273 135 LINE SMOOTH",
"273 120 OFFCURVE",
"256 133 OFFCURVE",
"256 144 CURVE SMOOTH",
"256 188 LINE",
"251 196 LINE",
"251 169 LINE SMOOTH",
"251 144 OFFCURVE",
"241 167 OFFCURVE",
"239 190 CURVE SMOOTH",
"237 224 LINE SMOOTH",
"237 226 OFFCURVE",
"231 226 OFFCURVE",
"231 222 CURVE SMOOTH",
"230 205 LINE SMOOTH",
"229 190 OFFCURVE",
"228 199 OFFCURVE",
"224 210 CURVE SMOOTH",
"221 218 OFFCURVE",
"219 228 OFFCURVE",
"213 232 CURVE SMOOTH",
"208 236 OFFCURVE",
"200 256 OFFCURVE",
"196 262 CURVE SMOOTH",
"192 269 OFFCURVE",
"191 280 OFFCURVE",
"191 282 CURVE SMOOTH",
"191 284 OFFCURVE",
"188 295 OFFCURVE",
"192 295 CURVE SMOOTH",
"220 293 LINE",
"226 299 LINE",
"213 299 OFFCURVE",
"195 299 OFFCURVE",
"191 300 CURVE SMOOTH",
"186 301 OFFCURVE",
"183 307 OFFCURVE",
"192 307 CURVE SMOOTH",
"238 307 LINE",
"245 312 LINE",
"227 314 OFFCURVE",
"194 312 OFFCURVE",
"187 314 CURVE",
"177 315 OFFCURVE",
"181 322 OFFCURVE",
"188 322 CURVE SMOOTH",
"301 322 LINE SMOOTH",
"305 322 OFFCURVE",
"308 318 OFFCURVE",
"305 311 CURVE",
"301 305 OFFCURVE",
"297 299 OFFCURVE",
"297 293 CURVE",
"297 293 OFFCURVE",
"298 283 OFFCURVE",
"298 182 CURVE SMOOTH",
"298 174 OFFCURVE",
"296 170 OFFCURVE",
"296 162 CURVE SMOOTH",
"296 118 LINE SMOOTH"
);
},
{
closed = 1;
nodes = (
"309 198 LINE",
"343 198 OFFCURVE",
"402 196 OFFCURVE",
"410 198 CURVE",
"414 194 OFFCURVE",
"432 191 OFFCURVE",
"438 198 CURVE",
"481 198 LINE SMOOTH",
"483 198 OFFCURVE",
"493 187 OFFCURVE",
"478 186 CURVE SMOOTH",
"465 186 OFFCURVE",
"413 184 OFFCURVE",
"406 184 CURVE SMOOTH",
"398 184 OFFCURVE",
"378 177 OFFCURVE",
"402 177 CURVE SMOOTH",
"426 177 OFFCURVE",
"495 179 OFFCURVE",
"495 177 CURVE SMOOTH",
"495 175 OFFCURVE",
"492 169 OFFCURVE",
"471 168 CURVE SMOOTH",
"375 162 LINE",
"364 157 LINE",
"439 157 LINE SMOOTH",
"463 157 OFFCURVE",
"465 143 OFFCURVE",
"440 141 CURVE SMOOTH",
"355 139 LINE",
"342 134 LINE",
"399 133 LINE SMOOTH",
"438 133 OFFCURVE",
"418 120 OFFCURVE",
"398 119 CURVE SMOOTH",
"328 116 LINE",
"328 113 LINE",
"364 112 LINE SMOOTH",
"398 112 OFFCURVE",
"380 96 OFFCURVE",
"362 96 CURVE SMOOTH",
"307 96 LINE"
);
},
{
closed = 1;
nodes = (
"327 206 OFFCURVE",
"320 214 OFFCURVE",
"315 217 CURVE",
"309 209 LINE SMOOTH",
"305 205 OFFCURVE",
"303 205 OFFCURVE",
"308 210 CURVE SMOOTH",
"313 217 OFFCURVE",
"316 230 OFFCURVE",
"320 241 CURVE SMOOTH",
"324 250 OFFCURVE",
"323 242 OFFCURVE",
"320 232 CURVE",
"317 226 OFFCURVE",
"313 221 OFFCURVE",
"319 216 CURVE SMOOTH",
"324 211 OFFCURVE",
"329 208 OFFCURVE",
"332 210 CURVE SMOOTH",
"347 222 OFFCURVE",
"332 208 OFFCURVE",
"329 207 CURVE SMOOTH"
);
},
{
closed = 1;
nodes = (
"351 202 OFFCURVE",
"347 206 OFFCURVE",
"350 206 CURVE SMOOTH",
"356 206 OFFCURVE",
"362 202 OFFCURVE",
"367 207 CURVE",
"373 211 OFFCURVE",
"380 209 OFFCURVE",
"383 207 CURVE",
"386 206 OFFCURVE",
"392 206 OFFCURVE",
"394 208 CURVE",
"395 210 OFFCURVE",
"402 210 OFFCURVE",
"403 210 CURVE",
"405 209 OFFCURVE",
"406 206 OFFCURVE",
"402 207 CURVE SMOOTH",
"400 208 OFFCURVE",
"394 206 OFFCURVE",
"394 205 CURVE",
"391 202 OFFCURVE",
"382 205 OFFCURVE",
"378 207 CURVE SMOOTH",
"372 210 OFFCURVE",
"370 206 OFFCURVE",
"367 203 CURVE",
"365 202 OFFCURVE",
"356 202 OFFCURVE",
"355 202 CURVE SMOOTH"
);
},
{
closed = 1;
nodes = (
"333 230 OFFCURVE",
"337 246 OFFCURVE",
"338 254 CURVE SMOOTH",
"340 262 OFFCURVE",
"345 275 OFFCURVE",
"347 285 CURVE",
"349 289 OFFCURVE",
"348 281 OFFCURVE",
"347 279 CURVE",
"341 257 LINE SMOOTH",
"340 254 OFFCURVE",
"337 237 OFFCURVE",
"335 226 CURVE SMOOTH",
"333 218 OFFCURVE",
"333 221 OFFCURVE",
"333 225 CURVE SMOOTH"
);
},
{
closed = 1;
nodes = (
"394 230 LINE SMOOTH",
"394 234 OFFCURVE",
"397 233 OFFCURVE",
"397 230 CURVE SMOOTH",
"397 218 LINE SMOOTH",
"397 211 OFFCURVE",
"394 218 OFFCURVE",
"394 218 CURVE"
);
},
{
closed = 1;
nodes = (
"305 268 OFFCURVE",
"304 266 OFFCURVE",
"307 273 CURVE SMOOTH",
"309 280 OFFCURVE",
"320 299 OFFCURVE",
"327 303 CURVE",
"331 307 OFFCURVE",
"333 311 OFFCURVE",
"333 314 CURVE SMOOTH",
"333 322 LINE SMOOTH",
"333 327 OFFCURVE",
"336 337 OFFCURVE",
"337 326 CURVE SMOOTH",
"337 315 OFFCURVE",
"337 310 OFFCURVE",
"335 307 CURVE SMOOTH",
"332 304 OFFCURVE",
"316 291 OFFCURVE",
"312 282 CURVE SMOOTH",
"308 271 LINE"
);
},
{
closed = 1;
nodes = (
"416 199 OFFCURVE",
"413 199 OFFCURVE",
"417 205 CURVE SMOOTH",
"420 209 OFFCURVE",
"434 211 OFFCURVE",
"435 209 CURVE",
"438 206 OFFCURVE",
"441 202 OFFCURVE",
"434 202 CURVE SMOOTH",
"426 201 OFFCURVE",
"419 199 OFFCURVE",
"418 199 CURVE SMOOTH"
);
},
{
closed = 1;
nodes = (
"257 330 OFFCURVE",
"256 331 OFFCURVE",
"256 332 CURVE SMOOTH",
"257 335 OFFCURVE",
"260 341 OFFCURVE",
"263 346 CURVE SMOOTH",
"265 351 OFFCURVE",
"288 380 OFFCURVE",
"290 383 CURVE SMOOTH",
"293 386 OFFCURVE",
"297 388 OFFCURVE",
"297 387 CURVE",
"298 386 OFFCURVE",
"297 384 OFFCURVE",
"294 383 CURVE",
"293 382 OFFCURVE",
"292 371 OFFCURVE",
"290 368 CURVE",
"289 365 OFFCURVE",
"288 348 OFFCURVE",
"286 341 CURVE SMOOTH",
"285 334 OFFCURVE",
"285 330 OFFCURVE",
"274 335 CURVE SMOOTH",
"263 339 LINE",
"262 339 OFFCURVE",
"258 334 OFFCURVE",
"258 332 CURVE SMOOTH",
"258 331 OFFCURVE",
"261 329 OFFCURVE",
"261 327 CURVE",
"261 327 OFFCURVE",
"261 326 OFFCURVE",
"259 327 CURVE"
);
},
{
closed = 1;
nodes = (
"374 239 OFFCURVE",
"378 278 OFFCURVE",
"375 281 CURVE",
"374 285 OFFCURVE",
"361 316 OFFCURVE",
"360 319 CURVE SMOOTH",
"359 322 OFFCURVE",
"360 325 OFFCURVE",
"361 323 CURVE SMOOTH",
"365 311 OFFCURVE",
"374 291 OFFCURVE",
"375 289 CURVE",
"378 286 OFFCURVE",
"379 285 OFFCURVE",
"379 270 CURVE SMOOTH",
"379 254 OFFCURVE",
"374 229 OFFCURVE",
"375 222 CURVE",
"378 216 OFFCURVE",
"374 206 OFFCURVE",
"374 222 CURVE SMOOTH"
);
},
{
closed = 1;
nodes = (
"409 253 LINE",
"409 253 OFFCURVE",
"410 260 OFFCURVE",
"410 253 CURVE SMOOTH",
"411 222 LINE SMOOTH",
"411 220 OFFCURVE",
"410 218 OFFCURVE",
"410 222 CURVE SMOOTH"
);
},
{
closed = 1;
nodes = (
"363 341 OFFCURVE",
"350 375 OFFCURVE",
"350 375 CURVE",
"347 389 OFFCURVE",
"360 354 OFFCURVE",
"361 352 CURVE SMOOTH",
"362 348 OFFCURVE",
"365 341 OFFCURVE",
"370 335 CURVE",
"378 329 OFFCURVE",
"371 331 OFFCURVE",
"366 335 CURVE"
);
},
{
closed = 1;
nodes = (
"373 337 OFFCURVE",
"370 337 OFFCURVE",
"373 341 CURVE SMOOTH",
"375 345 OFFCURVE",
"378 364 OFFCURVE",
"378 376 CURVE",
"379 379 OFFCURVE",
"380 378 OFFCURVE",
"380 374 CURVE SMOOTH",
"380 371 OFFCURVE",
"378 344 OFFCURVE",
"374 339 CURVE SMOOTH"
);
},
{
closed = 1;
nodes = (
"365 347 OFFCURVE",
"362 347 OFFCURVE",
"365 351 CURVE SMOOTH",
"367 354 OFFCURVE",
"371 373 OFFCURVE",
"374 384 CURVE",
"374 381 LINE SMOOTH",
"374 379 OFFCURVE",
"368 351 OFFCURVE",
"366 348 CURVE SMOOTH"
);
},
{
closed = 1;
nodes = (
"442 210 OFFCURVE",
"437 216 OFFCURVE",
"435 217 CURVE",
"435 218 OFFCURVE",
"433 218 OFFCURVE",
"432 218 CURVE",
"431 217 OFFCURVE",
"418 246 OFFCURVE",
"417 253 CURVE",
"414 261 OFFCURVE",
"406 277 OFFCURVE",
"406 282 CURVE SMOOTH",
"406 289 OFFCURVE",
"406 304 OFFCURVE",
"410 304 CURVE SMOOTH",
"414 304 OFFCURVE",
"434 304 OFFCURVE",
"435 305 CURVE SMOOTH",
"439 308 LINE",
"439 311 OFFCURVE",
"445 322 OFFCURVE",
"435 312 CURVE SMOOTH",
"433 310 OFFCURVE",
"425 308 OFFCURVE",
"419 310 CURVE SMOOTH",
"414 311 OFFCURVE",
"409 311 OFFCURVE",
"406 307 CURVE SMOOTH",
"402 301 OFFCURVE",
"402 296 OFFCURVE",
"402 292 CURVE SMOOTH",
"402 281 LINE SMOOTH",
"402 279 OFFCURVE",
"392 272 OFFCURVE",
"394 283 CURVE",
"398 295 OFFCURVE",
"410 316 OFFCURVE",
"412 319 CURVE SMOOTH",
"424 339 LINE",
"444 377 LINE SMOOTH",
"446 380 OFFCURVE",
"459 384 OFFCURVE",
"457 374 CURVE SMOOTH",
"454 364 OFFCURVE",
"449 350 OFFCURVE",
"450 344 CURVE",
"453 338 OFFCURVE",
"456 334 OFFCURVE",
"457 331 CURVE",
"459 330 OFFCURVE",
"465 324 OFFCURVE",
"461 334 CURVE SMOOTH",
"457 344 OFFCURVE",
"457 348 OFFCURVE",
"458 355 CURVE SMOOTH",
"461 371 LINE SMOOTH",
"461 372 OFFCURVE",
"461 374 OFFCURVE",
"464 371 CURVE",
"466 367 OFFCURVE",
"468 363 OFFCURVE",
"472 364 CURVE SMOOTH",
"475 365 OFFCURVE",
"478 365 OFFCURVE",
"479 368 CURVE SMOOTH",
"480 371 OFFCURVE",
"485 374 OFFCURVE",
"485 371 CURVE SMOOTH",
"485 369 OFFCURVE",
"483 364 OFFCURVE",
"483 360 CURVE SMOOTH",
"481 344 LINE SMOOTH",
"481 339 OFFCURVE",
"477 331 OFFCURVE",
"477 343 CURVE SMOOTH",
"477 352 OFFCURVE",
"477 361 OFFCURVE",
"475 361 CURVE SMOOTH",
"474 361 OFFCURVE",
"472 362 OFFCURVE",
"473 355 CURVE SMOOTH",
"474 348 OFFCURVE",
"475 339 OFFCURVE",
"475 335 CURVE SMOOTH",
"475 330 OFFCURVE",
"471 314 OFFCURVE",
"470 312 CURVE SMOOTH",
"469 311 OFFCURVE",
"466 305 OFFCURVE",
"466 312 CURVE SMOOTH",
"466 319 OFFCURVE",
"461 311 OFFCURVE",
"461 311 CURVE",
"461 308 OFFCURVE",
"459 303 OFFCURVE",
"463 300 CURVE",
"466 299 OFFCURVE",
"469 299 OFFCURVE",
"473 307 CURVE SMOOTH",
"476 315 OFFCURVE",
"478 323 OFFCURVE",
"479 326 CURVE SMOOTH",
"480 330 OFFCURVE",
"483 335 OFFCURVE",
"483 338 CURVE SMOOTH",
"483 343 OFFCURVE",
"486 346 OFFCURVE",
"487 344 CURVE",
"488 339 OFFCURVE",
"485 334 OFFCURVE",
"483 327 CURVE SMOOTH",
"481 320 OFFCURVE",
"480 307 OFFCURVE",
"481 303 CURVE SMOOTH",
"482 297 OFFCURVE",
"470 276 OFFCURVE",
"468 275 CURVE SMOOTH",
"466 274 OFFCURVE",
"463 266 OFFCURVE",
"453 272 CURVE",
"435 287 LINE",
"434 289 OFFCURVE",
"429 292 OFFCURVE",
"434 284 CURVE SMOOTH",
"449 261 LINE SMOOTH",
"454 253 OFFCURVE",
"466 254 OFFCURVE",
"469 260 CURVE SMOOTH",
"475 272 OFFCURVE",
"480 279 OFFCURVE",
"481 284 CURVE SMOOTH",
"482 289 OFFCURVE",
"490 311 OFFCURVE",
"486 289 CURVE SMOOTH",
"482 268 OFFCURVE",
"474 252 OFFCURVE",
"470 249 CURVE SMOOTH",
"466 246 OFFCURVE",
"458 234 OFFCURVE",
"444 250 CURVE SMOOTH",
"422 274 LINE SMOOTH",
"420 276 OFFCURVE",
"406 289 OFFCURVE",
"418 271 CURVE SMOOTH",
"431 254 OFFCURVE",
"452 215 OFFCURVE",
"471 234 CURVE SMOOTH",
"477 239 LINE SMOOTH",
"479 241 OFFCURVE",
"481 240 OFFCURVE",
"476 234 CURVE SMOOTH",
"472 230 OFFCURVE",
"460 211 OFFCURVE",
"444 222 CURVE SMOOTH",
"426 232 OFFCURVE",
"439 218 OFFCURVE",
"439 218 CURVE",
"440 217 OFFCURVE",
"460 199 OFFCURVE",
"470 215 CURVE SMOOTH",
"480 230 OFFCURVE",
"483 242 OFFCURVE",
"483 244 CURVE SMOOTH",
"488 273 LINE SMOOTH",
"489 279 OFFCURVE",
"490 305 OFFCURVE",
"491 279 CURVE SMOOTH",
"492 253 OFFCURVE",
"489 242 OFFCURVE",
"488 238 CURVE SMOOTH",
"487 233 OFFCURVE",
"477 209 OFFCURVE",
"471 206 CURVE SMOOTH",
"465 203 OFFCURVE",
"454 201 OFFCURVE",
"448 206 CURVE SMOOTH"
);
},
{
closed = 1;
nodes = (
"354 382 OFFCURVE",
"352 388 OFFCURVE",
"352 394 CURVE SMOOTH",
"352 400 OFFCURVE",
"356 408 OFFCURVE",
"360 408 CURVE SMOOTH",
"365 408 OFFCURVE",
"369 400 OFFCURVE",
"369 394 CURVE SMOOTH",
"369 388 OFFCURVE",
"367 382 OFFCURVE",
"362 382 CURVE SMOOTH"
);
},
{
closed = 1;
nodes = (
"347 416 OFFCURVE",
"347 416 OFFCURVE",
"347 417 CURVE",
"347 417 OFFCURVE",
"347 418 OFFCURVE",
"348 418 CURVE SMOOTH",
"349 418 OFFCURVE",
"350 417 OFFCURVE",
"350 417 CURVE",
"350 416 OFFCURVE",
"349 416 OFFCURVE",
"348 416 CURVE SMOOTH"
);
},
{
closed = 1;
nodes = (
"355 416 OFFCURVE",
"354 417 OFFCURVE",
"354 417 CURVE",
"354 418 OFFCURVE",
"355 420 OFFCURVE",
"356 420 CURVE SMOOTH",
"357 420 OFFCURVE",
"357 418 OFFCURVE",
"357 417 CURVE",
"357 417 OFFCURVE",
"357 416 OFFCURVE",
"356 416 CURVE SMOOTH"
);
},
{
closed = 1;
nodes = (
"556 81 OFFCURVE",
"548 82 OFFCURVE",
"548 100 CURVE SMOOTH",
"548 116 LINE SMOOTH",
"548 122 OFFCURVE",
"544 122 OFFCURVE",
"544 116 CURVE SMOOTH",
"544 107 LINE SMOOTH",
"544 104 OFFCURVE",
"540 93 OFFCURVE",
"540 109 CURVE SMOOTH",
"540 138 LINE SMOOTH",
"540 144 OFFCURVE",
"534 151 OFFCURVE",
"534 138 CURVE SMOOTH",
"534 129 LINE SMOOTH",
"534 120 OFFCURVE",
"528 118 OFFCURVE",
"527 136 CURVE SMOOTH",
"527 153 OFFCURVE",
"521 162 OFFCURVE",
"521 170 CURVE SMOOTH",
"519 249 LINE",
"519 292 LINE SMOOTH",
"519 299 OFFCURVE",
"520 314 OFFCURVE",
"540 314 CURVE SMOOTH",
"612 314 LINE SMOOTH",
"628 314 OFFCURVE",
"626 316 OFFCURVE",
"628 287 CURVE SMOOTH",
"632 222 LINE SMOOTH",
"632 214 OFFCURVE",
"628 217 OFFCURVE",
"628 225 CURVE SMOOTH",
"628 232 OFFCURVE",
"625 238 OFFCURVE",
"624 225 CURVE SMOOTH",
"623 199 LINE SMOOTH",
"623 195 OFFCURVE",
"617 191 OFFCURVE",
"616 202 CURVE SMOOTH",
"616 211 OFFCURVE",
"610 222 OFFCURVE",
"610 209 CURVE SMOOTH",
"610 179 LINE SMOOTH",
"610 176 OFFCURVE",
"607 164 OFFCURVE",
"605 179 CURVE SMOOTH",
"604 196 OFFCURVE",
"601 189 OFFCURVE",
"601 182 CURVE SMOOTH",
"598 153 LINE SMOOTH",
"598 149 OFFCURVE",
"592 148 OFFCURVE",
"592 154 CURVE SMOOTH",
"592 161 OFFCURVE",
"589 160 OFFCURVE",
"589 155 CURVE SMOOTH",
"590 140 LINE SMOOTH",
"590 135 OFFCURVE",
"584 122 OFFCURVE",
"583 139 CURVE SMOOTH",
"582 155 OFFCURVE",
"576 154 OFFCURVE",
"575 143 CURVE SMOOTH",
"574 106 LINE SMOOTH",
"573 89 OFFCURVE",
"567 89 OFFCURVE",
"565 112 CURVE SMOOTH",
"563 143 LINE SMOOTH",
"562 154 OFFCURVE",
"557 166 OFFCURVE",
"556 143 CURVE SMOOTH",
"556 97 LINE SMOOTH"
);
},
{
closed = 1;
nodes = (
"361 416 OFFCURVE",
"360 417 OFFCURVE",
"360 417 CURVE",
"360 418 OFFCURVE",
"361 420 OFFCURVE",
"362 420 CURVE SMOOTH",
"363 420 OFFCURVE",
"364 418 OFFCURVE",
"364 417 CURVE",
"364 417 OFFCURVE",
"363 416 OFFCURVE",
"362 416 CURVE SMOOTH"
);
},
{
closed = 1;
nodes = (
"368 416 OFFCURVE",
"367 416 OFFCURVE",
"367 417 CURVE",
"367 417 OFFCURVE",
"368 418 OFFCURVE",
"369 418 CURVE SMOOTH",
"370 418 OFFCURVE",
"371 417 OFFCURVE",
"371 417 CURVE",
"371 416 OFFCURVE",
"370 416 OFFCURVE",
"369 416 CURVE SMOOTH"
);
},
{
closed = 1;
nodes = (
"312 472 LINE",
"311 475 OFFCURVE",
"313 475 OFFCURVE",
"315 475 CURVE SMOOTH",
"316 475 OFFCURVE",
"325 474 OFFCURVE",
"329 473 CURVE SMOOTH",
"333 472 OFFCURVE",
"343 473 OFFCURVE",
"349 474 CURVE SMOOTH",
"356 475 OFFCURVE",
"350 471 OFFCURVE",
"347 471 CURVE SMOOTH",
"327 471 LINE SMOOTH",
"324 471 OFFCURVE",
"320 466 OFFCURVE",
"320 465 CURVE SMOOTH",
"320 464 OFFCURVE",
"331 448 OFFCURVE",
"333 447 CURVE SMOOTH",
"335 446 OFFCURVE",
"335 448 OFFCURVE",
"338 448 CURVE SMOOTH",
"342 448 OFFCURVE",
"339 446 OFFCURVE",
"339 444 CURVE",
"331 444 LINE"
);
},
{
closed = 1;
nodes = (
"320 315 OFFCURVE",
"312 325 OFFCURVE",
"312 326 CURVE",
"311 327 OFFCURVE",
"303 325 OFFCURVE",
"294 326 CURVE SMOOTH",
"289 327 OFFCURVE",
"293 362 OFFCURVE",
"297 371 CURVE",
"298 378 OFFCURVE",
"301 385 OFFCURVE",
"307 400 CURVE SMOOTH",
"312 416 OFFCURVE",
"329 433 OFFCURVE",
"329 435 CURVE",
"329 435 OFFCURVE",
"335 432 OFFCURVE",
"337 433 CURVE",
"338 435 OFFCURVE",
"340 440 OFFCURVE",
"345 444 CURVE",
"349 452 OFFCURVE",
"361 453 OFFCURVE",
"369 457 CURVE",
"374 453 LINE",
"380 453 LINE SMOOTH",
"382 453 OFFCURVE",
"387 463 OFFCURVE",
"388 463 CURVE SMOOTH",
"390 463 OFFCURVE",
"406 468 OFFCURVE",
"426 468 CURVE SMOOTH",
"446 468 OFFCURVE",
"473 463 OFFCURVE",
"503 440 CURVE SMOOTH",
"530 417 OFFCURVE",
"540 368 OFFCURVE",
"539 334 CURVE",
"535 334 LINE",
"535 335 OFFCURVE",
"534 343 OFFCURVE",
"531 348 CURVE",
"530 352 OFFCURVE",
"522 369 OFFCURVE",
"519 372 CURVE SMOOTH",
"511 379 OFFCURVE",
"504 392 OFFCURVE",
"509 397 CURVE",
"514 400 OFFCURVE",
"518 413 OFFCURVE",
"516 416 CURVE SMOOTH",
"515 418 OFFCURVE",
"503 436 OFFCURVE",
"500 439 CURVE SMOOTH",
"499 440 OFFCURVE",
"494 439 OFFCURVE",
"492 437 CURVE",
"489 436 OFFCURVE",
"481 431 OFFCURVE",
"479 427 CURVE SMOOTH",
"477 424 OFFCURVE",
"473 414 OFFCURVE",
"471 414 CURVE SMOOTH",
"470 414 LINE",
"474 403 LINE SMOOTH",
"475 401 OFFCURVE",
"472 400 OFFCURVE",
"471 402 CURVE SMOOTH",
"467 414 LINE",
"463 414 LINE",
"465 409 LINE",
"466 408 OFFCURVE",
"468 403 OFFCURVE",
"468 401 CURVE SMOOTH",
"468 400 OFFCURVE",
"466 400 OFFCURVE",
"466 401 CURVE",
"459 414 LINE",
"457 414 LINE SMOOTH",
"454 414 OFFCURVE",
"457 410 OFFCURVE",
"457 408 CURVE",
"458 405 OFFCURVE",
"460 399 OFFCURVE",
"460 394 CURVE SMOOTH",
"460 390 OFFCURVE",
"469 395 OFFCURVE",
"470 397 CURVE SMOOTH",
"471 398 OFFCURVE",
"490 397 OFFCURVE",
"490 394 CURVE SMOOTH",
"490 392 OFFCURVE",
"486 383 OFFCURVE",
"482 379 CURVE SMOOTH",
"478 374 OFFCURVE",
"469 373 OFFCURVE",
"467 375 CURVE",
"466 377 OFFCURVE",
"464 384 OFFCURVE",
"462 386 CURVE SMOOTH",
"460 388 OFFCURVE",
"438 386 OFFCURVE",
"435 388 CURVE",
"432 389 OFFCURVE",
"431 402 OFFCURVE",
"432 405 CURVE SMOOTH",
"433 408 OFFCURVE",
"442 417 OFFCURVE",
"446 420 CURVE",
"448 424 OFFCURVE",
"448 436 OFFCURVE",
"445 440 CURVE",
"439 444 OFFCURVE",
"426 446 OFFCURVE",
"418 441 CURVE",
"413 439 OFFCURVE",
"410 433 OFFCURVE",
"410 431 CURVE SMOOTH",
"409 427 OFFCURVE",
"398 416 OFFCURVE",
"395 413 CURVE SMOOTH",
"394 412 OFFCURVE",
"384 389 OFFCURVE",
"383 388 CURVE SMOOTH",
"382 386 OFFCURVE",
"380 386 OFFCURVE",
"378 386 CURVE SMOOTH",
"375 386 OFFCURVE",
"374 388 OFFCURVE",
"374 389 CURVE SMOOTH",
"374 391 OFFCURVE",
"371 409 OFFCURVE",
"372 412 CURVE",
"373 413 OFFCURVE",
"378 420 OFFCURVE",
"375 422 CURVE",
"374 424 OFFCURVE",
"343 424 OFFCURVE",
"342 422 CURVE SMOOTH",
"341 421 OFFCURVE",
"343 414 OFFCURVE",
"344 412 CURVE SMOOTH",
"345 410 OFFCURVE",
"347 409 OFFCURVE",
"347 408 CURVE SMOOTH",
"346 397 LINE SMOOTH",
"346 393 OFFCURVE",
"348 385 OFFCURVE",
"347 382 CURVE",
"347 380 OFFCURVE",
"340 368 OFFCURVE",
"337 364 CURVE SMOOTH",
"335 361 OFFCURVE",
"332 347 OFFCURVE",
"329 338 CURVE",
"329 330 OFFCURVE",
"325 315 OFFCURVE",
"323 315 CURVE SMOOTH"
);
},
{
closed = 1;
nodes = (
"492 190 OFFCURVE",
"493 198 OFFCURVE",
"496 198 CURVE",
"500 201 OFFCURVE",
"503 213 OFFCURVE",
"503 218 CURVE SMOOTH",
"503 276 LINE",
"501 289 OFFCURVE",
"503 314 OFFCURVE",
"504 316 CURVE",
"507 319 OFFCURVE",
"507 319 OFFCURVE",
"505 319 CURVE SMOOTH",
"503 319 OFFCURVE",
"499 315 OFFCURVE",
"499 308 CURVE SMOOTH",
"496 243 LINE SMOOTH",
"496 238 OFFCURVE",
"496 230 OFFCURVE",
"489 210 CURVE SMOOTH",
"481 191 OFFCURVE",
"482 207 OFFCURVE",
"482 210 CURVE SMOOTH",
"482 211 OFFCURVE",
"483 214 OFFCURVE",
"489 226 CURVE SMOOTH",
"495 239 OFFCURVE",
"494 249 OFFCURVE",
"494 264 CURVE SMOOTH",
"494 279 OFFCURVE",
"495 310 OFFCURVE",
"496 319 CURVE SMOOTH",
"497 327 OFFCURVE",
"535 327 OFFCURVE",
"546 327 CURVE SMOOTH",
"555 327 OFFCURVE",
"594 330 OFFCURVE",
"628 329 CURVE SMOOTH",
"661 327 OFFCURVE",
"637 319 OFFCURVE",
"632 319 CURVE SMOOTH",
"543 319 LINE",
"528 316 LINE",
"523 316 OFFCURVE",
"515 312 OFFCURVE",
"514 308 CURVE",
"511 305 OFFCURVE",
"515 244 OFFCURVE",
"515 203 CURVE SMOOTH",
"515 162 OFFCURVE",
"512 190 OFFCURVE",
"512 195 CURVE SMOOTH",
"512 199 OFFCURVE",
"511 246 OFFCURVE",
"509 258 CURVE SMOOTH",
"508 269 OFFCURVE",
"509 299 OFFCURVE",
"509 308 CURVE SMOOTH",
"509 318 OFFCURVE",
"519 319 OFFCURVE",
"524 319 CURVE",
"539 322 OFFCURVE",
"543 323 OFFCURVE",
"531 323 CURVE SMOOTH",
"530 323 OFFCURVE",
"511 319 OFFCURVE",
"508 318 CURVE SMOOTH",
"504 316 OFFCURVE",
"503 293 OFFCURVE",
"503 287 CURVE SMOOTH",
"503 281 OFFCURVE",
"507 226 OFFCURVE",
"507 218 CURVE SMOOTH",
"507 210 OFFCURVE",
"504 198 OFFCURVE",
"499 194 CURVE SMOOTH"
);
},
{
closed = 1;
nodes = (
"373 457 OFFCURVE",
"372 463 OFFCURVE",
"368 468 CURVE SMOOTH",
"366 471 OFFCURVE",
"368 472 OFFCURVE",
"371 472 CURVE SMOOTH",
"384 472 LINE SMOOTH",
"386 472 OFFCURVE",
"387 471 OFFCURVE",
"387 469 CURVE",
"386 469 LINE SMOOTH",
"384 469 OFFCURVE",
"384 467 OFFCURVE",
"386 467 CURVE SMOOTH",
"387 467 LINE",
"387 464 OFFCURVE",
"382 457 OFFCURVE",
"378 457 CURVE SMOOTH"
);
},
{
closed = 1;
nodes = (
"379 465 LINE SMOOTH",
"382 465 OFFCURVE",
"382 467 OFFCURVE",
"379 467 CURVE SMOOTH",
"378 467 LINE SMOOTH",
"375 467 OFFCURVE",
"375 465 OFFCURVE",
"378 465 CURVE SMOOTH"
);
},
{
closed = 1;
nodes = (
"485 308 OFFCURVE",
"485 318 OFFCURVE",
"486 323 CURVE SMOOTH",
"487 327 OFFCURVE",
"495 338 OFFCURVE",
"499 339 CURVE",
"503 343 OFFCURVE",
"511 343 OFFCURVE",
"511 343 CURVE",
"519 343 OFFCURVE",
"514 347 OFFCURVE",
"501 347 CURVE SMOOTH",
"495 347 OFFCURVE",
"494 354 OFFCURVE",
"494 359 CURVE SMOOTH",
"494 360 OFFCURVE",
"490 374 OFFCURVE",
"493 375 CURVE SMOOTH",
"500 378 OFFCURVE",
"511 365 OFFCURVE",
"515 356 CURVE SMOOTH",
"519 347 OFFCURVE",
"523 339 OFFCURVE",
"526 337 CURVE SMOOTH",
"528 335 OFFCURVE",
"530 331 OFFCURVE",
"523 331 CURVE SMOOTH",
"518 331 OFFCURVE",
"501 331 OFFCURVE",
"497 329 CURVE SMOOTH",
"494 327 OFFCURVE",
"489 320 OFFCURVE",
"489 316 CURVE SMOOTH",
"489 314 OFFCURVE",
"486 311 OFFCURVE",
"487 308 CURVE",
"488 307 OFFCURVE",
"486 303 OFFCURVE",
"485 307 CURVE SMOOTH"
);
},
{
closed = 1;
nodes = (
"390 469 OFFCURVE",
"390 472 OFFCURVE",
"391 480 CURVE SMOOTH",
"392 488 OFFCURVE",
"383 489 OFFCURVE",
"375 489 CURVE SMOOTH",
"374 489 OFFCURVE",
"367 490 OFFCURVE",
"378 490 CURVE SMOOTH",
"380 490 OFFCURVE",
"384 489 OFFCURVE",
"387 488 CURVE SMOOTH",
"394 485 OFFCURVE",
"394 480 OFFCURVE",
"392 474 CURVE SMOOTH"
);
},
{
closed = 0;
nodes = (
"467 414 LINE",
"467 414 OFFCURVE",
"467 414 OFFCURVE",
"467 414 CURVE SMOOTH"
);
},
{
closed = 1;
nodes = (
"476 416 LINE SMOOTH",
"476 417 OFFCURVE",
"479 417 OFFCURVE",
"479 416 CURVE SMOOTH",
"479 403 LINE SMOOTH",
"479 401 OFFCURVE",
"476 401 OFFCURVE",
"476 403 CURVE SMOOTH"
);
},
{
closed = 1;
nodes = (
"485 400 OFFCURVE",
"481 400 OFFCURVE",
"482 402 CURVE SMOOTH",
"486 416 LINE",
"487 417 OFFCURVE",
"490 416 OFFCURVE",
"489 414 CURVE SMOOTH",
"485 401 LINE"
);
},
{
closed = 1;
nodes = (
"92 278 OFFCURVE",
"101 311 OFFCURVE",
"115 322 CURVE SMOOTH",
"119 325 OFFCURVE",
"120 327 OFFCURVE",
"119 329 CURVE",
"119 331 OFFCURVE",
"115 327 OFFCURVE",
"114 327 CURVE",
"102 316 OFFCURVE",
"88 280 OFFCURVE",
"83 264 CURVE",
"83 264 OFFCURVE",
"82 264 OFFCURVE",
"82 265 CURVE SMOOTH",
"86 282 OFFCURVE",
"99 327 OFFCURVE",
"113 338 CURVE SMOOTH",
"118 343 OFFCURVE",
"119 344 OFFCURVE",
"118 346 CURVE SMOOTH",
"117 348 OFFCURVE",
"113 345 OFFCURVE",
"112 344 CURVE SMOOTH",
"101 332 OFFCURVE",
"83 286 OFFCURVE",
"78 268 CURVE",
"77 268 OFFCURVE",
"76 269 OFFCURVE",
"76 270 CURVE",
"75 270 OFFCURVE",
"75 271 OFFCURVE",
"75 271 CURVE",
"85 299 OFFCURVE",
"101 341 OFFCURVE",
"111 352 CURVE",
"116 356 OFFCURVE",
"118 357 OFFCURVE",
"117 359 CURVE SMOOTH",
"116 361 OFFCURVE",
"112 358 OFFCURVE",
"111 357 CURVE SMOOTH",
"101 348 OFFCURVE",
"83 306 OFFCURVE",
"73 280 CURVE",
"73 282 OFFCURVE",
"72 284 OFFCURVE",
"72 286 CURVE",
"82 313 OFFCURVE",
"98 352 OFFCURVE",
"109 362 CURVE SMOOTH",
"113 366 OFFCURVE",
"115 367 OFFCURVE",
"114 369 CURVE SMOOTH",
"113 371 OFFCURVE",
"110 368 OFFCURVE",
"109 367 CURVE SMOOTH",
"99 358 OFFCURVE",
"80 321 OFFCURVE",
"70 296 CURVE",
"70 297 LINE",
"79 323 OFFCURVE",
"97 365 OFFCURVE",
"109 375 CURVE",
"113 380 OFFCURVE",
"115 380 OFFCURVE",
"114 382 CURVE SMOOTH",
"113 384 OFFCURVE",
"110 381 OFFCURVE",
"109 380 CURVE SMOOTH",
"98 371 OFFCURVE",
"77 331 OFFCURVE",
"69 308 CURVE",
"69 310 LINE",
"77 335 OFFCURVE",
"95 377 OFFCURVE",
"107 388 CURVE SMOOTH",
"111 392 OFFCURVE",
"113 393 OFFCURVE",
"112 395 CURVE SMOOTH",
"111 398 OFFCURVE",
"107 394 OFFCURVE",
"107 393 CURVE",
"96 383 OFFCURVE",
"75 344 OFFCURVE",
"67 321 CURVE",
"67 323 LINE",
"75 346 OFFCURVE",
"95 390 OFFCURVE",
"107 402 CURVE SMOOTH",
"111 407 OFFCURVE",
"113 408 OFFCURVE",
"112 409 CURVE",
"111 412 OFFCURVE",
"107 408 OFFCURVE",
"107 408 CURVE",
"95 396 OFFCURVE",
"73 357 OFFCURVE",
"66 336 CURVE",
"66 339 LINE",
"73 360 OFFCURVE",
"94 405 OFFCURVE",
"107 417 CURVE SMOOTH",
"111 421 OFFCURVE",
"113 422 OFFCURVE",
"112 424 CURVE SMOOTH",
"111 426 OFFCURVE",
"107 424 OFFCURVE",
"107 422 CURVE",
"94 413 OFFCURVE",
"71 372 OFFCURVE",
"66 352 CURVE",
"66 356 LINE",
"72 373 OFFCURVE",
"92 418 OFFCURVE",
"107 428 CURVE",
"111 432 OFFCURVE",
"113 435 OFFCURVE",
"112 436 CURVE SMOOTH",
"111 437 OFFCURVE",
"107 435 OFFCURVE",
"107 435 CURVE",
"95 423 OFFCURVE",
"72 388 OFFCURVE",
"66 370 CURVE",
"67 377 LINE",
"73 392 OFFCURVE",
"91 431 OFFCURVE",
"107 441 CURVE SMOOTH",
"111 444 OFFCURVE",
"113 447 OFFCURVE",
"112 448 CURVE",
"111 452 OFFCURVE",
"107 448 OFFCURVE",
"107 447 CURVE",
"94 438 OFFCURVE",
"75 406 OFFCURVE",
"68 392 CURVE",
"68 394 OFFCURVE",
"68 396 OFFCURVE",
"69 397 CURVE",
"77 414 OFFCURVE",
"95 444 OFFCURVE",
"107 455 CURVE",
"111 460 OFFCURVE",
"113 461 OFFCURVE",
"112 463 CURVE SMOOTH",
"111 464 OFFCURVE",
"107 461 OFFCURVE",
"107 461 CURVE",
"96 453 OFFCURVE",
"78 423 OFFCURVE",
"70 408 CURVE",
"71 411 OFFCURVE",
"71 413 OFFCURVE",
"71 416 CURVE",
"81 432 OFFCURVE",
"96 456 OFFCURVE",
"107 467 CURVE SMOOTH",
"111 472 OFFCURVE",
"113 472 OFFCURVE",
"112 474 CURVE SMOOTH",
"111 476 OFFCURVE",
"107 473 OFFCURVE",
"107 472 CURVE",
"97 465 OFFCURVE",
"82 441 OFFCURVE",
"74 429 CURVE",
"77 440 LINE",
"86 454 OFFCURVE",
"97 470 OFFCURVE",
"107 479 CURVE SMOOTH",
"111 483 OFFCURVE",
"113 484 OFFCURVE",
"112 486 CURVE SMOOTH",
"111 488 OFFCURVE",
"107 485 OFFCURVE",
"107 484 CURVE",
"100 479 OFFCURVE",
"89 464 OFFCURVE",
"80 453 CURVE",
"83 460 LINE",
"90 471 OFFCURVE",
"98 481 OFFCURVE",
"107 489 CURVE",
"111 494 OFFCURVE",
"113 495 OFFCURVE",
"112 497 CURVE SMOOTH",
"111 498 OFFCURVE",
"107 496 OFFCURVE",
"107 495 CURVE",
"99 490 OFFCURVE",
"93 483 OFFCURVE",
"87 474 CURVE",
"92 485 LINE SMOOTH",
"94 489 OFFCURVE",
"98 492 OFFCURVE",
"102 497 CURVE",
"107 501 OFFCURVE",
"114 508 OFFCURVE",
"113 510 CURVE SMOOTH",
"112 511 OFFCURVE",
"109 509 OFFCURVE",
"107 508 CURVE",
"103 503 OFFCURVE",
"100 499 OFFCURVE",
"96 495 CURVE",
"98 500 OFFCURVE",
"100 505 OFFCURVE",
"103 509 CURVE",
"111 515 LINE",
"115 517 OFFCURVE",
"118 521 OFFCURVE",
"117 522 CURVE SMOOTH",
"116 524 OFFCURVE",
"112 521 OFFCURVE",
"111 521 CURVE",
"107 518 LINE",
"167 628 OFFCURVE",
"285 699 OFFCURVE",
"411 699 CURVE SMOOTH",
"593 699 OFFCURVE",
"766 539 OFFCURVE",
"766 351 CURVE SMOOTH",
"766 343 OFFCURVE",
"766 334 OFFCURVE",
"765 326 CURVE",
"762 331 LINE SMOOTH",
"760 334 OFFCURVE",
"758 334 OFFCURVE",
"752 334 CURVE SMOOTH",
"747 334 OFFCURVE",
"741 330 OFFCURVE",
"741 327 CURVE SMOOTH",
"741 324 OFFCURVE",
"738 319 OFFCURVE",
"734 318 CURVE SMOOTH",
"727 316 OFFCURVE",
"719 300 OFFCURVE",
"719 293 CURVE SMOOTH",
"719 285 OFFCURVE",
"713 289 OFFCURVE",
"712 291 CURVE SMOOTH",
"711 292 OFFCURVE",
"707 304 OFFCURVE",
"711 311 CURVE SMOOTH",
"715 318 OFFCURVE",
"718 319 OFFCURVE",
"700 334 CURVE",
"695 335 OFFCURVE",
"692 335 OFFCURVE",
"690 331 CURVE",
"667 299 LINE",
"657 299 LINE SMOOTH",
"653 299 OFFCURVE",
"649 284 OFFCURVE",
"644 279 CURVE",
"644 307 LINE",
"652 308 OFFCURVE",
"657 320 OFFCURVE",
"657 326 CURVE SMOOTH",
"656 331 OFFCURVE",
"661 332 OFFCURVE",
"667 334 CURVE SMOOTH",
"672 335 OFFCURVE",
"672 335 OFFCURVE",
"668 335 CURVE SMOOTH",
"551 335 LINE SMOOTH",
"549 335 OFFCURVE",
"548 343 OFFCURVE",
"548 352 CURVE SMOOTH",
"548 361 OFFCURVE",
"547 377 OFFCURVE",
"544 397 CURVE SMOOTH",
"540 416 OFFCURVE",
"520 455 OFFCURVE",
"503 468 CURVE SMOOTH",
"489 478 OFFCURVE",
"496 481 OFFCURVE",
"499 485 CURVE SMOOTH",
"503 490 OFFCURVE",
"534 497 OFFCURVE",
"552 501 CURVE SMOOTH",
"570 507 OFFCURVE",
"568 510 OFFCURVE",
"565 510 CURVE SMOOTH",
"538 511 LINE SMOOTH",
"522 512 OFFCURVE",
"499 509 OFFCURVE",
"493 507 CURVE SMOOTH",
"487 506 OFFCURVE",
"461 499 OFFCURVE",
"457 502 CURVE",
"454 506 OFFCURVE",
"446 507 OFFCURVE",
"442 507 CURVE SMOOTH",
"439 507 OFFCURVE",
"422 497 OFFCURVE",
"414 494 CURVE SMOOTH",
"407 491 OFFCURVE",
"378 492 OFFCURVE",
"374 491 CURVE SMOOTH",
"370 490 OFFCURVE",
"366 485 OFFCURVE",
"364 484 CURVE SMOOTH",
"361 483 OFFCURVE",
"356 483 OFFCURVE",
"355 485 CURVE SMOOTH",
"354 487 OFFCURVE",
"346 489 OFFCURVE",
"341 489 CURVE SMOOTH",
"335 489 OFFCURVE",
"308 486 OFFCURVE",
"301 485 CURVE SMOOTH",
"294 484 OFFCURVE",
"293 478 OFFCURVE",
"293 475 CURVE",
"296 470 OFFCURVE",
"305 459 OFFCURVE",
"311 455 CURVE SMOOTH",
"316 452 OFFCURVE",
"315 452 OFFCURVE",
"312 448 CURVE",
"297 433 OFFCURVE",
"293 428 OFFCURVE",
"283 401 CURVE",
"279 399 OFFCURVE",
"262 384 OFFCURVE",
"260 371 CURVE SMOOTH",
"258 359 OFFCURVE",
"243 335 OFFCURVE",
"240 329 CURVE SMOOTH",
"238 323 OFFCURVE",
"238 329 OFFCURVE",
"238 330 CURVE SMOOTH",
"238 331 OFFCURVE",
"245 343 OFFCURVE",
"248 348 CURVE",
"234 357 LINE SMOOTH",
"230 359 OFFCURVE",
"225 359 OFFCURVE",
"220 355 CURVE SMOOTH",
"176 325 LINE",
"173 325 OFFCURVE",
"161 326 OFFCURVE",
"161 324 CURVE SMOOTH",
"161 323 OFFCURVE",
"161 316 OFFCURVE",
"171 316 CURVE SMOOTH",
"175 316 OFFCURVE",
"175 303 OFFCURVE",
"172 301 CURVE SMOOTH",
"169 299 OFFCURVE",
"162 298 OFFCURVE",
"159 296 CURVE",
"155 295 OFFCURVE",
"153 286 OFFCURVE",
"144 278 CURVE SMOOTH",
"135 270 OFFCURVE",
"138 278 OFFCURVE",
"139 280 CURVE SMOOTH",
"140 283 OFFCURVE",
"144 289 OFFCURVE",
"147 295 CURVE SMOOTH",
"149 301 OFFCURVE",
"137 305 OFFCURVE",
"132 307 CURVE",
"128 307 OFFCURVE",
"120 298 OFFCURVE",
"115 293 CURVE SMOOTH",
"99 276 LINE",
"102 289 OFFCURVE",
"107 302 OFFCURVE",
"116 310 CURVE SMOOTH",
"120 314 OFFCURVE",
"121 315 OFFCURVE",
"120 316 CURVE",
"119 319 OFFCURVE",
"116 316 OFFCURVE",
"115 315 CURVE SMOOTH",
"105 305 OFFCURVE",
"97 282 OFFCURVE",
"92 266 CURVE SMOOTH",
"91 264 OFFCURVE",
"89 262 OFFCURVE",
"87 262 CURVE"
);
},
{
closed = 1;
nodes = (
"490 398 OFFCURVE",
"487 400 OFFCURVE",
"488 401 CURVE",
"494 412 LINE SMOOTH",
"495 414 OFFCURVE",
"497 412 OFFCURVE",
"496 412 CURVE",
"491 400 LINE SMOOTH"
);
},
{
closed = 1;
nodes = (
"656 194 OFFCURVE",
"653 198 OFFCURVE",
"646 225 CURVE SMOOTH",
"644 233 OFFCURVE",
"641 241 OFFCURVE",
"641 243 CURVE",
"646 250 OFFCURVE",
"640 262 OFFCURVE",
"653 262 CURVE SMOOTH",
"665 262 OFFCURVE",
"668 261 OFFCURVE",
"671 262 CURVE SMOOTH",
"677 263 LINE",
"676 262 OFFCURVE",
"676 263 OFFCURVE",
"673 261 CURVE SMOOTH",
"670 258 OFFCURVE",
"659 243 OFFCURVE",
"657 230 CURVE",
"653 218 OFFCURVE",
"655 213 OFFCURVE",
"656 210 CURVE SMOOTH",
"658 199 LINE",
"660 210 OFFCURVE",
"661 222 OFFCURVE",
"665 232 CURVE SMOOTH",
"668 242 OFFCURVE",
"677 258 OFFCURVE",
"681 260 CURVE SMOOTH",
"685 262 OFFCURVE",
"687 263 OFFCURVE",
"688 269 CURVE SMOOTH",
"689 289 LINE SMOOTH",
"689 297 OFFCURVE",
"704 299 OFFCURVE",
"708 289 CURVE SMOOTH",
"712 278 OFFCURVE",
"708 274 OFFCURVE",
"707 271 CURVE",
"706 270 OFFCURVE",
"706 264 OFFCURVE",
"704 265 CURVE SMOOTH",
"701 267 OFFCURVE",
"691 267 OFFCURVE",
"691 263 CURVE SMOOTH",
"691 262 OFFCURVE",
"692 260 OFFCURVE",
"693 260 CURVE SMOOTH",
"695 260 OFFCURVE",
"701 259 OFFCURVE",
"704 261 CURVE",
"708 262 OFFCURVE",
"711 262 OFFCURVE",
"713 261 CURVE SMOOTH",
"716 259 OFFCURVE",
"721 254 OFFCURVE",
"723 253 CURVE",
"725 253 OFFCURVE",
"730 255 OFFCURVE",
"731 259 CURVE SMOOTH",
"731 262 OFFCURVE",
"730 266 OFFCURVE",
"731 268 CURVE",
"733 270 OFFCURVE",
"749 270 OFFCURVE",
"750 265 CURVE",
"754 260 OFFCURVE",
"749 250 OFFCURVE",
"749 246 CURVE",
"746 242 OFFCURVE",
"745 241 OFFCURVE",
"742 241 CURVE SMOOTH",
"740 241 OFFCURVE",
"735 242 OFFCURVE",
"734 244 CURVE SMOOTH",
"733 246 OFFCURVE",
"729 246 OFFCURVE",
"725 245 CURVE SMOOTH",
"721 244 OFFCURVE",
"716 242 OFFCURVE",
"715 241 CURVE SMOOTH",
"714 239 OFFCURVE",
"710 236 OFFCURVE",
"710 234 CURVE SMOOTH",
"710 232 OFFCURVE",
"713 234 OFFCURVE",
"713 234 CURVE",
"714 234 OFFCURVE",
"716 234 OFFCURVE",
"713 230 CURVE SMOOTH",
"710 226 OFFCURVE",
"706 222 OFFCURVE",
"706 221 CURVE SMOOTH",
"706 220 OFFCURVE",
"707 218 OFFCURVE",
"711 222 CURVE",
"713 226 OFFCURVE",
"718 233 OFFCURVE",
"718 234 CURVE SMOOTH",
"718 237 OFFCURVE",
"721 240 OFFCURVE",
"721 234 CURVE SMOOTH",
"720 228 OFFCURVE",
"721 215 OFFCURVE",
"720 214 CURVE",
"719 214 OFFCURVE",
"716 210 OFFCURVE",
"716 210 CURVE",
"713 207 OFFCURVE",
"718 206 OFFCURVE",
"721 209 CURVE SMOOTH",
"723 211 OFFCURVE",
"726 218 OFFCURVE",
"726 221 CURVE SMOOTH",
"727 236 LINE",
"731 234 OFFCURVE",
"738 236 OFFCURVE",
"740 234 CURVE",
"741 232 OFFCURVE",
"745 229 OFFCURVE",
"745 226 CURVE SMOOTH",
"745 225 LINE",
"739 209 LINE",
"737 207 OFFCURVE",
"736 205 OFFCURVE",
"733 202 CURVE SMOOTH",
"729 199 OFFCURVE",
"721 190 OFFCURVE",
"719 186 CURVE SMOOTH",
"711 171 LINE",
"707 166 OFFCURVE",
"700 170 OFFCURVE",
"703 175 CURVE",
"710 192 LINE",
"696 194 LINE",
"692 186 OFFCURVE",
"686 176 OFFCURVE",
"684 170 CURVE",
"683 169 OFFCURVE",
"676 147 OFFCURVE",
"667 170 CURVE SMOOTH"
);
},
{
closed = 1;
nodes = (
"397 486 OFFCURVE",
"402 487 OFFCURVE",
"402 488 CURVE",
"402 487 OFFCURVE",
"414 486 OFFCURVE",
"417 487 CURVE",
"418 488 OFFCURVE",
"433 489 OFFCURVE",
"434 489 CURVE SMOOTH",
"437 489 OFFCURVE",
"442 488 OFFCURVE",
"446 488 CURVE",
"460 491 LINE",
"491 492 LINE SMOOTH",
"499 492 OFFCURVE",
"492 490 OFFCURVE",
"491 490 CURVE SMOOTH",
"457 489 LINE SMOOTH",
"453 489 OFFCURVE",
"450 487 OFFCURVE",
"446 486 CURVE SMOOTH",
"441 485 OFFCURVE",
"437 487 OFFCURVE",
"433 487 CURVE SMOOTH",
"429 487 OFFCURVE",
"422 487 OFFCURVE",
"420 486 CURVE SMOOTH",
"418 485 OFFCURVE",
"407 484 OFFCURVE",
"402 485 CURVE SMOOTH"
);
},
{
closed = 1;
nodes = (
"664 267 OFFCURVE",
"661 266 OFFCURVE",
"658 269 CURVE SMOOTH",
"657 270 OFFCURVE",
"657 271 OFFCURVE",
"656 269 CURVE",
"653 270 LINE",
"656 276 OFFCURVE",
"657 285 OFFCURVE",
"660 289 CURVE",
"664 291 OFFCURVE",
"672 297 OFFCURVE",
"672 289 CURVE SMOOTH",
"672 279 OFFCURVE",
"671 267 OFFCURVE",
"667 267 CURVE SMOOTH"
);
}
);
width = 830;
}
);
},
{
glyphname = cranach_1;
lastChange = "2020-01-30 12:51:20 +0000";
layers = (
{
layerId = "310A0878-FAF0-4FA6-A778-54E96A53E047";
paths = (
{
closed = 1;
nodes = (
"474 11 OFFCURVE",
"638 161 OFFCURVE",
"638 353 CURVE SMOOTH",
"638 555 OFFCURVE",
"495 691 OFFCURVE",
"347 691 CURVE SMOOTH",
"219 691 OFFCURVE",
"43 574 OFFCURVE",
"50 344 CURVE SMOOTH",
"58 80 OFFCURVE",
"243 11 OFFCURVE",
"339 11 CURVE SMOOTH"
);
},
{
closed = 1;
nodes = (
"170 134 OFFCURVE",
"164 136 OFFCURVE",
"155 136 CURVE",
"158 144 OFFCURVE",
"159 150 OFFCURVE",
"158 158 CURVE",
"166 153 OFFCURVE",
"170 151 OFFCURVE",
"177 151 CURVE",
"175 143 OFFCURVE",
"175 138 OFFCURVE",
"176 131 CURVE"
);
},
{
closed = 1;
nodes = (
"171 78 OFFCURVE",
"167 86 OFFCURVE",
"169 89 CURVE SMOOTH",
"181 107 OFFCURVE",
"196 124 OFFCURVE",
"215 144 CURVE",
"224 142 OFFCURVE",
"248 125 OFFCURVE",
"241 107 CURVE SMOOTH",
"238 99 OFFCURVE",
"216 94 OFFCURVE",
"203 106 CURVE SMOOTH",
"202 107 OFFCURVE",
"206 108 OFFCURVE",
"206 109 CURVE",
"210 105 OFFCURVE",
"230 99 OFFCURVE",
"234 111 CURVE SMOOTH",
"236 117 OFFCURVE",
"233 129 OFFCURVE",
"217 135 CURVE",
"202 116 OFFCURVE",
"187 102 OFFCURVE",
"173 81 CURVE SMOOTH"
);
},
{
closed = 1;
nodes = (
"105 156 OFFCURVE",
"103 164 OFFCURVE",
"105 166 CURVE SMOOTH",
"114 175 OFFCURVE",
"127 178 OFFCURVE",
"135 186 CURVE SMOOTH",
"136 187 OFFCURVE",
"119 209 OFFCURVE",
"116 214 CURVE SMOOTH",
"114 217 OFFCURVE",
"94 204 OFFCURVE",
"86 199 CURVE SMOOTH",
"83 197 OFFCURVE",
"81 200 OFFCURVE",
"81 204 CURVE SMOOTH",
"81 207 OFFCURVE",
"127 232 OFFCURVE",
"149 243 CURVE SMOOTH",
"151 244 OFFCURVE",
"155 236 OFFCURVE",
"153 235 CURVE SMOOTH",
"144 230 OFFCURVE",
"125 223 OFFCURVE",
"125 219 CURVE SMOOTH",
"125 217 OFFCURVE",
"139 190 OFFCURVE",
"142 191 CURVE SMOOTH",
"150 194 OFFCURVE",
"157 201 OFFCURVE",
"166 204 CURVE SMOOTH",
"169 205 OFFCURVE",
"176 198 OFFCURVE",
"173 196 CURVE SMOOTH",
"151 181 OFFCURVE",
"127 171 OFFCURVE",
"107 158 CURVE"
);
},
{
closed = 1;
nodes = (
"293 23 OFFCURVE",
"283 32 OFFCURVE",
"278 42 CURVE SMOOTH",
"271 55 OFFCURVE",
"267 68 OFFCURVE",
"264 77 CURVE SMOOTH",
"263 80 OFFCURVE",
"285 76 OFFCURVE",
"285 89 CURVE SMOOTH",
"285 95 OFFCURVE",
"275 102 OFFCURVE",
"266 103 CURVE",
"260 80 OFFCURVE",
"251 65 OFFCURVE",
"241 42 CURVE SMOOTH",
"240 39 OFFCURVE",
"232 48 OFFCURVE",
"233 51 CURVE SMOOTH",
"243 72 OFFCURVE",
"251 87 OFFCURVE",
"261 112 CURVE",
"270 112 OFFCURVE",
"291 100 OFFCURVE",
"293 85 CURVE SMOOTH",
"294 76 OFFCURVE",
"278 72 OFFCURVE",
"278 71 CURVE SMOOTH",
"278 46 OFFCURVE",
"298 36 OFFCURVE",
"308 26 CURVE SMOOTH",
"309 25 OFFCURVE",
"309 23 OFFCURVE",
"307 23 CURVE SMOOTH"
);
},
{
closed = 1;
nodes = (
"73 238 OFFCURVE",
"70 239 OFFCURVE",
"68 253 CURVE SMOOTH",
"67 262 OFFCURVE",
"70 274 OFFCURVE",
"76 281 CURVE SMOOTH",
"86 292 OFFCURVE",
"94 298 OFFCURVE",
"106 297 CURVE SMOOTH",
"125 295 OFFCURVE",
"133 287 OFFCURVE",
"138 281 CURVE SMOOTH",
"144 274 OFFCURVE",
"143 269 OFFCURVE",
"143 249 CURVE",
"133 247 LINE",
"134 261 OFFCURVE",
"138 258 OFFCURVE",
"131 277 CURVE SMOOTH",
"128 285 OFFCURVE",
"114 286 OFFCURVE",
"106 286 CURVE SMOOTH",
"101 286 OFFCURVE",
"86 283 OFFCURVE",
"81 275 CURVE SMOOTH",
"76 267 OFFCURVE",
"74 258 OFFCURVE",
"75 250 CURVE SMOOTH",
"76 239 OFFCURVE",
"79 240 OFFCURVE",
"89 232 CURVE",
"87 228 LINE"
);
},
{
closed = 1;
nodes = (
"327 29 OFFCURVE",
"325 94 OFFCURVE",
"326 94 CURVE SMOOTH",
"329 94 OFFCURVE",
"356 98 OFFCURVE",
"369 98 CURVE SMOOTH",
"371 98 OFFCURVE",
"370 90 OFFCURVE",
"368 90 CURVE SMOOTH",
"359 90 OFFCURVE",
"340 88 OFFCURVE",
"337 87 CURVE SMOOTH",
"335 86 OFFCURVE",
"335 65 OFFCURVE",
"337 65 CURVE SMOOTH",
"348 65 OFFCURVE",
"361 70 OFFCURVE",
"372 70 CURVE SMOOTH",
"375 70 OFFCURVE",
"375 63 OFFCURVE",
"372 62 CURVE SMOOTH",
"362 59 OFFCURVE",
"338 60 OFFCURVE",
"338 56 CURVE SMOOTH",
"338 51 OFFCURVE",
"340 37 OFFCURVE",
"341 37 CURVE SMOOTH",
"352 37 OFFCURVE",
"365 39 OFFCURVE",
"378 43 CURVE SMOOTH",
"381 44 OFFCURVE",
"381 34 OFFCURVE",
"378 34 CURVE SMOOTH",
"363 34 OFFCURVE",
"340 29 OFFCURVE",
"329 29 CURVE SMOOTH"
);
},
{
closed = 1;
nodes = (
"221 161 OFFCURVE",
"235 172 OFFCURVE",
"237 174 CURVE SMOOTH",
"240 177 OFFCURVE",
"258 205 OFFCURVE",
"255 208 CURVE SMOOTH",
"254 209 OFFCURVE",
"246 202 OFFCURVE",
"245 201 CURVE SMOOTH",
"239 195 OFFCURVE",
"223 189 OFFCURVE",
"219 186 CURVE SMOOTH",
"215 183 OFFCURVE",
"208 176 OFFCURVE",
"207 174 CURVE SMOOTH",
"206 171 OFFCURVE",
"215 164 OFFCURVE",
"219 162 CURVE SMOOTH"
);
},
{
closed = 1;
nodes = (
"269 125 OFFCURVE",
"286 131 OFFCURVE",
"289 136 CURVE SMOOTH",
"293 143 OFFCURVE",
"296 152 OFFCURVE",
"296 164 CURVE SMOOTH",
"296 170 OFFCURVE",
"296 184 OFFCURVE",
"293 184 CURVE SMOOTH",
"284 184 OFFCURVE",
"247 150 OFFCURVE",
"231 150 CURVE SMOOTH",
"229 150 OFFCURVE",
"241 141 OFFCURVE",
"243 139 CURVE SMOOTH",
"247 135 OFFCURVE",
"267 125 OFFCURVE",
"269 125 CURVE"
);
},
{
closed = 1;
nodes = (
"162 257 OFFCURVE",
"164 259 OFFCURVE",
"166 263 CURVE",
"164 263 OFFCURVE",
"162 262 OFFCURVE",
"162 257 CURVE"
);
},
{
closed = 1;
nodes = (
"61 295 OFFCURVE",
"61 306 OFFCURVE",
"63 308 CURVE SMOOTH",
"68 313 OFFCURVE",
"84 316 OFFCURVE",
"84 317 CURVE SMOOTH",
"84 344 LINE SMOOTH",
"84 346 OFFCURVE",
"59 351 OFFCURVE",
"59 353 CURVE SMOOTH",
"59 356 OFFCURVE",
"57 360 OFFCURVE",
"61 361 CURVE",
"61 361 OFFCURVE",
"115 346 OFFCURVE",
"136 339 CURVE SMOOTH",
"139 338 OFFCURVE",
"138 335 OFFCURVE",
"137 335 CURVE",
"109 322 OFFCURVE",
"85 307 OFFCURVE",
"62 296 CURVE"
);
},
{
closed = 0;
nodes = (
"287 143 LINE"
);
},
{
closed = 1;
nodes = (
"208 185 OFFCURVE",
"221 196 OFFCURVE",
"236 205 CURVE SMOOTH",
"244 210 OFFCURVE",
"256 213 OFFCURVE",
"258 216 CURVE SMOOTH",
"260 219 OFFCURVE",
"259 236 OFFCURVE",
"257 239 CURVE SMOOTH",
"253 245 OFFCURVE",
"240 262 OFFCURVE",
"240 262 CURVE",
"233 264 OFFCURVE",
"171 226 OFFCURVE",
"176 217 CURVE SMOOTH",
"180 210 OFFCURVE",
"200 177 OFFCURVE",
"203 180 CURVE SMOOTH"
);
},
{
closed = 1;
nodes = (
"90 319 OFFCURVE",
"115 329 OFFCURVE",
"120 334 CURVE SMOOTH",
"121 335 OFFCURVE",
"91 345 OFFCURVE",
"90 345 CURVE SMOOTH",
"89 345 OFFCURVE",
"90 323 OFFCURVE",
"90 321 CURVE SMOOTH"
);
},
{
closed = 1;
nodes = (
"226 155 OFFCURVE",
"232 156 OFFCURVE",
"235 156 CURVE SMOOTH",
"257 156 OFFCURVE",
"254 169 OFFCURVE",
"266 176 CURVE SMOOTH",
"271 179 OFFCURVE",
"287 187 OFFCURVE",
"290 194 CURVE SMOOTH",
"293 202 OFFCURVE",
"283 208 OFFCURVE",
"277 214 CURVE SMOOTH",
"273 218 OFFCURVE",
"264 236 OFFCURVE",
"264 230 CURVE SMOOTH",
"264 213 OFFCURVE",
"259 195 OFFCURVE",
"250 179 CURVE SMOOTH",
"244 168 OFFCURVE",
"230 159 OFFCURVE",
"225 159 CURVE SMOOTH",
"224 159 OFFCURVE",
"224 157 OFFCURVE",
"225 156 CURVE SMOOTH"
);
},
{
closed = 1;
nodes = (
"409 45 OFFCURVE",
"407 55 OFFCURVE",
"409 55 CURVE SMOOTH",
"414 55 OFFCURVE",
"418 56 OFFCURVE",
"424 58 CURVE SMOOTH",
"429 60 OFFCURVE",
"433 68 OFFCURVE",
"430 73 CURVE SMOOTH",
"425 81 OFFCURVE",
"421 79 OFFCURVE",
"414 80 CURVE SMOOTH",
"407 81 OFFCURVE",
"397 87 OFFCURVE",
"396 92 CURVE SMOOTH",
"393 106 OFFCURVE",
"408 114 OFFCURVE",
"417 114 CURVE SMOOTH",
"420 114 OFFCURVE",
"425 108 OFFCURVE",
"421 108 CURVE SMOOTH",
"411 108 OFFCURVE",
"399 99 OFFCURVE",
"404 92 CURVE SMOOTH",
"409 85 OFFCURVE",
"423 87 OFFCURVE",
"431 83 CURVE SMOOTH",
"435 81 OFFCURVE",
"443 74 OFFCURVE",
"439 64 CURVE SMOOTH",
"435 54 OFFCURVE",
"417 45 OFFCURVE",
"413 45 CURVE SMOOTH"
);
},
{
closed = 1;
nodes = (
"125 370 OFFCURVE",
"69 373 OFFCURVE",
"60 373 CURVE SMOOTH",
"59 373 OFFCURVE",
"59 379 OFFCURVE",
"61 380 CURVE SMOOTH",
"84 392 OFFCURVE",
"128 426 OFFCURVE",
"122 427 CURVE SMOOTH",
"68 434 LINE SMOOTH",
"66 434 OFFCURVE",
"67 442 OFFCURVE",
"69 442 CURVE SMOOTH",
"76 442 OFFCURVE",
"120 432 OFFCURVE",
"144 432 CURVE SMOOTH",
"145 432 OFFCURVE",
"146 430 OFFCURVE",
"144 428 CURVE SMOOTH",
"129 413 OFFCURVE",
"104 398 OFFCURVE",
"84 382 CURVE",
"100 380 OFFCURVE",
"129 384 OFFCURVE",
"133 380 CURVE SMOOTH",
"134 379 OFFCURVE",
"132 370 OFFCURVE",
"131 370 CURVE SMOOTH"
);
},
{
closed = 1;
nodes = (
"330 112 OFFCURVE",
"353 111 OFFCURVE",
"366 114 CURVE SMOOTH",
"383 118 OFFCURVE",
"408 127 OFFCURVE",
"418 135 CURVE SMOOTH",
"426 142 OFFCURVE",
"434 147 OFFCURVE",
"443 154 CURVE SMOOTH",
"447 157 OFFCURVE",
"453 160 OFFCURVE",
"452 162 CURVE SMOOTH",
"451 164 OFFCURVE",
"447 168 OFFCURVE",
"444 168 CURVE SMOOTH",
"443 168 OFFCURVE",
"413 148 OFFCURVE",
"408 146 CURVE SMOOTH",
"395 141 OFFCURVE",
"382 135 OFFCURVE",
"368 132 CURVE SMOOTH",
"349 128 OFFCURVE",
"316 130 OFFCURVE",
"311 128 CURVE SMOOTH",
"308 127 OFFCURVE",
"296 117 OFFCURVE",
"294 116 CURVE SMOOTH",
"292 115 OFFCURVE",
"321 112 OFFCURVE",
"323 112 CURVE SMOOTH"
);
},
{
closed = 1;
nodes = (
"204 257 OFFCURVE",
"216 278 OFFCURVE",
"214 290 CURVE SMOOTH",
"211 310 OFFCURVE",
"203 335 OFFCURVE",
"203 355 CURVE SMOOTH",
"203 367 OFFCURVE",
"220 389 OFFCURVE",
"215 385 CURVE SMOOTH",
"204 376 OFFCURVE",
"199 360 OFFCURVE",
"199 344 CURVE SMOOTH",
"199 334 OFFCURVE",
"200 321 OFFCURVE",
"201 311 CURVE SMOOTH",
"202 302 OFFCURVE",
"207 293 OFFCURVE",
"206 281 CURVE SMOOTH",
"205 273 OFFCURVE",
"202 257 OFFCURVE",
"203 257 CURVE SMOOTH"
);
},
{
closed = 1;
nodes = (
"336 136 OFFCURVE",
"392 143 OFFCURVE",
"407 151 CURVE SMOOTH",
"413 154 OFFCURVE",
"439 170 OFFCURVE",
"437 172 CURVE SMOOTH",
"436 173 OFFCURVE",
"416 189 OFFCURVE",
"409 186 CURVE SMOOTH",
"398 181 OFFCURVE",
"398 177 OFFCURVE",
"383 171 CURVE SMOOTH",
"378 169 OFFCURVE",
"366 170 OFFCURVE",
"363 174 CURVE",
"355 147 OFFCURVE",
"342 152 OFFCURVE",
"333 148 CURVE SMOOTH",
"328 146 OFFCURVE",
"318 136 OFFCURVE",
"319 136 CURVE SMOOTH"
);
},
{
closed = 1;
nodes = (
"481 73 OFFCURVE",
"471 80 OFFCURVE",
"474 81 CURVE SMOOTH",
"478 82 OFFCURVE",
"484 85 OFFCURVE",
"489 90 CURVE SMOOTH",
"493 94 OFFCURVE",
"495 108 OFFCURVE",
"490 111 CURVE SMOOTH",
"482 116 OFFCURVE",
"477 115 OFFCURVE",
"470 112 CURVE SMOOTH",
"463 109 OFFCURVE",
"451 114 OFFCURVE",
"449 118 CURVE SMOOTH",
"443 131 OFFCURVE",
"452 143 OFFCURVE",
"461 146 CURVE SMOOTH",
"464 147 OFFCURVE",
"470 143 OFFCURVE",
"467 142 CURVE SMOOTH",
"457 139 OFFCURVE",
"450 125 OFFCURVE",
"456 121 CURVE SMOOTH",
"464 116 OFFCURVE",
"481 123 OFFCURVE",
"489 121 CURVE SMOOTH",
"493 120 OFFCURVE",
"501 112 OFFCURVE",
"501 100 CURVE SMOOTH",
"501 89 OFFCURVE",
"488 75 OFFCURVE",
"484 74 CURVE SMOOTH"
);
},
{
closed = 1;
nodes = (
"178 232 OFFCURVE",
"199 249 OFFCURVE",
"200 268 CURVE SMOOTH",
"201 289 OFFCURVE",
"193 337 OFFCURVE",
"194 350 CURVE SMOOTH",
"195 359 OFFCURVE",
"197 366 OFFCURVE",
"199 373 CURVE SMOOTH",
"201 379 OFFCURVE",
"230 418 OFFCURVE",
"230 420 CURVE SMOOTH",
"230 421 OFFCURVE",
"224 414 OFFCURVE",
"223 413 CURVE SMOOTH",
"219 409 OFFCURVE",
"210 399 OFFCURVE",
"209 400 CURVE",
"209 400 OFFCURVE",
"207 401 OFFCURVE",
"207 402 CURVE SMOOTH",
"207 405 OFFCURVE",
"225 424 OFFCURVE",
"228 431 CURVE SMOOTH",
"230 436 OFFCURVE",
"233 450 OFFCURVE",
"233 454 CURVE SMOOTH",
"233 467 OFFCURVE",
"226 473 OFFCURVE",
"226 481 CURVE SMOOTH",
"226 487 OFFCURVE",
"230 498 OFFCURVE",
"235 507 CURVE SMOOTH",
"242 519 OFFCURVE",
"267 542 OFFCURVE",
"265 543 CURVE SMOOTH",
"262 544 OFFCURVE",
"243 533 OFFCURVE",
"234 521 CURVE SMOOTH",
"225 509 OFFCURVE",
"221 495 OFFCURVE",
"220 495 CURVE SMOOTH",
"219 495 OFFCURVE",
"221 508 OFFCURVE",
"224 511 CURVE SMOOTH",
"225 512 OFFCURVE",
"224 514 OFFCURVE",
"223 514 CURVE SMOOTH",
"215 514 OFFCURVE",
"212 496 OFFCURVE",
"210 480 CURVE SMOOTH",
"208 465 OFFCURVE",
"209 448 OFFCURVE",
"211 438 CURVE SMOOTH",
"212 433 OFFCURVE",
"205 423 OFFCURVE",
"207 423 CURVE SMOOTH",
"211 423 OFFCURVE",
"221 433 OFFCURVE",
"221 446 CURVE SMOOTH",
"221 452 OFFCURVE",
"220 463 OFFCURVE",
"219 467 CURVE SMOOTH",
"218 471 OFFCURVE",
"218 483 OFFCURVE",
"220 483 CURVE SMOOTH",
"223 483 OFFCURVE",
"227 457 OFFCURVE",
"227 444 CURVE SMOOTH",
"227 438 OFFCURVE",
"205 412 OFFCURVE",
"201 408 CURVE SMOOTH",
"190 397 OFFCURVE",
"180 393 OFFCURVE",
"176 383 CURVE SMOOTH",
"174 378 OFFCURVE",
"172 361 OFFCURVE",
"172 356 CURVE SMOOTH",
"172 339 OFFCURVE",
"178 319 OFFCURVE",
"179 303 CURVE",
"179 303 OFFCURVE",
"177 291 OFFCURVE",
"173 279 CURVE SMOOTH",
"171 273 OFFCURVE",
"168 267 OFFCURVE",
"166 263 CURVE",
"168 263 OFFCURVE",
"171 263 OFFCURVE",
"173 266 CURVE",
"173 266 OFFCURVE",
"177 272 OFFCURVE",
"177 271 CURVE SMOOTH",
"177 261 OFFCURVE",
"166 249 OFFCURVE",
"167 245 CURVE SMOOTH",
"169 238 OFFCURVE",
"186 273 OFFCURVE",
"186 286 CURVE SMOOTH",
"186 304 OFFCURVE",
"184 351 OFFCURVE",
"183 356 CURVE SMOOTH",
"182 361 OFFCURVE",
"190 393 OFFCURVE",
"201 393 CURVE SMOOTH",
"202 393 OFFCURVE",
"198 388 OFFCURVE",
"198 388 CURVE",
"193 382 OFFCURVE",
"188 362 OFFCURVE",
"188 354 CURVE SMOOTH",
"188 341 OFFCURVE",
"194 306 OFFCURVE",
"194 286 CURVE SMOOTH",
"194 269 OFFCURVE",
"190 254 OFFCURVE",
"188 252 CURVE SMOOTH",
"185 249 OFFCURVE",
"172 235 OFFCURVE",
"174 234 CURVE SMOOTH"
);
},
{
closed = 1;
nodes = (
"113 468 OFFCURVE",
"128 470 OFFCURVE",
"142 470 CURVE SMOOTH",
"145 470 OFFCURVE",
"123 490 OFFCURVE",
"120 490 CURVE SMOOTH",
"116 490 OFFCURVE",
"113 472 OFFCURVE",
"113 470 CURVE SMOOTH"
);
},
{
closed = 1;
nodes = (
"74 459 OFFCURVE",
"77 466 OFFCURVE",
"79 466 CURVE SMOOTH",
"87 466 OFFCURVE",
"104 467 OFFCURVE",
"104 468 CURVE",
"114 493 LINE SMOOTH",
"115 495 OFFCURVE",
"98 510 OFFCURVE",
"98 510 CURVE",
"96 509 OFFCURVE",
"94 509 OFFCURVE",
"93 508 CURVE SMOOTH",
"92 507 OFFCURVE",
"90 509 OFFCURVE",
"91 511 CURVE SMOOTH",
"96 521 OFFCURVE",
"101 526 OFFCURVE",
"112 529 CURVE SMOOTH",
"126 533 OFFCURVE",
"144 533 OFFCURVE",
"154 533 CURVE SMOOTH",
"156 533 OFFCURVE",
"150 515 OFFCURVE",
"161 511 CURVE SMOOTH",
"166 509 OFFCURVE",
"180 511 OFFCURVE",
"183 516 CURVE SMOOTH",
"185 519 OFFCURVE",
"188 513 OFFCURVE",
"187 512 CURVE SMOOTH",
"173 498 OFFCURVE",
"165 499 OFFCURVE",
"156 502 CURVE SMOOTH",
"148 505 OFFCURVE",
"145 523 OFFCURVE",
"145 523 CURVE",
"129 527 OFFCURVE",
"100 517 OFFCURVE",
"103 514 CURVE SMOOTH",
"107 510 OFFCURVE",
"147 485 OFFCURVE",
"159 467 CURVE SMOOTH",
"161 464 OFFCURVE",
"158 462 OFFCURVE",
"158 462 CURVE",
"131 461 OFFCURVE",
"103 459 OFFCURVE",
"76 459 CURVE SMOOTH"
);
},
{
closed = 1;
nodes = (
"149 278 OFFCURVE",
"160 304 OFFCURVE",
"160 323 CURVE SMOOTH",
"160 339 OFFCURVE",
"153 348 OFFCURVE",
"153 365 CURVE SMOOTH",
"153 402 OFFCURVE",
"157 400 OFFCURVE",
"161 404 CURVE SMOOTH",
"165 408 OFFCURVE",
"182 426 OFFCURVE",
"182 440 CURVE SMOOTH",
"182 445 OFFCURVE",
"185 440 OFFCURVE",
"185 432 CURVE SMOOTH",
"185 431 OFFCURVE",
"186 428 OFFCURVE",
"188 430 CURVE SMOOTH",
"190 432 OFFCURVE",
"193 443 OFFCURVE",
"193 445 CURVE SMOOTH",
"193 448 OFFCURVE",
"192 453 OFFCURVE",
"194 453 CURVE SMOOTH",
"195 453 OFFCURVE",
"197 453 OFFCURVE",
"197 452 CURVE SMOOTH",
"197 435 OFFCURVE",
"165 397 OFFCURVE",
"162 389 CURVE SMOOTH",
"161 386 OFFCURVE",
"157 372 OFFCURVE",
"159 366 CURVE SMOOTH",
"163 354 OFFCURVE",
"164 328 OFFCURVE",
"164 322 CURVE SMOOTH",
"164 320 OFFCURVE",
"167 317 OFFCURVE",
"167 318 CURVE SMOOTH",
"167 336 OFFCURVE",
"166 374 OFFCURVE",
"171 385 CURVE SMOOTH",
"181 407 OFFCURVE",
"195 405 OFFCURVE",
"203 430 CURVE SMOOTH",
"204 433 OFFCURVE",
"206 454 OFFCURVE",
"206 457 CURVE SMOOTH",
"206 465 OFFCURVE",
"203 474 OFFCURVE",
"203 483 CURVE SMOOTH",
"203 496 OFFCURVE",
"208 505 OFFCURVE",
"217 516 CURVE SMOOTH",
"224 524 OFFCURVE",
"230 531 OFFCURVE",
"240 538 CURVE SMOOTH",
"250 545 OFFCURVE",
"286 559 OFFCURVE",
"284 566 CURVE SMOOTH",
"282 572 OFFCURVE",
"269 568 OFFCURVE",
"256 563 CURVE SMOOTH",
"228 552 OFFCURVE",
"204 527 OFFCURVE",
"189 501 CURVE SMOOTH",
"178 483 OFFCURVE",
"172 466 OFFCURVE",
"172 445 CURVE SMOOTH",
"172 439 OFFCURVE",
"165 426 OFFCURVE",
"159 415 CURVE SMOOTH",
"158 413 OFFCURVE",
"150 395 OFFCURVE",
"149 389 CURVE SMOOTH",
"146 373 OFFCURVE",
"147 349 OFFCURVE",
"150 331 CURVE SMOOTH",
"151 325 OFFCURVE",
"151 314 OFFCURVE",
"151 308 CURVE SMOOTH",
"149 284 LINE SMOOTH"
);
},
{
closed = 1;
nodes = (
"460 167 OFFCURVE",
"488 205 OFFCURVE",
"488 207 CURVE SMOOTH",
"488 208 OFFCURVE",
"471 229 OFFCURVE",
"470 228 CURVE SMOOTH",
"468 226 OFFCURVE",
"462 213 OFFCURVE",
"458 207 CURVE SMOOTH",
"448 192 OFFCURVE",
"428 194 OFFCURVE",
"414 194 CURVE SMOOTH",
"413 194 OFFCURVE",
"412 192 OFFCURVE",
"413 192 CURVE SMOOTH",
"428 192 OFFCURVE",
"456 167 OFFCURVE",
"458 167 CURVE SMOOTH"
);
},
{
closed = 1;
nodes = (
"236 384 OFFCURVE",
"260 405 OFFCURVE",
"260 421 CURVE SMOOTH",
"260 424 OFFCURVE",
"256 444 OFFCURVE",
"255 440 CURVE SMOOTH",
"253 431 OFFCURVE",
"259 433 OFFCURVE",
"246 410 CURVE SMOOTH",
"242 403 OFFCURVE",
"216 380 OFFCURVE",
"225 382 CURVE SMOOTH"
);
},
{
closed = 1;
nodes = (
"239 380 OFFCURVE",
"251 383 OFFCURVE",
"252 384 CURVE SMOOTH",
"267 399 OFFCURVE",
"270 404 OFFCURVE",
"270 425 CURVE SMOOTH",
"270 427 OFFCURVE",
"270 430 OFFCURVE",
"271 431 CURVE SMOOTH",
"272 432 OFFCURVE",
"276 419 OFFCURVE",
"276 418 CURVE SMOOTH",
"276 415 OFFCURVE",
"277 409 OFFCURVE",
"274 406 CURVE SMOOTH",
"273 405 OFFCURVE",
"269 398 OFFCURVE",
"269 398 CURVE",
"274 400 OFFCURVE",
"287 410 OFFCURVE",
"287 418 CURVE SMOOTH",
"287 420 OFFCURVE",
"286 422 OFFCURVE",
"285 424 CURVE SMOOTH",
"282 430 OFFCURVE",
"269 440 OFFCURVE",
"264 440 CURVE SMOOTH",
"262 440 OFFCURVE",
"265 410 OFFCURVE",
"263 403 CURVE SMOOTH",
"260 393 OFFCURVE",
"229 380 OFFCURVE",
"238 380 CURVE SMOOTH"
);
},
{
closed = 1;
nodes = (
"239 407 OFFCURVE",
"251 423 OFFCURVE",
"251 438 CURVE SMOOTH",
"251 445 OFFCURVE",
"250 451 OFFCURVE",
"246 454 CURVE SMOOTH",
"243 456 OFFCURVE",
"242 454 OFFCURVE",
"242 451 CURVE SMOOTH",
"242 445 OFFCURVE",
"244 435 OFFCURVE",
"244 430 CURVE SMOOTH",
"244 423 OFFCURVE",
"238 417 OFFCURVE",
"238 410 CURVE SMOOTH",
"238 409 OFFCURVE",
"236 407 OFFCURVE",
"237 407 CURVE SMOOTH"
);
},
{
closed = 1;
nodes = (
"183 449 OFFCURVE",
"182 463 OFFCURVE",
"182 463 CURVE",
"182 467 OFFCURVE",
"185 477 OFFCURVE",
"185 480 CURVE SMOOTH",
"185 495 OFFCURVE",
"211 525 OFFCURVE",
"206 512 CURVE SMOOTH",
"204 507 OFFCURVE",
"199 501 OFFCURVE",
"196 494 CURVE SMOOTH",
"194 486 LINE",
"194 481 OFFCURVE",
"201 493 OFFCURVE",
"200 490 CURVE SMOOTH",
"198 485 OFFCURVE",
"194 458 OFFCURVE",
"193 458 CURVE SMOOTH",
"192 458 OFFCURVE",
"193 462 OFFCURVE",
"192 464 CURVE",
"192 464 OFFCURVE",
"191 468 OFFCURVE",
"193 473 CURVE",
"193 473 OFFCURVE",
"197 486 OFFCURVE",
"193 484 CURVE SMOOTH",
"190 482 OFFCURVE",
"186 471 OFFCURVE",
"186 466 CURVE SMOOTH",
"186 457 OFFCURVE",
"186 454 OFFCURVE",
"184 451 CURVE SMOOTH"
);
},
{
closed = 1;
nodes = (
"532 125 OFFCURVE",
"479 168 OFFCURVE",
"479 169 CURVE SMOOTH",
"479 173 OFFCURVE",
"493 187 OFFCURVE",
"501 200 CURVE SMOOTH",
"502 202 OFFCURVE",
"507 197 OFFCURVE",
"506 195 CURVE SMOOTH",
"502 187 OFFCURVE",
"489 176 OFFCURVE",
"489 173 CURVE SMOOTH",
"489 171 OFFCURVE",
"505 154 OFFCURVE",
"507 157 CURVE SMOOTH",
"514 168 OFFCURVE",
"516 173 OFFCURVE",
"523 183 CURVE SMOOTH",
"525 185 OFFCURVE",
"530 180 OFFCURVE",
"529 178 CURVE SMOOTH",
"523 169 OFFCURVE",
"514 154 OFFCURVE",
"514 151 CURVE SMOOTH",
"514 146 OFFCURVE",
"532 136 OFFCURVE",
"533 138 CURVE SMOOTH",
"540 148 OFFCURVE",
"545 154 OFFCURVE",
"553 164 CURVE SMOOTH",
"555 167 OFFCURVE",
"562 161 OFFCURVE",
"560 159 CURVE SMOOTH",
"548 147 OFFCURVE",
"542 135 OFFCURVE",
"534 127 CURVE SMOOTH"
);
},
{
closed = 1;
nodes = (
"241 107 OFFCURVE",
"141 175 OFFCURVE",
"141 345 CURVE SMOOTH",
"141 503 OFFCURVE",
"248 606 OFFCURVE",
"344 603 CURVE SMOOTH",
"433 600 OFFCURVE",
"542 523 OFFCURVE",
"542 362 CURVE SMOOTH",
"542 238 OFFCURVE",
"451 105 OFFCURVE",
"341 106 CURVE SMOOTH"
);
},
{
closed = 1;
nodes = (
"282 119 OFFCURVE",
"287 122 OFFCURVE",
"296 124 CURVE SMOOTH",
"300 125 OFFCURVE",
"323 152 OFFCURVE",
"330 154 CURVE SMOOTH",
"333 155 OFFCURVE",
"347 158 OFFCURVE",
"351 160 CURVE SMOOTH",
"353 161 OFFCURVE",
"356 174 OFFCURVE",
"355 175 CURVE SMOOTH",
"352 178 OFFCURVE",
"330 185 OFFCURVE",
"321 194 CURVE SMOOTH",
"300 215 OFFCURVE",
"293 232 OFFCURVE",
"276 256 CURVE SMOOTH",
"264 273 OFFCURVE",
"245 303 OFFCURVE",
"229 314 CURVE SMOOTH",
"216 323 OFFCURVE",
"214 346 OFFCURVE",
"217 346 CURVE SMOOTH",
"222 346 OFFCURVE",
"220 337 OFFCURVE",
"224 329 CURVE SMOOTH",
"229 318 OFFCURVE",
"242 306 OFFCURVE",
"252 297 CURVE SMOOTH",
"265 285 OFFCURVE",
"290 244 OFFCURVE",
"302 227 CURVE SMOOTH",
"312 213 OFFCURVE",
"323 204 OFFCURVE",
"347 186 CURVE SMOOTH",
"369 170 OFFCURVE",
"387 180 OFFCURVE",
"400 190 CURVE SMOOTH",
"411 199 OFFCURVE",
"415 216 OFFCURVE",
"422 221 CURVE SMOOTH",
"425 223 OFFCURVE",
"413 201 OFFCURVE",
"417 199 CURVE SMOOTH",
"422 197 OFFCURVE",
"437 193 OFFCURVE",
"451 209 CURVE SMOOTH",
"457 216 OFFCURVE",
"466 235 OFFCURVE",
"465 244 CURVE SMOOTH",
"462 268 OFFCURVE",
"462 265 OFFCURVE",
"462 282 CURVE SMOOTH",
"462 317 OFFCURVE",
"479 318 OFFCURVE",
"479 354 CURVE SMOOTH",
"479 375 OFFCURVE",
"475 406 OFFCURVE",
"469 422 CURVE SMOOTH",
"464 435 OFFCURVE",
"448 458 OFFCURVE",
"443 462 CURVE SMOOTH",
"430 473 OFFCURVE",
"406 485 OFFCURVE",
"403 497 CURVE SMOOTH",
"402 501 OFFCURVE",
"404 532 OFFCURVE",
"404 532 CURVE",
"404 545 OFFCURVE",
"397 553 OFFCURVE",
"387 563 CURVE SMOOTH",
"386 564 OFFCURVE",
"391 563 OFFCURVE",
"393 563 CURVE SMOOTH",
"397 563 OFFCURVE",
"400 559 OFFCURVE",
"403 557 CURVE SMOOTH",
"408 553 OFFCURVE",
"408 548 OFFCURVE",
"409 545 CURVE SMOOTH",
"414 531 OFFCURVE",
"409 515 OFFCURVE",
"407 506 CURVE SMOOTH",
"405 498 OFFCURVE",
"419 484 OFFCURVE",
"424 484 CURVE SMOOTH",
"425 484 OFFCURVE",
"416 505 OFFCURVE",
"419 508 CURVE SMOOTH",
"423 512 OFFCURVE",
"422 531 OFFCURVE",
"422 534 CURVE SMOOTH",
"422 542 OFFCURVE",
"418 544 OFFCURVE",
"418 548 CURVE SMOOTH",
"418 550 OFFCURVE",
"420 552 OFFCURVE",
"420 553 CURVE SMOOTH",
"420 558 OFFCURVE",
"412 564 OFFCURVE",
"407 568 CURVE SMOOTH",
"398 575 OFFCURVE",
"389 571 OFFCURVE",
"386 573 CURVE SMOOTH",
"375 580 OFFCURVE",
"363 587 OFFCURVE",
"348 587 CURVE SMOOTH",
"330 587 OFFCURVE",
"297 580 OFFCURVE",
"293 573 CURVE SMOOTH",
"290 568 OFFCURVE",
"296 569 OFFCURVE",
"290 562 CURVE SMOOTH",
"280 551 OFFCURVE",
"262 529 OFFCURVE",
"250 512 CURVE SMOOTH",
"239 497 OFFCURVE",
"232 489 OFFCURVE",
"232 481 CURVE SMOOTH",
"232 476 OFFCURVE",
"231 480 OFFCURVE",
"239 471 CURVE SMOOTH",
"246 463 OFFCURVE",
"256 455 OFFCURVE",
"264 448 CURVE SMOOTH",
"278 436 OFFCURVE",
"286 429 OFFCURVE",
"300 422 CURVE SMOOTH",
"304 420 OFFCURVE",
"333 409 OFFCURVE",
"337 408 CURVE",
"352 400 LINE",
"354 400 OFFCURVE",
"352 396 OFFCURVE",
"343 393 CURVE SMOOTH",
"337 391 OFFCURVE",
"334 387 OFFCURVE",
"334 377 CURVE SMOOTH",
"334 358 OFFCURVE",
"352 367 OFFCURVE",
"356 361 CURVE SMOOTH",
"359 357 OFFCURVE",
"359 353 OFFCURVE",
"359 345 CURVE SMOOTH",
"359 341 OFFCURVE",
"361 331 OFFCURVE",
"358 330 CURVE SMOOTH",
"352 328 OFFCURVE",
"353 357 OFFCURVE",
"351 358 CURVE SMOOTH",
"348 359 OFFCURVE",
"343 355 OFFCURVE",
"337 360 CURVE SMOOTH",
"332 364 OFFCURVE",
"330 370 OFFCURVE",
"325 375 CURVE SMOOTH",
"322 378 OFFCURVE",
"302 391 OFFCURVE",
"295 393 CURVE SMOOTH",
"291 394 OFFCURVE",
"278 396 OFFCURVE",
"274 394 CURVE SMOOTH",
"269 392 OFFCURVE",
"268 366 OFFCURVE",
"270 364 CURVE SMOOTH",
"277 357 OFFCURVE",
"290 347 OFFCURVE",
"293 348 CURVE SMOOTH",
"295 349 OFFCURVE",
"285 368 OFFCURVE",
"285 378 CURVE SMOOTH",
"285 380 OFFCURVE",
"286 383 OFFCURVE",
"288 383 CURVE SMOOTH",
"291 383 OFFCURVE",
"293 361 OFFCURVE",
"295 357 CURVE SMOOTH",
"302 344 OFFCURVE",
"311 334 OFFCURVE",
"321 325 CURVE SMOOTH",
"328 319 OFFCURVE",
"348 293 OFFCURVE",
"350 292 CURVE SMOOTH",
"354 290 OFFCURVE",
"353 307 OFFCURVE",
"357 313 CURVE SMOOTH",
"360 317 OFFCURVE",
"368 321 OFFCURVE",
"368 321 CURVE",
"369 319 OFFCURVE",
"362 309 OFFCURVE",
"362 309 CURVE",
"359 305 OFFCURVE",
"358 300 OFFCURVE",
"359 295 CURVE SMOOTH",
"363 277 OFFCURVE",
"369 271 OFFCURVE",
"371 257 CURVE SMOOTH",
"372 248 OFFCURVE",
"367 245 OFFCURVE",
"366 250 CURVE SMOOTH",
"362 268 OFFCURVE",
"350 288 OFFCURVE",
"344 293 CURVE SMOOTH",
"335 301 OFFCURVE",
"292 340 OFFCURVE",
"281 348 CURVE SMOOTH",
"255 366 LINE SMOOTH",
"249 370 OFFCURVE",
"238 376 OFFCURVE",
"229 376 CURVE SMOOTH",
"225 376 OFFCURVE",
"217 376 OFFCURVE",
"212 365 CURVE SMOOTH",
"208 356 OFFCURVE",
"207 349 OFFCURVE",
"207 341 CURVE SMOOTH",
"207 327 OFFCURVE",
"222 306 OFFCURVE",
"222 305 CURVE SMOOTH",
"222 285 OFFCURVE",
"253 254 OFFCURVE",
"262 245 CURVE SMOOTH",
"278 229 OFFCURVE",
"296 198 OFFCURVE",
"298 192 CURVE SMOOTH",
"304 173 OFFCURVE",
"307 159 OFFCURVE",
"298 144 CURVE SMOOTH",
"295 139 OFFCURVE",
"291 137 OFFCURVE",
"286 129 CURVE SMOOTH",
"284 126 OFFCURVE",
"276 125 OFFCURVE",
"278 123 CURVE SMOOTH"
);
},
{
closed = 1;
nodes = (
"170 536 OFFCURVE",
"152 553 OFFCURVE",
"129 564 CURVE SMOOTH",
"127 565 OFFCURVE",
"133 572 OFFCURVE",
"136 570 CURVE SMOOTH",
"156 557 OFFCURVE",
"176 543 OFFCURVE",
"194 525 CURVE SMOOTH",
"196 523 OFFCURVE",
"189 517 OFFCURVE",
"187 519 CURVE SMOOTH"
);
},
{
closed = 1;
nodes = (
"300 397 OFFCURVE",
"306 411 OFFCURVE",
"302 415 CURVE SMOOTH",
"298 419 OFFCURVE",
"296 420 OFFCURVE",
"294 420 CURVE SMOOTH",
"293 420 OFFCURVE",
"292 419 OFFCURVE",
"292 415 CURVE SMOOTH",
"292 414 LINE SMOOTH",
"292 412 OFFCURVE",
"289 402 OFFCURVE",
"289 401 CURVE SMOOTH",
"289 397 OFFCURVE",
"293 397 OFFCURVE",
"295 397 CURVE SMOOTH"
);
},
{
closed = 1;
nodes = (
"320 391 OFFCURVE",
"321 403 OFFCURVE",
"321 406 CURVE SMOOTH",
"321 411 OFFCURVE",
"319 407 OFFCURVE",
"314 411 CURVE SMOOTH",
"308 416 OFFCURVE",
"307 415 OFFCURVE",
"307 408 CURVE SMOOTH",
"307 402 OFFCURVE",
"302 398 OFFCURVE",
"307 393 CURVE SMOOTH",
"308 392 OFFCURVE",
"315 388 OFFCURVE",
"317 389 CURVE SMOOTH"
);
},
{
closed = 1;
nodes = (
"426 276 LINE SMOOTH",
"426 275 OFFCURVE",
"424 284 OFFCURVE",
"430 296 CURVE SMOOTH",
"433 302 OFFCURVE",
"429 292 OFFCURVE",
"429 283 CURVE SMOOTH",
"429 274 OFFCURVE",
"427 270 OFFCURVE",
"426 270 CURVE"
);
},
{
closed = 1;
nodes = (
"539 204 OFFCURVE",
"539 209 OFFCURVE",
"536 216 CURVE",
"544 216 OFFCURVE",
"549 218 OFFCURVE",
"556 221 CURVE",
"554 214 OFFCURVE",
"555 209 OFFCURVE",
"558 200 CURVE",
"550 199 OFFCURVE",
"543 198 OFFCURVE",
"536 195 CURVE"
);
},
{
closed = 1;
nodes = (
"491 239 OFFCURVE",
"493 244 OFFCURVE",
"495 249 CURVE SMOOTH",
"499 258 OFFCURVE",
"513 280 OFFCURVE",
"511 271 CURVE SMOOTH",
"510 266 OFFCURVE",
"494 242 OFFCURVE",
"492 240 CURVE SMOOTH"
);
},
{
closed = 1;
nodes = (
"283 485 OFFCURVE",
"283 496 OFFCURVE",
"281 494 CURVE SMOOTH",
"278 491 OFFCURVE",
"274 488 OFFCURVE",
"272 485 CURVE SMOOTH",
"271 483 OFFCURVE",
"280 482 OFFCURVE",
"281 483 CURVE SMOOTH"
);
},
{
closed = 1;
nodes = (
"196 550 LINE",
"208 551 OFFCURVE",
"212 551 OFFCURVE",
"221 568 CURVE SMOOTH",
"225 576 OFFCURVE",
"216 592 OFFCURVE",
"209 597 CURVE SMOOTH",
"206 599 OFFCURVE",
"195 608 OFFCURVE",
"185 608 CURVE SMOOTH",
"175 608 OFFCURVE",
"168 604 OFFCURVE",
"163 598 CURVE SMOOTH",
"156 589 OFFCURVE",
"156 584 OFFCURVE",
"156 572 CURVE",
"150 572 LINE",
"149 589 OFFCURVE",
"149 596 OFFCURVE",
"159 603 CURVE SMOOTH",
"167 609 OFFCURVE",
"176 614 OFFCURVE",
"186 614 CURVE SMOOTH",
"201 614 OFFCURVE",
"211 610 OFFCURVE",
"220 600 CURVE SMOOTH",
"233 586 OFFCURVE",
"231 564 OFFCURVE",
"224 557 CURVE SMOOTH",
"216 549 OFFCURVE",
"212 541 OFFCURVE",
"196 545 CURVE"
);
},
{
closed = 1;
nodes = (
"475 261 OFFCURVE",
"476 265 OFFCURVE",
"480 269 CURVE SMOOTH",
"483 272 OFFCURVE",
"489 279 OFFCURVE",
"492 288 CURVE SMOOTH",
"495 296 OFFCURVE",
"496 306 OFFCURVE",
"493 313 CURVE SMOOTH",
"490 319 OFFCURVE",
"487 334 OFFCURVE",
"489 334 CURVE SMOOTH",
"490 334 OFFCURVE",
"493 318 OFFCURVE",
"495 317 CURVE SMOOTH",
"500 314 OFFCURVE",
"499 310 OFFCURVE",
"499 306 CURVE SMOOTH",
"499 301 OFFCURVE",
"499 293 OFFCURVE",
"497 286 CURVE SMOOTH",
"495 279 OFFCURVE",
"491 274 OFFCURVE",
"487 270 CURVE SMOOTH",
"486 269 OFFCURVE",
"480 256 OFFCURVE",
"477 259 CURVE SMOOTH"
);
},
{
closed = 1;
nodes = (
"231 544 OFFCURVE",
"267 562 OFFCURVE",
"262 557 CURVE SMOOTH",
"258 553 OFFCURVE",
"250 549 OFFCURVE",
"243 547 CURVE SMOOTH"
);
},
{
closed = 1;
nodes = (
"321 466 OFFCURVE",
"315 481 OFFCURVE",
"316 487 CURVE SMOOTH",
"317 491 OFFCURVE",
"327 503 OFFCURVE",
"326 498 CURVE SMOOTH",
"325 494 OFFCURVE",
"322 490 OFFCURVE",
"321 486 CURVE SMOOTH",
"320 481 OFFCURVE",
"321 476 OFFCURVE",
"321 471 CURVE SMOOTH"
);
},
{
closed = 1;
nodes = (
"361 437 OFFCURVE",
"352 451 OFFCURVE",
"328 457 CURVE SMOOTH",
"324 458 OFFCURVE",
"259 479 OFFCURVE",
"259 483 CURVE SMOOTH",
"259 484 OFFCURVE",
"260 485 OFFCURVE",
"260 485 CURVE",
"267 489 OFFCURVE",
"275 495 OFFCURVE",
"281 503 CURVE SMOOTH",
"287 511 OFFCURVE",
"315 550 OFFCURVE",
"312 553 CURVE SMOOTH",
"311 554 OFFCURVE",
"313 556 OFFCURVE",
"314 555 CURVE SMOOTH",
"319 550 OFFCURVE",
"360 568 OFFCURVE",
"354 562 CURVE SMOOTH",
"348 556 OFFCURVE",
"340 558 OFFCURVE",
"325 543 CURVE SMOOTH",
"324 542 OFFCURVE",
"301 513 OFFCURVE",
"300 511 CURVE SMOOTH",
"294 498 OFFCURVE",
"297 490 OFFCURVE",
"295 490 CURVE SMOOTH",
"293 490 OFFCURVE",
"292 496 OFFCURVE",
"292 497 CURVE SMOOTH",
"292 516 OFFCURVE",
"304 520 OFFCURVE",
"311 533 CURVE",
"311 533 OFFCURVE",
"321 547 OFFCURVE",
"320 548 CURVE SMOOTH",
"318 550 OFFCURVE",
"304 535 OFFCURVE",
"296 519 CURVE SMOOTH",
"291 509 OFFCURVE",
"286 500 OFFCURVE",
"286 490 CURVE SMOOTH",
"286 483 OFFCURVE",
"289 479 OFFCURVE",
"291 477 CURVE SMOOTH",
"292 476 OFFCURVE",
"302 468 OFFCURVE",
"302 472 CURVE SMOOTH",
"302 476 OFFCURVE",
"300 480 OFFCURVE",
"300 483 CURVE SMOOTH",
"300 485 OFFCURVE",
"301 489 OFFCURVE",
"302 492 CURVE SMOOTH",
"304 499 OFFCURVE",
"318 510 OFFCURVE",
"318 507 CURVE SMOOTH",
"318 505 OFFCURVE",
"304 490 OFFCURVE",
"304 484 CURVE SMOOTH",
"304 481 OFFCURVE",
"306 480 OFFCURVE",
"306 477 CURVE SMOOTH",
"306 472 OFFCURVE",
"311 467 OFFCURVE",
"315 466 CURVE SMOOTH",
"318 465 OFFCURVE",
"330 460 OFFCURVE",
"333 463 CURVE SMOOTH",
"334 464 OFFCURVE",
"336 472 OFFCURVE",
"337 472 CURVE SMOOTH",
"339 472 OFFCURVE",
"339 467 OFFCURVE",
"339 465 CURVE SMOOTH",
"339 463 OFFCURVE",
"338 459 OFFCURVE",
"339 459 CURVE SMOOTH",
"356 459 OFFCURVE",
"366 444 OFFCURVE",
"364 441 CURVE SMOOTH"
);
},
{
closed = 1;
nodes = (
"439 341 OFFCURVE",
"439 343 OFFCURVE",
"439 344 CURVE SMOOTH",
"439 369 OFFCURVE",
"442 366 OFFCURVE",
"437 394 CURVE SMOOTH",
"435 405 OFFCURVE",
"429 421 OFFCURVE",
"427 429 CURVE SMOOTH",
"424 441 OFFCURVE",
"443 405 OFFCURVE",
"443 368 CURVE SMOOTH",
"443 354 OFFCURVE",
"444 341 OFFCURVE",
"442 341 CURVE SMOOTH"
);
},
{
closed = 1;
nodes = (
"511 327 LINE SMOOTH",
"510 334 OFFCURVE",
"501 339 OFFCURVE",
"511 335 CURVE SMOOTH",
"519 332 OFFCURVE",
"516 319 OFFCURVE",
"516 315 CURVE SMOOTH",
"516 312 OFFCURVE",
"515 310 OFFCURVE",
"514 310 CURVE"
);
},
{
closed = 1;
nodes = (
"488 219 OFFCURVE",
"478 236 OFFCURVE",
"477 241 CURVE SMOOTH",
"476 248 OFFCURVE",
"481 255 OFFCURVE",
"486 258 CURVE SMOOTH",
"490 261 OFFCURVE",
"505 287 OFFCURVE",
"505 297 CURVE SMOOTH",
"505 310 OFFCURVE",
"495 323 OFFCURVE",
"491 345 CURVE SMOOTH",
"490 350 OFFCURVE",
"488 360 OFFCURVE",
"488 365 CURVE SMOOTH",
"488 384 OFFCURVE",
"497 398 OFFCURVE",
"497 416 CURVE SMOOTH",
"497 432 OFFCURVE",
"491 448 OFFCURVE",
"467 461 CURVE SMOOTH",
"452 469 OFFCURVE",
"437 476 OFFCURVE",
"437 494 CURVE SMOOTH",
"437 527 LINE SMOOTH",
"437 538 OFFCURVE",
"435 546 OFFCURVE",
"431 555 CURVE SMOOTH",
"425 569 OFFCURVE",
"410 584 OFFCURVE",
"392 584 CURVE SMOOTH",
"386 584 LINE SMOOTH",
"385 584 OFFCURVE",
"384 582 OFFCURVE",
"385 580 CURVE",
"385 580 OFFCURVE",
"387 577 OFFCURVE",
"388 577 CURVE SMOOTH",
"398 577 OFFCURVE",
"419 576 OFFCURVE",
"427 553 CURVE SMOOTH",
"429 547 OFFCURVE",
"429 542 OFFCURVE",
"429 536 CURVE SMOOTH",
"429 524 OFFCURVE",
"428 510 OFFCURVE",
"427 503 CURVE SMOOTH",
"426 497 OFFCURVE",
"428 485 OFFCURVE",
"430 481 CURVE SMOOTH",
"433 475 OFFCURVE",
"461 458 OFFCURVE",
"466 451 CURVE SMOOTH",
"472 442 OFFCURVE",
"484 438 OFFCURVE",
"484 411 CURVE SMOOTH",
"484 348 LINE SMOOTH",
"484 340 OFFCURVE",
"482 331 OFFCURVE",
"482 325 CURVE SMOOTH",
"482 317 OFFCURVE",
"483 304 OFFCURVE",
"481 293 CURVE SMOOTH",
"480 288 OFFCURVE",
"469 270 OFFCURVE",
"469 264 CURVE SMOOTH",
"469 262 OFFCURVE",
"473 250 OFFCURVE",
"473 248 CURVE SMOOTH",
"473 242 OFFCURVE",
"478 224 OFFCURVE",
"486 220 CURVE SMOOTH"
);
},
{
closed = 1;
nodes = (
"518 237 OFFCURVE",
"523 248 OFFCURVE",
"527 248 CURVE SMOOTH",
"545 248 OFFCURVE",
"594 242 OFFCURVE",
"579 252 CURVE SMOOTH",
"565 262 OFFCURVE",
"553 274 OFFCURVE",
"539 283 CURVE SMOOTH",
"536 285 OFFCURVE",
"538 299 OFFCURVE",
"541 299 CURVE SMOOTH",
"563 299 OFFCURVE",
"623 285 OFFCURVE",
"605 297 CURVE SMOOTH",
"587 309 OFFCURVE",
"566 319 OFFCURVE",
"549 331 CURVE SMOOTH",
"546 333 OFFCURVE",
"548 343 OFFCURVE",
"550 342 CURVE SMOOTH",
"578 328 OFFCURVE",
"624 296 OFFCURVE",
"624 296 CURVE",
"624 291 LINE SMOOTH",
"624 276 OFFCURVE",
"528 300 OFFCURVE",
"549 285 CURVE SMOOTH",
"569 271 OFFCURVE",
"591 256 OFFCURVE",
"609 245 CURVE",
"610 244 OFFCURVE",
"609 240 OFFCURVE",
"608 240 CURVE SMOOTH",
"579 240 OFFCURVE",
"549 237 OFFCURVE",
"522 237 CURVE SMOOTH"
);
},
{
closed = 1;
nodes = (
"317 516 OFFCURVE",
"319 530 OFFCURVE",
"326 535 CURVE SMOOTH",
"330 538 OFFCURVE",
"344 550 OFFCURVE",
"341 546 CURVE SMOOTH",
"337 540 OFFCURVE",
"332 538 OFFCURVE",
"328 533 CURVE SMOOTH",
"324 528 OFFCURVE",
"326 527 OFFCURVE",
"321 521 CURVE SMOOTH"
);
},
{
closed = 1;
nodes = (
"245 612 OFFCURVE",
"239 614 OFFCURVE",
"231 615 CURVE",
"238 621 OFFCURVE",
"240 625 OFFCURVE",
"241 633 CURVE",
"249 629 OFFCURVE",
"254 628 OFFCURVE",
"261 628 CURVE",
"257 623 OFFCURVE",
"254 617 OFFCURVE",
"252 608 CURVE"
);
},
{
closed = 1;
nodes = (
"500 214 OFFCURVE",
"495 234 OFFCURVE",
"503 245 CURVE SMOOTH",
"506 249 OFFCURVE",
"501 234 OFFCURVE",
"503 233 CURVE SMOOTH",
"506 231 OFFCURVE",
"515 256 OFFCURVE",
"514 257 CURVE",
"511 257 OFFCURVE",
"503 246 OFFCURVE",
"508 254 CURVE SMOOTH",
"522 276 OFFCURVE",
"525 299 OFFCURVE",
"525 318 CURVE SMOOTH",
"525 319 OFFCURVE",
"521 335 OFFCURVE",
"519 339 CURVE SMOOTH",
"517 343 OFFCURVE",
"508 369 OFFCURVE",
"509 375 CURVE SMOOTH",
"512 392 OFFCURVE",
"514 403 OFFCURVE",
"517 414 CURVE SMOOTH",
"518 418 OFFCURVE",
"517 430 OFFCURVE",
"516 434 CURVE SMOOTH",
"514 443 OFFCURVE",
"509 449 OFFCURVE",
"502 456 CURVE SMOOTH",
"497 461 OFFCURVE",
"482 467 OFFCURVE",
"473 475 CURVE SMOOTH",
"468 479 OFFCURVE",
"459 491 OFFCURVE",
"457 497 CURVE SMOOTH",
"454 506 OFFCURVE",
"464 539 OFFCURVE",
"449 554 CURVE SMOOTH",
"447 556 OFFCURVE",
"441 562 OFFCURVE",
"439 562 CURVE SMOOTH",
"436 562 OFFCURVE",
"437 557 OFFCURVE",
"438 555 CURVE SMOOTH",
"440 551 OFFCURVE",
"441 546 OFFCURVE",
"443 541 CURVE SMOOTH",
"444 538 OFFCURVE",
"444 535 OFFCURVE",
"444 532 CURVE SMOOTH",
"444 525 OFFCURVE",
"447 519 OFFCURVE",
"444 511 CURVE SMOOTH",
"443 508 OFFCURVE",
"442 499 OFFCURVE",
"442 497 CURVE SMOOTH",
"442 478 OFFCURVE",
"461 469 OFFCURVE",
"475 462 CURVE SMOOTH",
"481 459 OFFCURVE",
"487 454 OFFCURVE",
"492 450 CURVE SMOOTH",
"495 448 OFFCURVE",
"498 443 OFFCURVE",
"501 435 CURVE SMOOTH",
"504 427 OFFCURVE",
"503 413 OFFCURVE",
"504 413 CURVE SMOOTH",
"505 413 OFFCURVE",
"506 416 OFFCURVE",
"506 417 CURVE SMOOTH",
"506 422 OFFCURVE",
"508 434 OFFCURVE",
"506 438 CURVE SMOOTH",
"505 440 OFFCURVE",
"494 456 OFFCURVE",
"495 457 CURVE SMOOTH",
"496 458 OFFCURVE",
"502 450 OFFCURVE",
"504 448 CURVE SMOOTH",
"510 442 OFFCURVE",
"510 433 OFFCURVE",
"510 426 CURVE SMOOTH",
"510 416 OFFCURVE",
"504 407 OFFCURVE",
"504 394 CURVE SMOOTH",
"504 393 OFFCURVE",
"503 387 OFFCURVE",
"502 384 CURVE SMOOTH",
"500 378 OFFCURVE",
"501 371 OFFCURVE",
"502 364 CURVE SMOOTH",
"503 357 OFFCURVE",
"509 349 OFFCURVE",
"506 343 CURVE SMOOTH",
"504 339 OFFCURVE",
"505 346 OFFCURVE",
"501 353 CURVE SMOOTH",
"500 355 OFFCURVE",
"499 361 OFFCURVE",
"497 361 CURVE SMOOTH",
"496 361 OFFCURVE",
"495 356 OFFCURVE",
"495 354 CURVE SMOOTH",
"495 336 OFFCURVE",
"508 323 OFFCURVE",
"511 310 CURVE SMOOTH",
"513 300 OFFCURVE",
"511 288 OFFCURVE",
"507 278 CURVE SMOOTH",
"499 258 OFFCURVE",
"482 244 OFFCURVE",
"483 239 CURVE SMOOTH",
"484 234 OFFCURVE",
"485 230 OFFCURVE",
"488 226 CURVE SMOOTH",
"491 222 OFFCURVE",
"493 217 OFFCURVE",
"495 216 CURVE SMOOTH"
);
},
{
closed = 1;
nodes = (
"337 515 OFFCURVE",
"336 519 OFFCURVE",
"339 525 CURVE SMOOTH",
"342 530 OFFCURVE",
"357 538 OFFCURVE",
"353 534 CURVE SMOOTH",
"349 530 OFFCURVE",
"345 530 OFFCURVE",
"342 525 CURVE SMOOTH",
"339 520 OFFCURVE",
"341 524 OFFCURVE",
"339 519 CURVE SMOOTH"
);
},
{
closed = 1;
nodes = (
"363 497 OFFCURVE",
"366 495 OFFCURVE",
"369 501 CURVE SMOOTH",
"372 507 OFFCURVE",
"369 518 OFFCURVE",
"370 521 CURVE SMOOTH",
"372 526 OFFCURVE",
"378 506 OFFCURVE",
"372 498 CURVE SMOOTH",
"369 494 OFFCURVE",
"359 489 OFFCURVE",
"360 491 CURVE SMOOTH"
);
},
{
closed = 1;
nodes = (
"356 511 OFFCURVE",
"358 514 OFFCURVE",
"359 519 CURVE SMOOTH",
"360 523 OFFCURVE",
"358 529 OFFCURVE",
"361 533 CURVE SMOOTH",
"363 536 OFFCURVE",
"366 522 OFFCURVE",
"363 516 CURVE SMOOTH",
"362 514 OFFCURVE",
"354 503 OFFCURVE",
"355 507 CURVE SMOOTH"
);
},
{
closed = 1;
nodes = (
"398 483 OFFCURVE",
"385 502 OFFCURVE",
"385 499 CURVE SMOOTH",
"385 498 OFFCURVE",
"385 492 OFFCURVE",
"382 495 CURVE SMOOTH",
"381 496 OFFCURVE",
"383 502 OFFCURVE",
"383 504 CURVE SMOOTH",
"383 520 LINE SMOOTH",
"383 528 OFFCURVE",
"366 546 OFFCURVE",
"375 538 CURVE SMOOTH",
"382 532 OFFCURVE",
"387 516 OFFCURVE",
"387 508 CURVE SMOOTH",
"387 498 OFFCURVE",
"402 489 OFFCURVE",
"400 486 CURVE SMOOTH"
);
},
{
closed = 1;
nodes = (
"396 510 OFFCURVE",
"393 528 OFFCURVE",
"393 532 CURVE SMOOTH",
"393 537 OFFCURVE",
"388 540 OFFCURVE",
"384 544 CURVE SMOOTH",
"383 545 OFFCURVE",
"386 545 OFFCURVE",
"389 543 CURVE SMOOTH",
"394 540 OFFCURVE",
"399 532 OFFCURVE",
"397 525 CURVE SMOOTH",
"396 522 OFFCURVE",
"397 514 OFFCURVE",
"397 514 CURVE"
);
},
{
closed = 1;
nodes = (
"535 320 OFFCURVE",
"522 352 OFFCURVE",
"522 381 CURVE SMOOTH",
"522 393 OFFCURVE",
"526 409 OFFCURVE",
"527 419 CURVE SMOOTH",
"528 430 OFFCURVE",
"530 438 OFFCURVE",
"525 447 CURVE SMOOTH",
"518 460 OFFCURVE",
"491 486 OFFCURVE",
"482 496 CURVE SMOOTH",
"474 505 OFFCURVE",
"468 528 OFFCURVE",
"465 540 CURVE SMOOTH",
"463 547 OFFCURVE",
"460 546 OFFCURVE",
"461 543 CURVE SMOOTH",
"465 531 OFFCURVE",
"464 506 OFFCURVE",
"466 500 CURVE SMOOTH",
"469 490 OFFCURVE",
"485 477 OFFCURVE",
"506 459 CURVE SMOOTH",
"513 453 OFFCURVE",
"518 446 OFFCURVE",
"523 436 CURVE SMOOTH",
"527 428 OFFCURVE",
"516 385 OFFCURVE",
"515 374 CURVE SMOOTH",
"513 357 OFFCURVE",
"523 349 OFFCURVE",
"526 334 CURVE SMOOTH",
"527 328 OFFCURVE",
"529 308 OFFCURVE",
"532 314 CURVE SMOOTH"
);
},
{
closed = 1;
nodes = (
"330 567 OFFCURVE",
"348 578 OFFCURVE",
"356 578 CURVE SMOOTH",
"361 578 OFFCURVE",
"379 572 OFFCURVE",
"374 572 CURVE SMOOTH",
"367 572 OFFCURVE",
"362 573 OFFCURVE",
"356 572 CURVE SMOOTH",
"349 571 OFFCURVE",
"342 569 OFFCURVE",
"335 568 CURVE SMOOTH"
);
},
{
closed = 1;
nodes = (
"321 629 OFFCURVE",
"317 632 OFFCURVE",
"308 635 CURVE",
"316 638 OFFCURVE",
"320 643 OFFCURVE",
"325 649 CURVE",
"330 642 OFFCURVE",
"335 638 OFFCURVE",
"341 635 CURVE",
"334 632 OFFCURVE",
"330 629 OFFCURVE",
"325 623 CURVE"
);
},
{
closed = 1;
nodes = (
"448 491 OFFCURVE",
"448 497 OFFCURVE",
"448 503 CURVE SMOOTH",
"448 515 OFFCURVE",
"450 531 OFFCURVE",
"452 528 CURVE SMOOTH",
"453 526 OFFCURVE",
"455 522 OFFCURVE",
"453 518 CURVE SMOOTH",
"451 513 OFFCURVE",
"451 509 OFFCURVE",
"451 504 CURVE SMOOTH",
"451 498 LINE SMOOTH",
"451 496 OFFCURVE",
"450 491 OFFCURVE",
"449 491 CURVE SMOOTH"
);
},
{
closed = 1;
nodes = (
"550 354 OFFCURVE",
"550 392 OFFCURVE",
"550 402 CURVE SMOOTH",
"550 404 OFFCURVE",
"560 403 OFFCURVE",
"560 402 CURVE SMOOTH",
"560 391 OFFCURVE",
"560 366 OFFCURVE",
"562 364 CURVE",
"562 364 OFFCURVE",
"586 363 OFFCURVE",
"586 366 CURVE SMOOTH",
"586 369 OFFCURVE",
"583 387 OFFCURVE",
"582 399 CURVE SMOOTH",
"582 402 OFFCURVE",
"589 401 OFFCURVE",
"589 400 CURVE SMOOTH",
"591 386 OFFCURVE",
"592 366 OFFCURVE",
"596 365 CURVE SMOOTH",
"601 364 OFFCURVE",
"613 366 OFFCURVE",
"613 367 CURVE SMOOTH",
"613 378 OFFCURVE",
"608 396 OFFCURVE",
"608 411 CURVE SMOOTH",
"608 414 OFFCURVE",
"619 414 OFFCURVE",
"619 411 CURVE SMOOTH",
"619 396 OFFCURVE",
"626 358 OFFCURVE",
"622 357 CURVE SMOOTH",
"618 356 OFFCURVE",
"558 354 OFFCURVE",
"553 354 CURVE SMOOTH"
);
},
{
closed = 1;
nodes = (
"541 420 OFFCURVE",
"539 430 OFFCURVE",
"541 431 CURVE SMOOTH",
"565 439 OFFCURVE",
"588 441 OFFCURVE",
"612 449 CURVE SMOOTH",
"615 450 OFFCURVE",
"619 439 OFFCURVE",
"615 438 CURVE SMOOTH",
"593 433 OFFCURVE",
"568 429 OFFCURVE",
"544 421 CURVE SMOOTH"
);
},
{
closed = 1;
nodes = (
"409 593 OFFCURVE",
"388 607 OFFCURVE",
"388 622 CURVE SMOOTH",
"388 631 OFFCURVE",
"405 634 OFFCURVE",
"405 634 CURVE",
"405 659 OFFCURVE",
"388 693 OFFCURVE",
"370 649 CURVE SMOOTH",
"369 646 OFFCURVE",
"365 646 OFFCURVE",
"366 650 CURVE SMOOTH",
"372 673 OFFCURVE",
"391 693 OFFCURVE",
"407 664 CURVE SMOOTH",
"414 651 OFFCURVE",
"412 636 OFFCURVE",
"418 627 CURVE SMOOTH",
"420 624 OFFCURVE",
"398 630 OFFCURVE",
"396 617 CURVE SMOOTH",
"395 611 OFFCURVE",
"405 604 OFFCURVE",
"414 602 CURVE",
"421 624 OFFCURVE",
"431 640 OFFCURVE",
"444 660 CURVE SMOOTH",
"446 663 OFFCURVE",
"453 653 OFFCURVE",
"451 650 CURVE SMOOTH",
"439 632 OFFCURVE",
"426 616 OFFCURVE",
"418 593 CURVE"
);
},
{
closed = 1;
nodes = (
"471 573 OFFCURVE",
"495 588 OFFCURVE",
"494 588 CURVE SMOOTH",
"493 588 OFFCURVE",
"477 600 OFFCURVE",
"475 602 CURVE SMOOTH",
"474 603 OFFCURVE",
"471 580 OFFCURVE",
"471 573 CURVE"
);
},
{
closed = 1;
nodes = (
"524 476 LINE",
"524 476 OFFCURVE",
"547 510 OFFCURVE",
"564 531 CURVE",
"552 527 OFFCURVE",
"525 516 OFFCURVE",
"503 516 CURVE SMOOTH",
"501 516 OFFCURVE",
"500 520 OFFCURVE",
"501 521 CURVE",
"513 543 OFFCURVE",
"524 566 OFFCURVE",
"544 586 CURVE SMOOTH",
"547 589 OFFCURVE",
"550 577 OFFCURVE",
"548 575 CURVE SMOOTH",
"535 562 OFFCURVE",
"524 538 OFFCURVE",
"510 526 CURVE",
"517 526 OFFCURVE",
"554 535 OFFCURVE",
"571 541 CURVE SMOOTH",
"574 542 OFFCURVE",
"578 540 OFFCURVE",
"575 537 CURVE SMOOTH",
"572 534 OFFCURVE",
"553 500 OFFCURVE",
"538 481 CURVE",
"552 481 OFFCURVE",
"584 487 OFFCURVE",
"604 487 CURVE SMOOTH",
"607 487 OFFCURVE",
"609 476 OFFCURVE",
"606 476 CURVE SMOOTH",
"575 476 OFFCURVE",
"528 471 OFFCURVE",
"527 472 CURVE SMOOTH"
);
},
{
closed = 1;
nodes = (
"462 559 OFFCURVE",
"458 566 OFFCURVE",
"458 567 CURVE SMOOTH",
"461 590 OFFCURVE",
"467 617 OFFCURVE",
"474 643 CURVE",
"475 645 OFFCURVE",
"483 641 OFFCURVE",
"483 638 CURVE SMOOTH",
"483 630 OFFCURVE",
"477 611 OFFCURVE",
"477 611 CURVE",
"500 591 LINE SMOOTH",
"504 588 OFFCURVE",
"523 606 OFFCURVE",
"525 604 CURVE SMOOTH",
"527 602 OFFCURVE",
"532 600 OFFCURVE",
"530 598 CURVE SMOOTH",
"529 597 OFFCURVE",
"487 565 OFFCURVE",
"466 560 CURVE SMOOTH"
);
}
);
width = 688;
}
);
},
{
glyphname = cranach_2;
lastChange = "2020-01-30 12:51:20 +0000";
layers = (
{
layerId = "310A0878-FAF0-4FA6-A778-54E96A53E047";
paths = (
{
closed = 1;
nodes = (
"512 -2 OFFCURVE",
"647 181 OFFCURVE",
"647 365 CURVE SMOOTH",
"647 606 OFFCURVE",
"484 696 OFFCURVE",
"352 700 CURVE SMOOTH",
"209 705 OFFCURVE",
"50 576 OFFCURVE",
"50 341 CURVE SMOOTH",
"50 87 OFFCURVE",
"198 1 OFFCURVE",
"348 0 CURVE SMOOTH"
);
},
{
closed = 0;
nodes = (
"190 -392 LINE"
);
},
{
closed = 1;
nodes = (
"182 138 OFFCURVE",
"182 143 OFFCURVE",
"184 151 CURVE",
"177 151 OFFCURVE",
"173 153 OFFCURVE",
"165 158 CURVE",
"166 150 OFFCURVE",
"165 144 OFFCURVE",
"162 136 CURVE",
"171 136 OFFCURVE",
"177 134 OFFCURVE",
"183 131 CURVE"
);
},
{
closed = 1;
nodes = (
"194 102 OFFCURVE",
"209 116 OFFCURVE",
"224 135 CURVE",
"240 129 OFFCURVE",
"243 117 OFFCURVE",
"241 111 CURVE SMOOTH",
"237 99 OFFCURVE",
"217 105 OFFCURVE",
"213 109 CURVE",
"213 108 OFFCURVE",
"209 107 OFFCURVE",
"210 106 CURVE SMOOTH",
"223 94 OFFCURVE",
"245 99 OFFCURVE",
"248 107 CURVE SMOOTH",
"255 125 OFFCURVE",
"231 142 OFFCURVE",
"222 144 CURVE",
"203 124 OFFCURVE",
"188 107 OFFCURVE",
"176 89 CURVE SMOOTH",
"174 86 OFFCURVE",
"178 78 OFFCURVE",
"180 81 CURVE SMOOTH"
);
},
{
closed = 1;
nodes = (
"134 171 OFFCURVE",
"158 181 OFFCURVE",
"180 196 CURVE SMOOTH",
"183 198 OFFCURVE",
"176 205 OFFCURVE",
"173 204 CURVE SMOOTH",
"164 201 OFFCURVE",
"157 194 OFFCURVE",
"149 191 CURVE SMOOTH",
"146 190 OFFCURVE",
"132 217 OFFCURVE",
"132 219 CURVE SMOOTH",
"132 223 OFFCURVE",
"151 230 OFFCURVE",
"160 235 CURVE SMOOTH",
"162 236 OFFCURVE",
"158 244 OFFCURVE",
"156 243 CURVE SMOOTH",
"134 232 OFFCURVE",
"88 207 OFFCURVE",
"88 204 CURVE SMOOTH",
"88 200 OFFCURVE",
"90 197 OFFCURVE",
"93 199 CURVE SMOOTH",
"101 204 OFFCURVE",
"121 217 OFFCURVE",
"123 214 CURVE SMOOTH",
"126 209 OFFCURVE",
"143 187 OFFCURVE",
"142 186 CURVE SMOOTH",
"134 178 OFFCURVE",
"121 175 OFFCURVE",
"112 166 CURVE SMOOTH",
"110 164 OFFCURVE",
"112 156 OFFCURVE",
"114 158 CURVE"
);
},
{
closed = 1;
nodes = (
"316 23 OFFCURVE",
"316 25 OFFCURVE",
"315 26 CURVE SMOOTH",
"305 36 OFFCURVE",
"285 46 OFFCURVE",
"285 71 CURVE SMOOTH",
"285 72 OFFCURVE",
"301 76 OFFCURVE",
"300 85 CURVE SMOOTH",
"298 100 OFFCURVE",
"277 112 OFFCURVE",
"268 112 CURVE",
"258 87 OFFCURVE",
"250 72 OFFCURVE",
"240 51 CURVE SMOOTH",
"239 48 OFFCURVE",
"247 39 OFFCURVE",
"248 42 CURVE SMOOTH",
"258 65 OFFCURVE",
"267 80 OFFCURVE",
"273 103 CURVE",
"282 102 OFFCURVE",
"292 95 OFFCURVE",
"292 89 CURVE SMOOTH",
"292 76 OFFCURVE",
"270 80 OFFCURVE",
"271 77 CURVE SMOOTH",
"274 68 OFFCURVE",
"278 55 OFFCURVE",
"285 42 CURVE SMOOTH",
"290 32 OFFCURVE",
"300 23 OFFCURVE",
"314 23 CURVE SMOOTH"
);
},
{
closed = 1;
nodes = (
"96 232 LINE",
"86 240 OFFCURVE",
"83 239 OFFCURVE",
"82 250 CURVE SMOOTH",
"81 258 OFFCURVE",
"83 267 OFFCURVE",
"88 275 CURVE SMOOTH",
"93 283 OFFCURVE",
"108 286 OFFCURVE",
"113 286 CURVE SMOOTH",
"121 286 OFFCURVE",
"135 285 OFFCURVE",
"138 277 CURVE SMOOTH",
"145 258 OFFCURVE",
"141 261 OFFCURVE",
"140 247 CURVE",
"150 249 LINE",
"150 269 OFFCURVE",
"151 274 OFFCURVE",
"145 281 CURVE SMOOTH",
"140 287 OFFCURVE",
"132 295 OFFCURVE",
"113 297 CURVE SMOOTH",
"101 298 OFFCURVE",
"93 292 OFFCURVE",
"83 281 CURVE SMOOTH",
"77 274 OFFCURVE",
"74 262 OFFCURVE",
"75 253 CURVE SMOOTH",
"77 239 OFFCURVE",
"80 238 OFFCURVE",
"94 228 CURVE"
);
},
{
closed = 1;
nodes = (
"347 29 OFFCURVE",
"370 34 OFFCURVE",
"385 34 CURVE SMOOTH",
"388 34 OFFCURVE",
"388 44 OFFCURVE",
"385 43 CURVE SMOOTH",
"372 39 OFFCURVE",
"359 37 OFFCURVE",
"348 37 CURVE SMOOTH",
"347 37 OFFCURVE",
"345 51 OFFCURVE",
"345 56 CURVE SMOOTH",
"345 60 OFFCURVE",
"369 59 OFFCURVE",
"379 62 CURVE SMOOTH",
"382 63 OFFCURVE",
"382 70 OFFCURVE",
"379 70 CURVE SMOOTH",
"368 70 OFFCURVE",
"355 65 OFFCURVE",
"344 65 CURVE SMOOTH",
"342 65 OFFCURVE",
"342 86 OFFCURVE",
"344 87 CURVE SMOOTH",
"347 88 OFFCURVE",
"366 90 OFFCURVE",
"375 90 CURVE SMOOTH",
"377 90 OFFCURVE",
"378 98 OFFCURVE",
"376 98 CURVE SMOOTH",
"363 98 OFFCURVE",
"336 94 OFFCURVE",
"333 94 CURVE SMOOTH",
"332 94 OFFCURVE",
"334 29 OFFCURVE",
"336 29 CURVE SMOOTH"
);
},
{
closed = 1;
nodes = (
"222 164 OFFCURVE",
"213 171 OFFCURVE",
"214 174 CURVE SMOOTH",
"215 176 OFFCURVE",
"222 183 OFFCURVE",
"226 186 CURVE SMOOTH",
"230 189 OFFCURVE",
"246 195 OFFCURVE",
"252 201 CURVE SMOOTH",
"253 202 OFFCURVE",
"261 209 OFFCURVE",
"262 208 CURVE SMOOTH",
"265 205 OFFCURVE",
"247 177 OFFCURVE",
"244 174 CURVE SMOOTH",
"242 172 OFFCURVE",
"228 161 OFFCURVE",
"226 162 CURVE SMOOTH"
);
},
{
closed = 1;
nodes = (
"274 125 OFFCURVE",
"254 135 OFFCURVE",
"250 139 CURVE SMOOTH",
"248 141 OFFCURVE",
"236 150 OFFCURVE",
"238 150 CURVE SMOOTH",
"254 150 OFFCURVE",
"291 184 OFFCURVE",
"300 184 CURVE SMOOTH",
"303 184 OFFCURVE",
"303 170 OFFCURVE",
"303 164 CURVE SMOOTH",
"303 152 OFFCURVE",
"300 143 OFFCURVE",
"296 136 CURVE SMOOTH",
"293 131 OFFCURVE",
"276 125 OFFCURVE",
"276 125 CURVE"
);
},
{
closed = 1;
nodes = (
"92 307 OFFCURVE",
"116 322 OFFCURVE",
"144 335 CURVE",
"145 335 OFFCURVE",
"146 338 OFFCURVE",
"143 339 CURVE SMOOTH",
"122 346 OFFCURVE",
"68 361 OFFCURVE",
"68 361 CURVE",
"64 360 OFFCURVE",
"66 356 OFFCURVE",
"66 353 CURVE SMOOTH",
"66 351 OFFCURVE",
"91 346 OFFCURVE",
"91 344 CURVE SMOOTH",
"91 317 LINE SMOOTH",
"91 316 OFFCURVE",
"75 313 OFFCURVE",
"70 308 CURVE SMOOTH",
"68 306 OFFCURVE",
"68 295 OFFCURVE",
"69 296 CURVE"
);
},
{
closed = 0;
nodes = (
"294 143 LINE"
);
},
{
closed = 1;
nodes = (
"207 177 OFFCURVE",
"187 210 OFFCURVE",
"183 217 CURVE SMOOTH",
"178 226 OFFCURVE",
"240 264 OFFCURVE",
"247 262 CURVE",
"247 262 OFFCURVE",
"260 245 OFFCURVE",
"264 239 CURVE SMOOTH",
"266 236 OFFCURVE",
"267 219 OFFCURVE",
"265 216 CURVE SMOOTH",
"263 213 OFFCURVE",
"251 210 OFFCURVE",
"243 205 CURVE SMOOTH",
"228 196 OFFCURVE",
"215 185 OFFCURVE",
"210 180 CURVE SMOOTH"
);
},
{
closed = 1;
nodes = (
"97 323 OFFCURVE",
"96 345 OFFCURVE",
"97 345 CURVE SMOOTH",
"98 345 OFFCURVE",
"128 335 OFFCURVE",
"127 334 CURVE SMOOTH",
"122 329 OFFCURVE",
"97 319 OFFCURVE",
"97 321 CURVE SMOOTH"
);
},
{
closed = 1;
nodes = (
"231 157 OFFCURVE",
"231 159 OFFCURVE",
"232 159 CURVE SMOOTH",
"237 159 OFFCURVE",
"251 168 OFFCURVE",
"257 179 CURVE SMOOTH",
"266 195 OFFCURVE",
"271 213 OFFCURVE",
"271 230 CURVE SMOOTH",
"271 236 OFFCURVE",
"280 218 OFFCURVE",
"284 214 CURVE SMOOTH",
"290 208 OFFCURVE",
"300 202 OFFCURVE",
"297 194 CURVE SMOOTH",
"294 187 OFFCURVE",
"278 179 OFFCURVE",
"273 176 CURVE SMOOTH",
"261 169 OFFCURVE",
"264 156 OFFCURVE",
"242 156 CURVE SMOOTH",
"239 156 OFFCURVE",
"233 155 OFFCURVE",
"232 156 CURVE SMOOTH"
);
},
{
closed = 1;
nodes = (
"424 45 OFFCURVE",
"442 54 OFFCURVE",
"446 64 CURVE SMOOTH",
"450 74 OFFCURVE",
"442 81 OFFCURVE",
"438 83 CURVE SMOOTH",
"430 87 OFFCURVE",
"416 85 OFFCURVE",
"411 92 CURVE SMOOTH",
"406 99 OFFCURVE",
"418 108 OFFCURVE",
"428 108 CURVE SMOOTH",
"432 108 OFFCURVE",
"427 114 OFFCURVE",
"424 114 CURVE SMOOTH",
"415 114 OFFCURVE",
"400 106 OFFCURVE",
"403 92 CURVE SMOOTH",
"404 87 OFFCURVE",
"414 81 OFFCURVE",
"421 80 CURVE SMOOTH",
"428 79 OFFCURVE",
"432 81 OFFCURVE",
"437 73 CURVE SMOOTH",
"440 68 OFFCURVE",
"436 60 OFFCURVE",
"431 58 CURVE SMOOTH",
"425 56 OFFCURVE",
"421 55 OFFCURVE",
"416 55 CURVE SMOOTH",
"414 55 OFFCURVE",
"416 45 OFFCURVE",
"420 45 CURVE SMOOTH"
);
},
{
closed = 1;
nodes = (
"139 370 OFFCURVE",
"141 379 OFFCURVE",
"140 380 CURVE SMOOTH",
"136 384 OFFCURVE",
"107 380 OFFCURVE",
"91 382 CURVE",
"111 398 OFFCURVE",
"136 413 OFFCURVE",
"151 428 CURVE SMOOTH",
"153 430 OFFCURVE",
"152 432 OFFCURVE",
"151 432 CURVE SMOOTH",
"127 432 OFFCURVE",
"83 442 OFFCURVE",
"76 442 CURVE SMOOTH",
"74 442 OFFCURVE",
"73 434 OFFCURVE",
"75 434 CURVE SMOOTH",
"129 427 LINE SMOOTH",
"135 426 OFFCURVE",
"91 392 OFFCURVE",
"68 380 CURVE SMOOTH",
"66 379 OFFCURVE",
"66 373 OFFCURVE",
"67 373 CURVE SMOOTH",
"76 373 OFFCURVE",
"132 370 OFFCURVE",
"138 370 CURVE SMOOTH"
);
},
{
closed = 1;
nodes = (
"328 112 OFFCURVE",
"299 115 OFFCURVE",
"301 116 CURVE SMOOTH",
"303 117 OFFCURVE",
"315 127 OFFCURVE",
"318 128 CURVE SMOOTH",
"323 130 OFFCURVE",
"356 128 OFFCURVE",
"375 132 CURVE SMOOTH",
"389 135 OFFCURVE",
"402 141 OFFCURVE",
"415 146 CURVE SMOOTH",
"420 148 OFFCURVE",
"450 168 OFFCURVE",
"451 168 CURVE SMOOTH",
"454 168 OFFCURVE",
"458 164 OFFCURVE",
"459 162 CURVE SMOOTH",
"460 160 OFFCURVE",
"454 157 OFFCURVE",
"450 154 CURVE SMOOTH",
"441 147 OFFCURVE",
"433 142 OFFCURVE",
"425 135 CURVE SMOOTH",
"415 127 OFFCURVE",
"390 118 OFFCURVE",
"373 114 CURVE SMOOTH",
"360 111 OFFCURVE",
"337 112 OFFCURVE",
"330 112 CURVE SMOOTH"
);
},
{
closed = 1;
nodes = (
"209 257 OFFCURVE",
"212 273 OFFCURVE",
"213 281 CURVE SMOOTH",
"214 293 OFFCURVE",
"209 302 OFFCURVE",
"208 311 CURVE SMOOTH",
"207 321 OFFCURVE",
"206 334 OFFCURVE",
"206 344 CURVE SMOOTH",
"206 360 OFFCURVE",
"211 376 OFFCURVE",
"222 385 CURVE SMOOTH",
"227 389 OFFCURVE",
"210 367 OFFCURVE",
"210 355 CURVE SMOOTH",
"210 335 OFFCURVE",
"218 310 OFFCURVE",
"221 290 CURVE SMOOTH",
"223 278 OFFCURVE",
"211 257 OFFCURVE",
"210 257 CURVE SMOOTH"
);
},
{
closed = 1;
nodes = (
"325 136 OFFCURVE",
"335 146 OFFCURVE",
"340 148 CURVE SMOOTH",
"349 152 OFFCURVE",
"362 147 OFFCURVE",
"370 174 CURVE",
"373 170 OFFCURVE",
"385 169 OFFCURVE",
"390 171 CURVE SMOOTH",
"405 177 OFFCURVE",
"405 181 OFFCURVE",
"416 186 CURVE SMOOTH",
"423 189 OFFCURVE",
"443 173 OFFCURVE",
"444 172 CURVE SMOOTH",
"446 170 OFFCURVE",
"420 154 OFFCURVE",
"414 151 CURVE SMOOTH",
"399 143 OFFCURVE",
"343 136 OFFCURVE",
"326 136 CURVE SMOOTH"
);
},
{
closed = 1;
nodes = (
"495 75 OFFCURVE",
"508 89 OFFCURVE",
"508 100 CURVE SMOOTH",
"508 112 OFFCURVE",
"500 120 OFFCURVE",
"496 121 CURVE SMOOTH",
"488 123 OFFCURVE",
"471 116 OFFCURVE",
"463 121 CURVE SMOOTH",
"457 125 OFFCURVE",
"464 139 OFFCURVE",
"474 142 CURVE SMOOTH",
"477 143 OFFCURVE",
"471 147 OFFCURVE",
"468 146 CURVE SMOOTH",
"459 143 OFFCURVE",
"450 131 OFFCURVE",
"456 118 CURVE SMOOTH",
"458 114 OFFCURVE",
"470 109 OFFCURVE",
"477 112 CURVE SMOOTH",
"484 115 OFFCURVE",
"489 116 OFFCURVE",
"497 111 CURVE SMOOTH",
"502 108 OFFCURVE",
"500 94 OFFCURVE",
"496 90 CURVE SMOOTH",
"491 85 OFFCURVE",
"485 82 OFFCURVE",
"481 81 CURVE SMOOTH",
"478 80 OFFCURVE",
"488 73 OFFCURVE",
"491 74 CURVE SMOOTH"
);
},
{
closed = 1;
nodes = (
"179 235 OFFCURVE",
"192 249 OFFCURVE",
"195 252 CURVE SMOOTH",
"197 254 OFFCURVE",
"201 269 OFFCURVE",
"201 286 CURVE SMOOTH",
"201 306 OFFCURVE",
"195 341 OFFCURVE",
"195 354 CURVE SMOOTH",
"195 362 OFFCURVE",
"200 382 OFFCURVE",
"205 388 CURVE",
"205 388 OFFCURVE",
"209 393 OFFCURVE",
"208 393 CURVE SMOOTH",
"197 393 OFFCURVE",
"189 361 OFFCURVE",
"190 356 CURVE SMOOTH",
"191 351 OFFCURVE",
"193 304 OFFCURVE",
"193 286 CURVE SMOOTH",
"193 273 OFFCURVE",
"176 238 OFFCURVE",
"174 245 CURVE SMOOTH",
"173 249 OFFCURVE",
"184 261 OFFCURVE",
"184 271 CURVE SMOOTH",
"184 272 OFFCURVE",
"180 266 OFFCURVE",
"180 266 CURVE",
"175 260 OFFCURVE",
"171 247 OFFCURVE",
"169 257 CURVE SMOOTH",
"168 261 OFFCURVE",
"176 267 OFFCURVE",
"180 279 CURVE SMOOTH",
"184 291 OFFCURVE",
"186 303 OFFCURVE",
"186 303 CURVE",
"185 319 OFFCURVE",
"179 339 OFFCURVE",
"179 356 CURVE SMOOTH",
"179 361 OFFCURVE",
"181 378 OFFCURVE",
"183 383 CURVE SMOOTH",
"187 393 OFFCURVE",
"197 397 OFFCURVE",
"208 408 CURVE SMOOTH",
"212 412 OFFCURVE",
"234 438 OFFCURVE",
"234 444 CURVE SMOOTH",
"234 457 OFFCURVE",
"230 483 OFFCURVE",
"227 483 CURVE SMOOTH",
"225 483 OFFCURVE",
"225 471 OFFCURVE",
"226 467 CURVE SMOOTH",
"227 463 OFFCURVE",
"228 452 OFFCURVE",
"228 446 CURVE SMOOTH",
"228 433 OFFCURVE",
"218 423 OFFCURVE",
"214 423 CURVE SMOOTH",
"212 423 OFFCURVE",
"219 433 OFFCURVE",
"218 438 CURVE SMOOTH",
"216 448 OFFCURVE",
"215 465 OFFCURVE",
"217 480 CURVE SMOOTH",
"219 496 OFFCURVE",
"222 514 OFFCURVE",
"230 514 CURVE SMOOTH",
"231 514 OFFCURVE",
"232 512 OFFCURVE",
"231 511 CURVE SMOOTH",
"228 508 OFFCURVE",
"226 495 OFFCURVE",
"227 495 CURVE SMOOTH",
"228 495 OFFCURVE",
"232 509 OFFCURVE",
"241 521 CURVE SMOOTH",
"250 533 OFFCURVE",
"269 544 OFFCURVE",
"272 543 CURVE SMOOTH",
"274 542 OFFCURVE",
"249 519 OFFCURVE",
"242 507 CURVE SMOOTH",
"237 498 OFFCURVE",
"233 487 OFFCURVE",
"233 481 CURVE SMOOTH",
"233 473 OFFCURVE",
"240 467 OFFCURVE",
"240 454 CURVE SMOOTH",
"240 450 OFFCURVE",
"237 436 OFFCURVE",
"235 431 CURVE SMOOTH",
"232 424 OFFCURVE",
"214 405 OFFCURVE",
"214 402 CURVE SMOOTH",
"214 401 OFFCURVE",
"216 400 OFFCURVE",
"216 400 CURVE",
"217 399 OFFCURVE",
"226 409 OFFCURVE",
"230 413 CURVE SMOOTH",
"231 414 OFFCURVE",
"237 421 OFFCURVE",
"237 420 CURVE SMOOTH",
"237 418 OFFCURVE",
"208 379 OFFCURVE",
"206 373 CURVE SMOOTH",
"204 366 OFFCURVE",
"202 359 OFFCURVE",
"201 350 CURVE SMOOTH",
"200 337 OFFCURVE",
"208 289 OFFCURVE",
"207 268 CURVE SMOOTH",
"206 249 OFFCURVE",
"185 232 OFFCURVE",
"181 234 CURVE SMOOTH"
);
},
{
closed = 1;
nodes = (
"120 472 OFFCURVE",
"123 490 OFFCURVE",
"127 490 CURVE SMOOTH",
"130 490 OFFCURVE",
"152 470 OFFCURVE",
"149 470 CURVE SMOOTH",
"135 470 OFFCURVE",
"120 468 OFFCURVE",
"120 470 CURVE SMOOTH"
);
},
{
closed = 1;
nodes = (
"110 459 OFFCURVE",
"138 461 OFFCURVE",
"165 462 CURVE",
"165 462 OFFCURVE",
"168 464 OFFCURVE",
"166 467 CURVE SMOOTH",
"154 485 OFFCURVE",
"114 510 OFFCURVE",
"110 514 CURVE SMOOTH",
"107 517 OFFCURVE",
"136 527 OFFCURVE",
"152 523 CURVE",
"152 523 OFFCURVE",
"155 505 OFFCURVE",
"163 502 CURVE SMOOTH",
"172 499 OFFCURVE",
"180 498 OFFCURVE",
"194 512 CURVE SMOOTH",
"195 513 OFFCURVE",
"192 519 OFFCURVE",
"190 516 CURVE SMOOTH",
"187 511 OFFCURVE",
"173 509 OFFCURVE",
"168 511 CURVE SMOOTH",
"157 515 OFFCURVE",
"163 533 OFFCURVE",
"161 533 CURVE SMOOTH",
"151 533 OFFCURVE",
"133 533 OFFCURVE",
"119 529 CURVE SMOOTH",
"108 526 OFFCURVE",
"103 521 OFFCURVE",
"98 511 CURVE SMOOTH",
"97 509 OFFCURVE",
"99 507 OFFCURVE",
"100 508 CURVE SMOOTH",
"101 509 OFFCURVE",
"103 509 OFFCURVE",
"105 510 CURVE",
"105 510 OFFCURVE",
"122 495 OFFCURVE",
"121 493 CURVE SMOOTH",
"111 468 LINE",
"111 467 OFFCURVE",
"94 466 OFFCURVE",
"86 466 CURVE SMOOTH",
"84 466 OFFCURVE",
"81 459 OFFCURVE",
"83 459 CURVE SMOOTH"
);
},
{
closed = 1;
nodes = (
"158 308 LINE SMOOTH",
"158 314 OFFCURVE",
"158 325 OFFCURVE",
"157 331 CURVE SMOOTH",
"154 349 OFFCURVE",
"153 373 OFFCURVE",
"156 389 CURVE SMOOTH",
"157 395 OFFCURVE",
"165 413 OFFCURVE",
"166 415 CURVE SMOOTH",
"172 426 OFFCURVE",
"179 439 OFFCURVE",
"179 445 CURVE SMOOTH",
"179 466 OFFCURVE",
"185 483 OFFCURVE",
"196 501 CURVE SMOOTH",
"211 527 OFFCURVE",
"235 552 OFFCURVE",
"263 563 CURVE SMOOTH",
"276 568 OFFCURVE",
"289 572 OFFCURVE",
"291 566 CURVE SMOOTH",
"293 559 OFFCURVE",
"257 545 OFFCURVE",
"247 538 CURVE SMOOTH",
"237 531 OFFCURVE",
"231 524 OFFCURVE",
"224 516 CURVE SMOOTH",
"215 505 OFFCURVE",
"210 496 OFFCURVE",
"210 483 CURVE SMOOTH",
"210 474 OFFCURVE",
"213 465 OFFCURVE",
"213 457 CURVE SMOOTH",
"213 454 OFFCURVE",
"211 433 OFFCURVE",
"210 430 CURVE SMOOTH",
"202 405 OFFCURVE",
"188 407 OFFCURVE",
"178 385 CURVE SMOOTH",
"173 374 OFFCURVE",
"174 336 OFFCURVE",
"174 318 CURVE SMOOTH",
"174 317 OFFCURVE",
"171 320 OFFCURVE",
"171 322 CURVE SMOOTH",
"171 328 OFFCURVE",
"170 354 OFFCURVE",
"166 366 CURVE SMOOTH",
"164 372 OFFCURVE",
"168 386 OFFCURVE",
"169 389 CURVE SMOOTH",
"172 397 OFFCURVE",
"204 435 OFFCURVE",
"204 452 CURVE SMOOTH",
"204 453 OFFCURVE",
"202 453 OFFCURVE",
"201 453 CURVE SMOOTH",
"199 453 OFFCURVE",
"200 448 OFFCURVE",
"200 445 CURVE SMOOTH",
"200 443 OFFCURVE",
"197 432 OFFCURVE",
"195 430 CURVE SMOOTH",
"193 428 OFFCURVE",
"192 431 OFFCURVE",
"192 432 CURVE SMOOTH",
"192 440 OFFCURVE",
"189 445 OFFCURVE",
"189 440 CURVE SMOOTH",
"189 426 OFFCURVE",
"172 408 OFFCURVE",
"168 404 CURVE SMOOTH",
"164 400 OFFCURVE",
"160 402 OFFCURVE",
"160 365 CURVE SMOOTH",
"160 348 OFFCURVE",
"167 339 OFFCURVE",
"167 323 CURVE SMOOTH",
"167 304 OFFCURVE",
"156 278 OFFCURVE",
"156 284 CURVE SMOOTH"
);
},
{
closed = 1;
nodes = (
"463 167 OFFCURVE",
"435 192 OFFCURVE",
"420 192 CURVE SMOOTH",
"419 192 OFFCURVE",
"420 194 OFFCURVE",
"421 194 CURVE SMOOTH",
"435 194 OFFCURVE",
"455 192 OFFCURVE",
"465 207 CURVE SMOOTH",
"469 213 OFFCURVE",
"475 226 OFFCURVE",
"477 228 CURVE SMOOTH",
"478 229 OFFCURVE",
"495 208 OFFCURVE",
"495 207 CURVE SMOOTH",
"495 205 OFFCURVE",
"467 167 OFFCURVE",
"465 167 CURVE SMOOTH"
);
},
{
closed = 1;
nodes = (
"223 380 OFFCURVE",
"249 403 OFFCURVE",
"253 410 CURVE SMOOTH",
"266 433 OFFCURVE",
"260 431 OFFCURVE",
"262 440 CURVE SMOOTH",
"263 444 OFFCURVE",
"267 424 OFFCURVE",
"267 421 CURVE SMOOTH",
"267 405 OFFCURVE",
"243 384 OFFCURVE",
"232 382 CURVE SMOOTH"
);
},
{
closed = 1;
nodes = (
"236 380 OFFCURVE",
"267 393 OFFCURVE",
"270 403 CURVE SMOOTH",
"272 410 OFFCURVE",
"269 440 OFFCURVE",
"271 440 CURVE SMOOTH",
"276 440 OFFCURVE",
"289 430 OFFCURVE",
"292 424 CURVE SMOOTH",
"293 422 OFFCURVE",
"294 420 OFFCURVE",
"294 418 CURVE SMOOTH",
"294 410 OFFCURVE",
"281 400 OFFCURVE",
"276 398 CURVE",
"276 398 OFFCURVE",
"280 405 OFFCURVE",
"281 406 CURVE SMOOTH",
"284 409 OFFCURVE",
"283 415 OFFCURVE",
"283 418 CURVE SMOOTH",
"283 419 OFFCURVE",
"279 432 OFFCURVE",
"278 431 CURVE SMOOTH",
"277 430 OFFCURVE",
"277 427 OFFCURVE",
"277 425 CURVE SMOOTH",
"277 404 OFFCURVE",
"274 399 OFFCURVE",
"259 384 CURVE SMOOTH",
"258 383 OFFCURVE",
"246 380 OFFCURVE",
"245 380 CURVE SMOOTH"
);
},
{
closed = 1;
nodes = (
"243 407 OFFCURVE",
"245 409 OFFCURVE",
"245 410 CURVE SMOOTH",
"245 417 OFFCURVE",
"251 423 OFFCURVE",
"251 430 CURVE SMOOTH",
"251 435 OFFCURVE",
"249 445 OFFCURVE",
"249 451 CURVE SMOOTH",
"249 454 OFFCURVE",
"250 456 OFFCURVE",
"253 454 CURVE SMOOTH",
"257 451 OFFCURVE",
"258 445 OFFCURVE",
"258 438 CURVE SMOOTH",
"258 423 OFFCURVE",
"246 407 OFFCURVE",
"244 407 CURVE SMOOTH"
);
},
{
closed = 1;
nodes = (
"193 454 OFFCURVE",
"193 457 OFFCURVE",
"193 466 CURVE SMOOTH",
"193 471 OFFCURVE",
"197 482 OFFCURVE",
"200 484 CURVE SMOOTH",
"204 486 OFFCURVE",
"200 473 OFFCURVE",
"200 473 CURVE",
"198 468 OFFCURVE",
"199 464 OFFCURVE",
"199 464 CURVE",
"200 462 OFFCURVE",
"199 458 OFFCURVE",
"200 458 CURVE SMOOTH",
"201 458 OFFCURVE",
"205 485 OFFCURVE",
"207 490 CURVE SMOOTH",
"208 493 OFFCURVE",
"201 481 OFFCURVE",
"201 486 CURVE",
"203 494 LINE SMOOTH",
"206 501 OFFCURVE",
"211 507 OFFCURVE",
"213 512 CURVE SMOOTH",
"218 525 OFFCURVE",
"192 495 OFFCURVE",
"192 480 CURVE SMOOTH",
"192 477 OFFCURVE",
"189 467 OFFCURVE",
"189 463 CURVE",
"189 463 OFFCURVE",
"190 449 OFFCURVE",
"191 451 CURVE SMOOTH"
);
},
{
closed = 1;
nodes = (
"549 135 OFFCURVE",
"555 147 OFFCURVE",
"567 159 CURVE SMOOTH",
"569 161 OFFCURVE",
"562 167 OFFCURVE",
"560 164 CURVE SMOOTH",
"552 154 OFFCURVE",
"547 148 OFFCURVE",
"540 138 CURVE SMOOTH",
"539 136 OFFCURVE",
"521 146 OFFCURVE",
"521 151 CURVE SMOOTH",
"521 154 OFFCURVE",
"530 169 OFFCURVE",
"536 178 CURVE SMOOTH",
"537 180 OFFCURVE",
"532 185 OFFCURVE",
"530 183 CURVE SMOOTH",
"523 173 OFFCURVE",
"521 168 OFFCURVE",
"514 157 CURVE SMOOTH",
"512 154 OFFCURVE",
"496 171 OFFCURVE",
"496 173 CURVE SMOOTH",
"496 176 OFFCURVE",
"509 187 OFFCURVE",
"513 195 CURVE SMOOTH",
"514 197 OFFCURVE",
"509 202 OFFCURVE",
"508 200 CURVE SMOOTH",
"500 187 OFFCURVE",
"486 173 OFFCURVE",
"486 169 CURVE SMOOTH",
"486 168 OFFCURVE",
"539 125 OFFCURVE",
"541 127 CURVE SMOOTH"
);
},
{
closed = 1;
nodes = (
"201 8 OFFCURVE",
"55 92 OFFCURVE",
"55 341 CURVE SMOOTH",
"55 572 OFFCURVE",
"212 698 OFFCURVE",
"352 693 CURVE SMOOTH",
"482 689 OFFCURVE",
"642 601 OFFCURVE",
"642 365 CURVE SMOOTH",
"642 184 OFFCURVE",
"509 5 OFFCURVE",
"348 7 CURVE SMOOTH"
);
},
{
closed = 1;
nodes = (
"458 105 OFFCURVE",
"549 238 OFFCURVE",
"549 362 CURVE SMOOTH",
"549 523 OFFCURVE",
"440 600 OFFCURVE",
"351 603 CURVE SMOOTH",
"255 606 OFFCURVE",
"148 503 OFFCURVE",
"148 345 CURVE SMOOTH",
"148 175 OFFCURVE",
"248 107 OFFCURVE",
"348 106 CURVE SMOOTH"
);
},
{
closed = 1;
nodes = (
"283 125 OFFCURVE",
"291 126 OFFCURVE",
"293 129 CURVE SMOOTH",
"298 137 OFFCURVE",
"302 139 OFFCURVE",
"305 144 CURVE SMOOTH",
"314 159 OFFCURVE",
"311 173 OFFCURVE",
"305 192 CURVE SMOOTH",
"303 198 OFFCURVE",
"285 229 OFFCURVE",
"269 245 CURVE SMOOTH",
"260 254 OFFCURVE",
"229 285 OFFCURVE",
"229 305 CURVE SMOOTH",
"229 306 OFFCURVE",
"214 327 OFFCURVE",
"214 341 CURVE SMOOTH",
"214 349 OFFCURVE",
"215 356 OFFCURVE",
"219 365 CURVE SMOOTH",
"224 376 OFFCURVE",
"232 376 OFFCURVE",
"236 376 CURVE SMOOTH",
"245 376 OFFCURVE",
"256 370 OFFCURVE",
"262 366 CURVE SMOOTH",
"288 348 LINE SMOOTH",
"299 340 OFFCURVE",
"342 301 OFFCURVE",
"351 293 CURVE SMOOTH",
"357 288 OFFCURVE",
"369 268 OFFCURVE",
"373 250 CURVE SMOOTH",
"374 245 OFFCURVE",
"379 248 OFFCURVE",
"378 257 CURVE SMOOTH",
"376 271 OFFCURVE",
"370 277 OFFCURVE",
"366 295 CURVE SMOOTH",
"365 300 OFFCURVE",
"366 305 OFFCURVE",
"369 309 CURVE",
"369 309 OFFCURVE",
"376 319 OFFCURVE",
"375 321 CURVE",
"375 321 OFFCURVE",
"367 317 OFFCURVE",
"364 313 CURVE SMOOTH",
"360 307 OFFCURVE",
"361 290 OFFCURVE",
"357 292 CURVE SMOOTH",
"355 293 OFFCURVE",
"335 319 OFFCURVE",
"328 325 CURVE SMOOTH",
"318 334 OFFCURVE",
"309 344 OFFCURVE",
"302 357 CURVE SMOOTH",
"300 361 OFFCURVE",
"298 383 OFFCURVE",
"295 383 CURVE SMOOTH",
"293 383 OFFCURVE",
"292 380 OFFCURVE",
"292 378 CURVE SMOOTH",
"292 368 OFFCURVE",
"302 349 OFFCURVE",
"300 348 CURVE SMOOTH",
"297 347 OFFCURVE",
"284 357 OFFCURVE",
"277 364 CURVE SMOOTH",
"275 366 OFFCURVE",
"276 392 OFFCURVE",
"281 394 CURVE SMOOTH",
"285 396 OFFCURVE",
"298 394 OFFCURVE",
"302 393 CURVE SMOOTH",
"309 391 OFFCURVE",
"329 378 OFFCURVE",
"332 375 CURVE SMOOTH",
"337 370 OFFCURVE",
"339 364 OFFCURVE",
"344 360 CURVE SMOOTH",
"350 355 OFFCURVE",
"355 359 OFFCURVE",
"358 358 CURVE SMOOTH",
"360 357 OFFCURVE",
"359 328 OFFCURVE",
"365 330 CURVE SMOOTH",
"368 331 OFFCURVE",
"366 341 OFFCURVE",
"366 345 CURVE SMOOTH",
"366 353 OFFCURVE",
"366 357 OFFCURVE",
"363 361 CURVE SMOOTH",
"359 367 OFFCURVE",
"341 358 OFFCURVE",
"341 377 CURVE SMOOTH",
"341 387 OFFCURVE",
"344 391 OFFCURVE",
"350 393 CURVE SMOOTH",
"359 396 OFFCURVE",
"361 400 OFFCURVE",
"359 400 CURVE",
"344 408 LINE",
"340 409 OFFCURVE",
"311 420 OFFCURVE",
"307 422 CURVE SMOOTH",
"293 429 OFFCURVE",
"285 436 OFFCURVE",
"271 448 CURVE SMOOTH",
"263 455 OFFCURVE",
"253 463 OFFCURVE",
"246 471 CURVE SMOOTH",
"238 480 OFFCURVE",
"239 476 OFFCURVE",
"239 481 CURVE SMOOTH",
"239 489 OFFCURVE",
"246 497 OFFCURVE",
"257 512 CURVE SMOOTH",
"269 529 OFFCURVE",
"287 551 OFFCURVE",
"297 562 CURVE SMOOTH",
"303 569 OFFCURVE",
"297 568 OFFCURVE",
"300 573 CURVE SMOOTH",
"304 580 OFFCURVE",
"337 587 OFFCURVE",
"355 587 CURVE SMOOTH",
"370 587 OFFCURVE",
"382 580 OFFCURVE",
"393 573 CURVE SMOOTH",
"396 571 OFFCURVE",
"405 575 OFFCURVE",
"414 568 CURVE SMOOTH",
"419 564 OFFCURVE",
"427 558 OFFCURVE",
"427 553 CURVE SMOOTH",
"427 552 OFFCURVE",
"425 550 OFFCURVE",
"425 548 CURVE SMOOTH",
"425 544 OFFCURVE",
"429 542 OFFCURVE",
"429 534 CURVE SMOOTH",
"429 531 OFFCURVE",
"430 512 OFFCURVE",
"426 508 CURVE SMOOTH",
"423 505 OFFCURVE",
"432 484 OFFCURVE",
"431 484 CURVE SMOOTH",
"426 484 OFFCURVE",
"412 498 OFFCURVE",
"414 506 CURVE SMOOTH",
"416 515 OFFCURVE",
"421 531 OFFCURVE",
"416 545 CURVE SMOOTH",
"415 548 OFFCURVE",
"415 553 OFFCURVE",
"410 557 CURVE SMOOTH",
"407 559 OFFCURVE",
"404 563 OFFCURVE",
"400 563 CURVE SMOOTH",
"398 563 OFFCURVE",
"393 564 OFFCURVE",
"394 563 CURVE SMOOTH",
"404 553 OFFCURVE",
"411 545 OFFCURVE",
"411 532 CURVE",
"411 532 OFFCURVE",
"409 501 OFFCURVE",
"410 497 CURVE SMOOTH",
"413 485 OFFCURVE",
"437 473 OFFCURVE",
"450 462 CURVE SMOOTH",
"455 458 OFFCURVE",
"471 435 OFFCURVE",
"476 422 CURVE SMOOTH",
"482 406 OFFCURVE",
"486 375 OFFCURVE",
"486 354 CURVE SMOOTH",
"486 318 OFFCURVE",
"469 317 OFFCURVE",
"469 282 CURVE SMOOTH",
"469 265 OFFCURVE",
"469 268 OFFCURVE",
"472 244 CURVE SMOOTH",
"473 235 OFFCURVE",
"464 216 OFFCURVE",
"458 209 CURVE SMOOTH",
"444 193 OFFCURVE",
"429 197 OFFCURVE",
"424 199 CURVE SMOOTH",
"420 201 OFFCURVE",
"432 223 OFFCURVE",
"429 221 CURVE SMOOTH",
"422 216 OFFCURVE",
"418 199 OFFCURVE",
"407 190 CURVE SMOOTH",
"394 180 OFFCURVE",
"376 170 OFFCURVE",
"354 186 CURVE SMOOTH",
"330 204 OFFCURVE",
"319 213 OFFCURVE",
"309 227 CURVE SMOOTH",
"297 244 OFFCURVE",
"272 285 OFFCURVE",
"259 297 CURVE SMOOTH",
"249 306 OFFCURVE",
"236 318 OFFCURVE",
"231 329 CURVE SMOOTH",
"227 337 OFFCURVE",
"229 346 OFFCURVE",
"224 346 CURVE SMOOTH",
"221 346 OFFCURVE",
"223 323 OFFCURVE",
"236 314 CURVE SMOOTH",
"252 303 OFFCURVE",
"271 273 OFFCURVE",
"283 256 CURVE SMOOTH",
"300 232 OFFCURVE",
"307 215 OFFCURVE",
"328 194 CURVE SMOOTH",
"337 185 OFFCURVE",
"359 178 OFFCURVE",
"362 175 CURVE SMOOTH",
"363 174 OFFCURVE",
"360 161 OFFCURVE",
"358 160 CURVE SMOOTH",
"354 158 OFFCURVE",
"340 155 OFFCURVE",
"337 154 CURVE SMOOTH",
"330 152 OFFCURVE",
"307 125 OFFCURVE",
"303 124 CURVE SMOOTH",
"294 122 OFFCURVE",
"289 119 OFFCURVE",
"285 123 CURVE SMOOTH"
);
},
{
closed = 1;
nodes = (
"196 517 OFFCURVE",
"203 523 OFFCURVE",
"201 525 CURVE SMOOTH",
"183 543 OFFCURVE",
"163 557 OFFCURVE",
"143 570 CURVE SMOOTH",
"140 572 OFFCURVE",
"134 565 OFFCURVE",
"136 564 CURVE SMOOTH",
"159 553 OFFCURVE",
"177 536 OFFCURVE",
"194 519 CURVE SMOOTH"
);
},
{
closed = 1;
nodes = (
"300 397 OFFCURVE",
"296 397 OFFCURVE",
"296 401 CURVE SMOOTH",
"296 402 OFFCURVE",
"299 412 OFFCURVE",
"299 414 CURVE SMOOTH",
"299 415 LINE SMOOTH",
"299 419 OFFCURVE",
"300 420 OFFCURVE",
"301 420 CURVE SMOOTH",
"303 420 OFFCURVE",
"305 419 OFFCURVE",
"309 415 CURVE SMOOTH",
"313 411 OFFCURVE",
"307 397 OFFCURVE",
"302 397 CURVE SMOOTH"
);
},
{
closed = 1;
nodes = (
"322 388 OFFCURVE",
"315 392 OFFCURVE",
"314 393 CURVE SMOOTH",
"309 398 OFFCURVE",
"314 402 OFFCURVE",
"314 408 CURVE SMOOTH",
"314 415 OFFCURVE",
"315 416 OFFCURVE",
"321 411 CURVE SMOOTH",
"326 407 OFFCURVE",
"328 411 OFFCURVE",
"328 406 CURVE SMOOTH",
"328 403 OFFCURVE",
"327 391 OFFCURVE",
"324 389 CURVE SMOOTH"
);
},
{
closed = 1;
nodes = (
"434 270 OFFCURVE",
"436 274 OFFCURVE",
"436 283 CURVE SMOOTH",
"436 292 OFFCURVE",
"440 302 OFFCURVE",
"437 296 CURVE SMOOTH",
"431 284 OFFCURVE",
"433 275 OFFCURVE",
"433 276 CURVE SMOOTH",
"433 270 LINE"
);
},
{
closed = 1;
nodes = (
"550 198 OFFCURVE",
"557 199 OFFCURVE",
"565 200 CURVE",
"562 209 OFFCURVE",
"561 214 OFFCURVE",
"563 221 CURVE",
"556 218 OFFCURVE",
"551 216 OFFCURVE",
"543 216 CURVE",
"546 209 OFFCURVE",
"546 204 OFFCURVE",
"543 195 CURVE"
);
},
{
closed = 1;
nodes = (
"501 242 OFFCURVE",
"517 266 OFFCURVE",
"518 271 CURVE SMOOTH",
"520 280 OFFCURVE",
"506 258 OFFCURVE",
"502 249 CURVE SMOOTH",
"500 244 OFFCURVE",
"498 239 OFFCURVE",
"499 240 CURVE SMOOTH"
);
},
{
closed = 1;
nodes = (
"287 482 OFFCURVE",
"278 483 OFFCURVE",
"279 485 CURVE SMOOTH",
"281 488 OFFCURVE",
"285 491 OFFCURVE",
"288 494 CURVE SMOOTH",
"290 496 OFFCURVE",
"290 485 OFFCURVE",
"288 483 CURVE SMOOTH"
);
},
{
closed = 1;
nodes = (
"219 541 OFFCURVE",
"223 549 OFFCURVE",
"231 557 CURVE SMOOTH",
"238 564 OFFCURVE",
"240 586 OFFCURVE",
"227 600 CURVE SMOOTH",
"218 610 OFFCURVE",
"208 614 OFFCURVE",
"193 614 CURVE SMOOTH",
"183 614 OFFCURVE",
"174 609 OFFCURVE",
"166 603 CURVE SMOOTH",
"156 596 OFFCURVE",
"156 589 OFFCURVE",
"157 572 CURVE",
"163 572 LINE",
"163 584 OFFCURVE",
"163 589 OFFCURVE",
"170 598 CURVE SMOOTH",
"175 604 OFFCURVE",
"182 608 OFFCURVE",
"192 608 CURVE SMOOTH",
"202 608 OFFCURVE",
"213 599 OFFCURVE",
"216 597 CURVE SMOOTH",
"223 592 OFFCURVE",
"232 576 OFFCURVE",
"228 568 CURVE SMOOTH",
"219 551 OFFCURVE",
"215 551 OFFCURVE",
"203 550 CURVE",
"203 545 LINE"
);
},
{
closed = 1;
nodes = (
"487 256 OFFCURVE",
"493 269 OFFCURVE",
"494 270 CURVE SMOOTH",
"498 274 OFFCURVE",
"502 279 OFFCURVE",
"504 286 CURVE SMOOTH",
"506 293 OFFCURVE",
"506 301 OFFCURVE",
"506 306 CURVE SMOOTH",
"506 310 OFFCURVE",
"507 314 OFFCURVE",
"502 317 CURVE SMOOTH",
"500 318 OFFCURVE",
"497 334 OFFCURVE",
"496 334 CURVE SMOOTH",
"494 334 OFFCURVE",
"497 319 OFFCURVE",
"500 313 CURVE SMOOTH",
"503 306 OFFCURVE",
"502 296 OFFCURVE",
"499 288 CURVE SMOOTH",
"496 279 OFFCURVE",
"490 272 OFFCURVE",
"487 269 CURVE SMOOTH",
"483 265 OFFCURVE",
"482 261 OFFCURVE",
"484 259 CURVE SMOOTH"
);
},
{
closed = 1;
nodes = (
"257 549 OFFCURVE",
"265 553 OFFCURVE",
"269 557 CURVE SMOOTH",
"274 562 OFFCURVE",
"238 544 OFFCURVE",
"250 547 CURVE SMOOTH"
);
},
{
closed = 1;
nodes = (
"328 476 OFFCURVE",
"327 481 OFFCURVE",
"328 486 CURVE SMOOTH",
"329 490 OFFCURVE",
"332 494 OFFCURVE",
"333 498 CURVE SMOOTH",
"334 503 OFFCURVE",
"324 491 OFFCURVE",
"323 487 CURVE SMOOTH",
"322 481 OFFCURVE",
"328 466 OFFCURVE",
"328 471 CURVE SMOOTH"
);
},
{
closed = 1;
nodes = (
"373 444 OFFCURVE",
"363 459 OFFCURVE",
"346 459 CURVE SMOOTH",
"345 459 OFFCURVE",
"346 463 OFFCURVE",
"346 465 CURVE SMOOTH",
"346 467 OFFCURVE",
"346 472 OFFCURVE",
"344 472 CURVE SMOOTH",
"343 472 OFFCURVE",
"341 464 OFFCURVE",
"340 463 CURVE SMOOTH",
"337 460 OFFCURVE",
"325 465 OFFCURVE",
"322 466 CURVE SMOOTH",
"318 467 OFFCURVE",
"313 472 OFFCURVE",
"313 477 CURVE SMOOTH",
"313 480 OFFCURVE",
"311 481 OFFCURVE",
"311 484 CURVE SMOOTH",
"311 490 OFFCURVE",
"325 505 OFFCURVE",
"325 507 CURVE SMOOTH",
"325 510 OFFCURVE",
"311 499 OFFCURVE",
"309 492 CURVE SMOOTH",
"308 489 OFFCURVE",
"307 485 OFFCURVE",
"307 483 CURVE SMOOTH",
"307 480 OFFCURVE",
"309 476 OFFCURVE",
"309 472 CURVE SMOOTH",
"309 468 OFFCURVE",
"299 476 OFFCURVE",
"298 477 CURVE SMOOTH",
"296 479 OFFCURVE",
"293 483 OFFCURVE",
"293 490 CURVE SMOOTH",
"293 500 OFFCURVE",
"298 509 OFFCURVE",
"303 519 CURVE SMOOTH",
"311 535 OFFCURVE",
"325 550 OFFCURVE",
"327 548 CURVE SMOOTH",
"328 547 OFFCURVE",
"318 533 OFFCURVE",
"318 533 CURVE",
"311 520 OFFCURVE",
"299 516 OFFCURVE",
"299 497 CURVE SMOOTH",
"299 496 OFFCURVE",
"300 490 OFFCURVE",
"302 490 CURVE SMOOTH",
"304 490 OFFCURVE",
"301 498 OFFCURVE",
"307 511 CURVE SMOOTH",
"308 513 OFFCURVE",
"331 542 OFFCURVE",
"332 543 CURVE SMOOTH",
"347 558 OFFCURVE",
"355 556 OFFCURVE",
"361 562 CURVE SMOOTH",
"367 568 OFFCURVE",
"326 550 OFFCURVE",
"321 555 CURVE SMOOTH",
"320 556 OFFCURVE",
"318 554 OFFCURVE",
"319 553 CURVE SMOOTH",
"322 550 OFFCURVE",
"294 511 OFFCURVE",
"288 503 CURVE SMOOTH",
"282 495 OFFCURVE",
"274 489 OFFCURVE",
"267 485 CURVE",
"267 485 OFFCURVE",
"266 484 OFFCURVE",
"266 483 CURVE SMOOTH",
"266 479 OFFCURVE",
"331 458 OFFCURVE",
"335 457 CURVE SMOOTH",
"359 451 OFFCURVE",
"368 437 OFFCURVE",
"371 441 CURVE SMOOTH"
);
},
{
closed = 1;
nodes = (
"451 341 OFFCURVE",
"450 354 OFFCURVE",
"450 368 CURVE SMOOTH",
"450 405 OFFCURVE",
"431 441 OFFCURVE",
"434 429 CURVE SMOOTH",
"436 421 OFFCURVE",
"442 405 OFFCURVE",
"444 394 CURVE SMOOTH",
"449 366 OFFCURVE",
"446 369 OFFCURVE",
"446 344 CURVE SMOOTH",
"446 343 OFFCURVE",
"446 341 OFFCURVE",
"449 341 CURVE SMOOTH"
);
},
{
closed = 1;
nodes = (
"522 310 OFFCURVE",
"523 312 OFFCURVE",
"523 315 CURVE SMOOTH",
"523 319 OFFCURVE",
"526 332 OFFCURVE",
"518 335 CURVE SMOOTH",
"508 339 OFFCURVE",
"517 334 OFFCURVE",
"518 327 CURVE SMOOTH",
"521 310 LINE"
);
},
{
closed = 1;
nodes = (
"485 224 OFFCURVE",
"480 242 OFFCURVE",
"480 248 CURVE SMOOTH",
"480 250 OFFCURVE",
"476 262 OFFCURVE",
"476 264 CURVE SMOOTH",
"476 270 OFFCURVE",
"487 288 OFFCURVE",
"488 293 CURVE SMOOTH",
"490 304 OFFCURVE",
"489 317 OFFCURVE",
"489 325 CURVE SMOOTH",
"489 331 OFFCURVE",
"491 340 OFFCURVE",
"491 348 CURVE SMOOTH",
"491 411 LINE SMOOTH",
"491 438 OFFCURVE",
"479 442 OFFCURVE",
"473 451 CURVE SMOOTH",
"468 458 OFFCURVE",
"440 475 OFFCURVE",
"437 481 CURVE SMOOTH",
"435 485 OFFCURVE",
"433 497 OFFCURVE",
"434 503 CURVE SMOOTH",
"435 510 OFFCURVE",
"436 524 OFFCURVE",
"436 536 CURVE SMOOTH",
"436 542 OFFCURVE",
"436 547 OFFCURVE",
"434 553 CURVE SMOOTH",
"426 576 OFFCURVE",
"405 577 OFFCURVE",
"395 577 CURVE SMOOTH",
"394 577 OFFCURVE",
"392 580 OFFCURVE",
"392 580 CURVE",
"391 582 OFFCURVE",
"392 584 OFFCURVE",
"393 584 CURVE SMOOTH",
"399 584 LINE SMOOTH",
"417 584 OFFCURVE",
"432 569 OFFCURVE",
"438 555 CURVE SMOOTH",
"442 546 OFFCURVE",
"444 538 OFFCURVE",
"444 527 CURVE SMOOTH",
"444 494 LINE SMOOTH",
"444 476 OFFCURVE",
"459 469 OFFCURVE",
"474 461 CURVE SMOOTH",
"498 448 OFFCURVE",
"504 432 OFFCURVE",
"504 416 CURVE SMOOTH",
"504 398 OFFCURVE",
"495 384 OFFCURVE",
"495 365 CURVE SMOOTH",
"495 360 OFFCURVE",
"497 350 OFFCURVE",
"498 345 CURVE SMOOTH",
"502 323 OFFCURVE",
"512 310 OFFCURVE",
"512 297 CURVE SMOOTH",
"512 287 OFFCURVE",
"497 261 OFFCURVE",
"493 258 CURVE SMOOTH",
"488 255 OFFCURVE",
"483 248 OFFCURVE",
"484 241 CURVE SMOOTH",
"485 236 OFFCURVE",
"495 219 OFFCURVE",
"493 220 CURVE SMOOTH"
);
},
{
closed = 1;
nodes = (
"556 237 OFFCURVE",
"586 240 OFFCURVE",
"615 240 CURVE SMOOTH",
"616 240 OFFCURVE",
"617 244 OFFCURVE",
"616 245 CURVE",
"598 256 OFFCURVE",
"576 271 OFFCURVE",
"556 285 CURVE SMOOTH",
"535 300 OFFCURVE",
"631 276 OFFCURVE",
"631 291 CURVE SMOOTH",
"631 296 LINE",
"631 296 OFFCURVE",
"585 328 OFFCURVE",
"557 342 CURVE SMOOTH",
"555 343 OFFCURVE",
"553 333 OFFCURVE",
"556 331 CURVE SMOOTH",
"573 319 OFFCURVE",
"594 309 OFFCURVE",
"612 297 CURVE SMOOTH",
"630 285 OFFCURVE",
"570 299 OFFCURVE",
"548 299 CURVE SMOOTH",
"545 299 OFFCURVE",
"543 285 OFFCURVE",
"546 283 CURVE SMOOTH",
"560 274 OFFCURVE",
"572 262 OFFCURVE",
"586 252 CURVE SMOOTH",
"601 242 OFFCURVE",
"552 248 OFFCURVE",
"534 248 CURVE SMOOTH",
"530 248 OFFCURVE",
"525 237 OFFCURVE",
"529 237 CURVE SMOOTH"
);
},
{
closed = 1;
nodes = (
"333 527 OFFCURVE",
"331 528 OFFCURVE",
"335 533 CURVE SMOOTH",
"339 538 OFFCURVE",
"344 540 OFFCURVE",
"348 546 CURVE SMOOTH",
"351 550 OFFCURVE",
"337 538 OFFCURVE",
"333 535 CURVE SMOOTH",
"326 530 OFFCURVE",
"324 516 OFFCURVE",
"328 521 CURVE SMOOTH"
);
},
{
closed = 1;
nodes = (
"261 617 OFFCURVE",
"264 623 OFFCURVE",
"268 628 CURVE",
"261 628 OFFCURVE",
"256 629 OFFCURVE",
"248 633 CURVE",
"247 625 OFFCURVE",
"245 621 OFFCURVE",
"238 615 CURVE",
"246 614 OFFCURVE",
"252 612 OFFCURVE",
"259 608 CURVE"
);
},
{
closed = 1;
nodes = (
"500 217 OFFCURVE",
"498 222 OFFCURVE",
"495 226 CURVE SMOOTH",
"492 230 OFFCURVE",
"491 234 OFFCURVE",
"490 239 CURVE SMOOTH",
"489 244 OFFCURVE",
"506 258 OFFCURVE",
"514 278 CURVE SMOOTH",
"518 288 OFFCURVE",
"520 300 OFFCURVE",
"518 310 CURVE SMOOTH",
"515 323 OFFCURVE",
"502 336 OFFCURVE",
"502 354 CURVE SMOOTH",
"502 356 OFFCURVE",
"503 361 OFFCURVE",
"504 361 CURVE SMOOTH",
"506 361 OFFCURVE",
"507 355 OFFCURVE",
"508 353 CURVE SMOOTH",
"512 346 OFFCURVE",
"511 339 OFFCURVE",
"513 343 CURVE SMOOTH",
"516 349 OFFCURVE",
"510 357 OFFCURVE",
"509 364 CURVE SMOOTH",
"508 371 OFFCURVE",
"507 378 OFFCURVE",
"509 384 CURVE SMOOTH",
"510 387 OFFCURVE",
"511 393 OFFCURVE",
"511 394 CURVE SMOOTH",
"511 407 OFFCURVE",
"517 416 OFFCURVE",
"517 426 CURVE SMOOTH",
"517 433 OFFCURVE",
"517 442 OFFCURVE",
"511 448 CURVE SMOOTH",
"509 450 OFFCURVE",
"503 458 OFFCURVE",
"502 457 CURVE SMOOTH",
"501 456 OFFCURVE",
"512 440 OFFCURVE",
"513 438 CURVE SMOOTH",
"515 434 OFFCURVE",
"513 422 OFFCURVE",
"513 417 CURVE SMOOTH",
"513 416 OFFCURVE",
"512 413 OFFCURVE",
"511 413 CURVE SMOOTH",
"510 413 OFFCURVE",
"511 427 OFFCURVE",
"508 435 CURVE SMOOTH",
"505 443 OFFCURVE",
"502 448 OFFCURVE",
"499 450 CURVE SMOOTH",
"494 454 OFFCURVE",
"488 459 OFFCURVE",
"482 462 CURVE SMOOTH",
"468 469 OFFCURVE",
"449 478 OFFCURVE",
"449 497 CURVE SMOOTH",
"449 499 OFFCURVE",
"450 508 OFFCURVE",
"451 511 CURVE SMOOTH",
"454 519 OFFCURVE",
"451 525 OFFCURVE",
"451 532 CURVE SMOOTH",
"451 535 OFFCURVE",
"451 538 OFFCURVE",
"450 541 CURVE SMOOTH",
"448 546 OFFCURVE",
"447 551 OFFCURVE",
"445 555 CURVE SMOOTH",
"444 557 OFFCURVE",
"443 562 OFFCURVE",
"446 562 CURVE SMOOTH",
"448 562 OFFCURVE",
"454 556 OFFCURVE",
"456 554 CURVE SMOOTH",
"471 539 OFFCURVE",
"461 506 OFFCURVE",
"464 497 CURVE SMOOTH",
"466 491 OFFCURVE",
"475 479 OFFCURVE",
"480 475 CURVE SMOOTH",
"489 467 OFFCURVE",
"504 461 OFFCURVE",
"509 456 CURVE SMOOTH",
"516 449 OFFCURVE",
"521 443 OFFCURVE",
"523 434 CURVE SMOOTH",
"524 430 OFFCURVE",
"525 418 OFFCURVE",
"524 414 CURVE SMOOTH",
"521 403 OFFCURVE",
"519 392 OFFCURVE",
"516 375 CURVE SMOOTH",
"515 369 OFFCURVE",
"524 343 OFFCURVE",
"526 339 CURVE SMOOTH",
"528 335 OFFCURVE",
"532 319 OFFCURVE",
"532 318 CURVE SMOOTH",
"532 299 OFFCURVE",
"529 276 OFFCURVE",
"515 254 CURVE SMOOTH",
"511 248 OFFCURVE",
"523 262 OFFCURVE",
"521 257 CURVE SMOOTH",
"510 233 LINE",
"508 234 OFFCURVE",
"513 249 OFFCURVE",
"510 245 CURVE SMOOTH",
"502 234 OFFCURVE",
"507 214 OFFCURVE",
"502 216 CURVE SMOOTH"
);
},
{
closed = 1;
nodes = (
"348 524 OFFCURVE",
"346 520 OFFCURVE",
"349 525 CURVE SMOOTH",
"352 530 OFFCURVE",
"356 530 OFFCURVE",
"360 534 CURVE SMOOTH",
"364 538 OFFCURVE",
"349 530 OFFCURVE",
"346 525 CURVE SMOOTH",
"343 519 OFFCURVE",
"344 515 OFFCURVE",
"346 519 CURVE SMOOTH"
);
},
{
closed = 1;
nodes = (
"366 489 OFFCURVE",
"376 494 OFFCURVE",
"379 498 CURVE SMOOTH",
"385 506 OFFCURVE",
"379 526 OFFCURVE",
"377 521 CURVE SMOOTH",
"376 518 OFFCURVE",
"379 507 OFFCURVE",
"376 501 CURVE SMOOTH",
"373 495 OFFCURVE",
"370 497 OFFCURVE",
"367 491 CURVE SMOOTH"
);
},
{
closed = 1;
nodes = (
"361 503 OFFCURVE",
"369 514 OFFCURVE",
"370 516 CURVE SMOOTH",
"373 522 OFFCURVE",
"370 536 OFFCURVE",
"368 533 CURVE SMOOTH",
"365 529 OFFCURVE",
"367 523 OFFCURVE",
"366 519 CURVE SMOOTH",
"365 514 OFFCURVE",
"363 511 OFFCURVE",
"362 507 CURVE SMOOTH"
);
},
{
closed = 1;
nodes = (
"409 489 OFFCURVE",
"394 498 OFFCURVE",
"394 508 CURVE SMOOTH",
"394 516 OFFCURVE",
"389 532 OFFCURVE",
"382 538 CURVE SMOOTH",
"373 546 OFFCURVE",
"390 528 OFFCURVE",
"390 520 CURVE SMOOTH",
"390 504 LINE SMOOTH",
"390 502 OFFCURVE",
"388 496 OFFCURVE",
"389 495 CURVE SMOOTH",
"392 492 OFFCURVE",
"392 498 OFFCURVE",
"392 499 CURVE SMOOTH",
"392 502 OFFCURVE",
"405 483 OFFCURVE",
"407 486 CURVE SMOOTH"
);
},
{
closed = 1;
nodes = (
"404 514 OFFCURVE",
"403 522 OFFCURVE",
"404 525 CURVE SMOOTH",
"406 532 OFFCURVE",
"401 540 OFFCURVE",
"396 543 CURVE SMOOTH",
"393 545 OFFCURVE",
"390 545 OFFCURVE",
"391 544 CURVE SMOOTH",
"395 540 OFFCURVE",
"400 537 OFFCURVE",
"400 532 CURVE SMOOTH",
"400 528 OFFCURVE",
"403 510 OFFCURVE",
"404 514 CURVE"
);
},
{
closed = 1;
nodes = (
"536 308 OFFCURVE",
"534 328 OFFCURVE",
"533 334 CURVE SMOOTH",
"530 349 OFFCURVE",
"520 357 OFFCURVE",
"522 374 CURVE SMOOTH",
"523 385 OFFCURVE",
"534 428 OFFCURVE",
"530 436 CURVE SMOOTH",
"525 446 OFFCURVE",
"520 453 OFFCURVE",
"513 459 CURVE SMOOTH",
"492 477 OFFCURVE",
"476 490 OFFCURVE",
"473 500 CURVE SMOOTH",
"471 506 OFFCURVE",
"472 531 OFFCURVE",
"468 543 CURVE SMOOTH",
"467 546 OFFCURVE",
"470 547 OFFCURVE",
"472 540 CURVE SMOOTH",
"475 528 OFFCURVE",
"481 505 OFFCURVE",
"489 496 CURVE SMOOTH",
"498 486 OFFCURVE",
"525 460 OFFCURVE",
"532 447 CURVE SMOOTH",
"537 438 OFFCURVE",
"535 430 OFFCURVE",
"534 419 CURVE SMOOTH",
"533 409 OFFCURVE",
"529 393 OFFCURVE",
"529 381 CURVE SMOOTH",
"529 352 OFFCURVE",
"542 320 OFFCURVE",
"539 314 CURVE SMOOTH"
);
},
{
closed = 1;
nodes = (
"349 569 OFFCURVE",
"356 571 OFFCURVE",
"363 572 CURVE SMOOTH",
"369 573 OFFCURVE",
"374 572 OFFCURVE",
"381 572 CURVE SMOOTH",
"386 572 OFFCURVE",
"368 578 OFFCURVE",
"363 578 CURVE SMOOTH",
"355 578 OFFCURVE",
"337 567 OFFCURVE",
"342 568 CURVE SMOOTH"
);
},
{
closed = 1;
nodes = (
"337 629 OFFCURVE",
"341 632 OFFCURVE",
"348 635 CURVE",
"342 638 OFFCURVE",
"337 642 OFFCURVE",
"332 649 CURVE",
"327 643 OFFCURVE",
"323 638 OFFCURVE",
"315 635 CURVE",
"324 632 OFFCURVE",
"328 629 OFFCURVE",
"332 623 CURVE"
);
},
{
closed = 1;
nodes = (
"457 491 OFFCURVE",
"458 496 OFFCURVE",
"458 498 CURVE SMOOTH",
"458 504 LINE SMOOTH",
"458 509 OFFCURVE",
"458 513 OFFCURVE",
"460 518 CURVE SMOOTH",
"462 522 OFFCURVE",
"460 526 OFFCURVE",
"459 528 CURVE SMOOTH",
"457 531 OFFCURVE",
"455 515 OFFCURVE",
"455 503 CURVE SMOOTH",
"455 497 OFFCURVE",
"455 491 OFFCURVE",
"456 491 CURVE SMOOTH"
);
},
{
closed = 1;
nodes = (
"565 354 OFFCURVE",
"625 356 OFFCURVE",
"629 357 CURVE SMOOTH",
"633 358 OFFCURVE",
"626 396 OFFCURVE",
"626 411 CURVE SMOOTH",
"626 414 OFFCURVE",
"615 414 OFFCURVE",
"615 411 CURVE SMOOTH",
"615 396 OFFCURVE",
"620 378 OFFCURVE",
"620 367 CURVE SMOOTH",
"620 366 OFFCURVE",
"608 364 OFFCURVE",
"603 365 CURVE SMOOTH",
"599 366 OFFCURVE",
"598 386 OFFCURVE",
"596 400 CURVE SMOOTH",
"596 401 OFFCURVE",
"589 402 OFFCURVE",
"589 399 CURVE SMOOTH",
"590 387 OFFCURVE",
"593 369 OFFCURVE",
"593 366 CURVE SMOOTH",
"593 363 OFFCURVE",
"569 364 OFFCURVE",
"569 364 CURVE",
"567 366 OFFCURVE",
"567 391 OFFCURVE",
"567 402 CURVE SMOOTH",
"567 403 OFFCURVE",
"557 404 OFFCURVE",
"557 402 CURVE SMOOTH",
"557 392 OFFCURVE",
"557 354 OFFCURVE",
"560 354 CURVE SMOOTH"
);
},
{
closed = 1;
nodes = (
"575 429 OFFCURVE",
"600 433 OFFCURVE",
"622 438 CURVE SMOOTH",
"626 439 OFFCURVE",
"622 450 OFFCURVE",
"619 449 CURVE SMOOTH",
"595 441 OFFCURVE",
"572 439 OFFCURVE",
"548 431 CURVE SMOOTH",
"546 430 OFFCURVE",
"548 420 OFFCURVE",
"551 421 CURVE SMOOTH"
);
},
{
closed = 1;
nodes = (
"433 616 OFFCURVE",
"446 632 OFFCURVE",
"458 650 CURVE SMOOTH",
"460 653 OFFCURVE",
"453 663 OFFCURVE",
"451 660 CURVE SMOOTH",
"438 640 OFFCURVE",
"428 624 OFFCURVE",
"421 602 CURVE",
"412 604 OFFCURVE",
"402 611 OFFCURVE",
"403 617 CURVE SMOOTH",
"405 630 OFFCURVE",
"427 624 OFFCURVE",
"425 627 CURVE SMOOTH",
"419 636 OFFCURVE",
"421 651 OFFCURVE",
"414 664 CURVE SMOOTH",
"398 693 OFFCURVE",
"379 673 OFFCURVE",
"373 650 CURVE SMOOTH",
"372 646 OFFCURVE",
"376 646 OFFCURVE",
"377 649 CURVE SMOOTH",
"395 693 OFFCURVE",
"412 659 OFFCURVE",
"412 634 CURVE",
"412 634 OFFCURVE",
"395 631 OFFCURVE",
"395 622 CURVE SMOOTH",
"395 607 OFFCURVE",
"416 593 OFFCURVE",
"425 593 CURVE"
);
},
{
closed = 1;
nodes = (
"478 580 OFFCURVE",
"481 603 OFFCURVE",
"482 602 CURVE SMOOTH",
"484 600 OFFCURVE",
"500 588 OFFCURVE",
"501 588 CURVE SMOOTH",
"502 588 OFFCURVE",
"478 573 OFFCURVE",
"478 573 CURVE"
);
},
{
closed = 1;
nodes = (
"535 471 OFFCURVE",
"582 476 OFFCURVE",
"613 476 CURVE SMOOTH",
"616 476 OFFCURVE",
"614 487 OFFCURVE",
"611 487 CURVE SMOOTH",
"591 487 OFFCURVE",
"559 481 OFFCURVE",
"545 481 CURVE",
"560 500 OFFCURVE",
"579 534 OFFCURVE",
"582 537 CURVE SMOOTH",
"585 540 OFFCURVE",
"581 542 OFFCURVE",
"578 541 CURVE SMOOTH",
"561 535 OFFCURVE",
"524 526 OFFCURVE",
"517 526 CURVE",
"531 538 OFFCURVE",
"542 562 OFFCURVE",
"555 575 CURVE SMOOTH",
"557 577 OFFCURVE",
"554 589 OFFCURVE",
"551 586 CURVE SMOOTH",
"531 566 OFFCURVE",
"520 543 OFFCURVE",
"508 521 CURVE",
"507 520 OFFCURVE",
"508 516 OFFCURVE",
"510 516 CURVE SMOOTH",
"532 516 OFFCURVE",
"559 527 OFFCURVE",
"571 531 CURVE",
"554 510 OFFCURVE",
"531 476 OFFCURVE",
"531 476 CURVE",
"534 472 LINE SMOOTH"
);
},
{
closed = 1;
nodes = (
"494 565 OFFCURVE",
"536 597 OFFCURVE",
"537 598 CURVE SMOOTH",
"539 600 OFFCURVE",
"534 602 OFFCURVE",
"532 604 CURVE SMOOTH",
"530 606 OFFCURVE",
"511 588 OFFCURVE",
"507 591 CURVE SMOOTH",
"484 611 LINE",
"484 611 OFFCURVE",
"490 630 OFFCURVE",
"490 638 CURVE SMOOTH",
"490 641 OFFCURVE",
"482 645 OFFCURVE",
"481 643 CURVE",
"474 617 OFFCURVE",
"468 590 OFFCURVE",
"465 567 CURVE SMOOTH",
"465 566 OFFCURVE",
"469 559 OFFCURVE",
"473 560 CURVE SMOOTH"
);
}
);
width = 697;
}
);
},
